<?xml version="1.0" encoding="utf-8"?>
<!-- Generator: Adobe Illustrator 22.0.1, SVG Export Plug-In . SVG Version: 6.00 Build 0)  -->
<svg version="1.1" id="Layer_1" xmlns="http://www.w3.org/2000/svg" xmlns:xlink="http://www.w3.org/1999/xlink" x="0px" y="0px"
	 viewBox="0 0 77.5 77.5" style="enable-background:new 0 0 77.5 77.5;" xml:space="preserve">
<style type="text/css">
	.st0{fill:#FFFFFF;}
</style>
<title>Asset 1</title>
<g id="_x31_84bdddb-e90b-4e74-827e-b746c64fff60">
	<g id="c4cd1971-ee47-433d-a572-3ee690948ce8">
		<path class="st0" d="M10.4,45l4-5.5c2.8,3,6.8,4.6,10.9,4.6c4,0,6-1.8,6-3.8c0-6.1-19.8-1.9-19.8-14.8c0-5.7,4.9-10.4,13-10.4
			c5.5,0,10,1.6,13.4,4.8l-4.1,5.4c-2.7-2.5-6.3-3.8-10-3.8c-3.1,0-4.9,1.4-4.9,3.5c0,5.5,19.7,1.8,19.7,14.6c0,6.3-4.5,11-13.7,11
			C18.3,50.5,13.6,48.2,10.4,45"/>
		<polygon class="st0" points="42,49.8 42,15.5 66.3,15.5 66.3,21.9 49.3,21.9 49.3,29.2 65.9,29.2 65.9,35.6 49.3,35.6 49.3,43.4 
			66.3,43.4 66.3,49.8 		"/>
		<path class="st0" d="M77.5,77.5H14.2C6.4,77.5,0,71.2,0,63.3c0,0,0,0,0,0V0h63.4c7.8,0,14.1,6.3,14.2,14.2L77.5,77.5z M3,3v60.3
			c0,6.2,5,11.1,11.2,11.1c0,0,0,0,0,0h60.3V14.2C74.5,8,69.5,3,63.4,3H3z"/>
		<path class="st0" d="M15.5,59.5L15.5,59.5c-0.3,0.6-0.9,1-1.5,1c-1.1,0-2-0.9-2-2c0,0,0-0.1,0-0.1c0-0.6,0.2-1.1,0.6-1.5
			c0.4-0.4,0.9-0.6,1.4-0.6c0.7,0,1.3,0.4,1.5,1l0,0l1.4-0.7l0,0c-0.5-1.1-1.7-1.8-2.9-1.8c-1,0-1.9,0.3-2.6,1
			c-1.4,1.4-1.4,3.7,0,5.1c0.7,0.7,1.6,1.1,2.6,1c1.2,0,2.4-0.7,2.9-1.8l0,0L15.5,59.5L15.5,59.5z M15.1,61.7L15.1,61.7 M15.6,61.5
			L15.6,61.5"/>
		<polygon class="st0" points="22.8,57.5 19.6,57.5 19.6,54.9 18,54.9 18,61.7 19.6,61.7 19.6,59 22.8,59 22.8,61.7 24.4,61.7 
			24.4,54.9 22.8,54.9 		"/>
		<path class="st0" d="M31.9,57.2c0-0.6-0.2-1.1-0.6-1.6c-0.5-0.4-1.1-0.7-1.8-0.7h-3.4v6.8h1.6v-2.3h1l1.3,2.3H32l-1.6-2.5
			C31.3,59,32,58.1,31.9,57.2 M27.8,56.4h1.6c0.4-0.1,0.9,0.2,0.9,0.7c0.1,0.4-0.2,0.9-0.7,0.9c-0.1,0-0.2,0-0.3,0h-1.6L27.8,56.4z"
			/>
		<rect x="33.3" y="54.9" class="st0" width="1.6" height="6.8"/>
		<path class="st0" d="M41.7,58.8c0-0.1-0.1-0.2-0.2-0.2l-0.1-0.1c-0.1-0.1-0.1-0.1-0.2-0.2l-0.1-0.1L41,58.1
			c-0.6-0.3-1.1-0.5-1.8-0.6c-0.4,0-0.9-0.2-1.2-0.4l0,0c-0.1-0.1-0.1-0.2-0.1-0.2c0-0.4,0.4-0.7,1-0.7c0.7,0,1.4,0.3,2,0.8l0,0
			l0.8-1.2l0,0c-0.8-0.7-1.7-1-2.7-1c-0.7,0-1.4,0.2-2,0.6c-0.5,0.4-0.7,0.9-0.7,1.5c0,0.1,0,0.3,0,0.4l0,0c0,0.1,0.1,0.2,0.1,0.3
			v0.1c0,0.1,0.1,0.2,0.2,0.2c0,0,0,0,0,0.1c0.1,0.1,0.1,0.1,0.2,0.2l0,0c0.6,0.4,1.2,0.6,1.9,0.7c0.7,0.2,1.4,0.3,1.4,0.7
			s-0.4,0.7-1.2,0.7c-0.8,0-1.6-0.3-2.2-0.9l0,0L36,60.8l0,0c0.8,0.7,1.9,1,2.9,1c1.8,0,2.9-0.8,2.9-2.2
			C41.8,59.4,41.8,59.1,41.7,58.8L41.7,58.8 M41.6,58.7L41.6,58.7 M41.3,58.4L41.3,58.4 M36.5,57.8L36.5,57.8 M36.8,58.1L36.8,58.1"
			/>
		<polygon class="st0" points="42.5,56.4 44.4,56.4 44.4,61.7 46.1,61.7 46.1,56.4 48,56.4 48,54.9 42.5,54.9 		"/>
		<rect x="49.1" y="54.9" class="st0" width="1.6" height="6.8"/>
		<path class="st0" d="M56.3,54.9h-2l-2.7,6.8h1.8l0.4-1.1h2.9l0.4,1.1H59L56.3,54.9L56.3,54.9z M56.3,59.2h-2l1-2.6L56.3,59.2z"/>
		<polygon class="st0" points="64.7,54.9 64.7,59 61.6,54.9 61.6,54.9 59.9,54.9 59.9,61.7 61.5,61.7 61.5,57.5 64.6,61.7 
			64.6,61.7 66.3,61.7 66.3,54.9 		"/>
	</g>
</g>
</svg>
