<svg xmlns="http://www.w3.org/2000/svg" viewBox="0 0 77.52 77.49"><title>Asset 1</title><g id="184bdddb-e90b-4e74-827e-b746c64fff60" data-name="Layer 2"><g id="c4cd1971-ee47-433d-a572-3ee690948ce8" data-name="Layer 1"><path d="M10.35,45l4-5.55a15,15,0,0,0,10.9,4.62c4,0,6-1.85,6-3.8,0-6.07-19.75-1.9-19.75-14.81,0-5.71,4.94-10.44,13-10.44,5.45,0,10,1.64,13.36,4.78l-4.06,5.35a14.71,14.71,0,0,0-10-3.76c-3.14,0-4.89,1.39-4.89,3.45,0,5.45,19.69,1.8,19.69,14.61,0,6.27-4.47,11-13.72,11-6.58,0-11.32-2.21-14.5-5.45" fill="#231f20"/><polygon points="41.99 49.82 41.99 15.51 66.26 15.51 66.26 21.94 49.29 21.94 49.29 29.19 65.9 29.19 65.9 35.62 49.29 35.62 49.29 43.39 66.26 43.39 66.26 49.82 41.99 49.82" fill="#231f20"/><path d="M77.48,77.49H14.19A14.17,14.17,0,0,1,0,63.34L0,0H63.36A14.18,14.18,0,0,1,77.52,14.16ZM3,3,3,63.34A11.15,11.15,0,0,0,14.19,74.47H74.46l0-60.31A11.15,11.15,0,0,0,63.36,3Z" fill="#231f20"/><path d="M15.54,59.48h0a1.69,1.69,0,0,1-1.54.95,2,2,0,0,1-2-2.1,2.16,2.16,0,0,1,.57-1.51,2,2,0,0,1,1.45-.6,1.73,1.73,0,0,1,1.54,1h0l1.35-.66h0A3.2,3.2,0,0,0,14,54.78a3.76,3.76,0,0,0-2.63,1A3.59,3.59,0,0,0,14,61.89a3.22,3.22,0,0,0,2.92-1.75h0l-1.37-.64Zm-.43,2.21h0m.46-.2h0" fill="#231f20"/><polygon points="22.8 57.54 19.63 57.54 19.63 54.93 17.99 54.93 17.99 61.74 19.63 61.74 19.63 58.98 22.8 58.98 22.8 61.74 24.43 61.74 24.43 54.93 22.8 54.93 22.8 57.54" fill="#231f20"/><path d="M31.88,57.16a2.2,2.2,0,0,0-.62-1.57,2.4,2.4,0,0,0-1.75-.66h-3.4v6.81h1.63V59.41h1l1.33,2.32H32l-1.6-2.5a2,2,0,0,0,1.53-2.08m-4.14-.79h1.58a.81.81,0,1,1,0,1.6H27.74Z" fill="#231f20"/><rect x="33.27" y="54.93" width="1.63" height="6.81" fill="#231f20"/><path d="M41.67,58.85c0-.08-.1-.16-.15-.24l-.08-.1a1.8,1.8,0,0,0-.19-.2l-.1-.08L41,58.08a5.85,5.85,0,0,0-1.76-.57A2.87,2.87,0,0,1,38,57.1h0a.34.34,0,0,1-.09-.24c0-.4.4-.65,1-.65a3.08,3.08,0,0,1,2,.75h0l.77-1.18h0a4,4,0,0,0-2.74-1,3.09,3.09,0,0,0-2,.63,1.92,1.92,0,0,0-.73,1.49,1.77,1.77,0,0,0,0,.41v0a1.42,1.42,0,0,0,.1.29l0,.1a1.43,1.43,0,0,0,.16.24.18.18,0,0,0,0,.07,1.45,1.45,0,0,0,.22.21s0,0,0,0a4.75,4.75,0,0,0,1.93.73c.74.16,1.38.3,1.38.74s-.44.72-1.19.72a3.33,3.33,0,0,1-2.22-.88h0L36,60.85h0a4.23,4.23,0,0,0,2.92,1c1.82,0,2.9-.82,2.9-2.2a2,2,0,0,0-.15-.76l0-.08m-.05-.08h0m-.28-.37h0m-4.84-.57v0m.27.34h0" fill="#231f20"/><polygon points="42.52 56.37 44.43 56.37 44.43 61.74 46.06 61.74 46.06 56.37 47.98 56.37 47.98 54.93 42.52 54.93 42.52 56.37" fill="#231f20"/><rect x="49.13" y="54.93" width="1.63" height="6.81" fill="#231f20"/><path d="M56.31,54.93h-2l-2.73,6.8h1.84l.43-1.12h2.91l.44,1.11h1.83l-2.74-6.8Zm0,4.25h-2l1-2.56Z" fill="#231f20"/><polygon points="64.67 54.93 64.67 59.01 61.63 54.93 61.63 54.93 59.88 54.93 59.88 61.74 61.52 61.74 61.52 57.5 64.63 61.73 64.63 61.74 66.3 61.74 66.3 54.93 64.67 54.93" fill="#231f20"/></g></g></svg>