<?xml version="1.0" encoding="utf-8"?>
<!-- Generator: Adobe Illustrator 23.0.4, SVG Export Plug-In . SVG Version: 6.00 Build 0)  -->
<svg version="1.1" id="Layer_1" xmlns="http://www.w3.org/2000/svg" xmlns:xlink="http://www.w3.org/1999/xlink" x="0px" y="0px"
	 viewBox="0 0 320 320" style="enable-background:new 0 0 320 320;" xml:space="preserve">
<style type="text/css">
	.st0{stroke:#000000;stroke-linecap:round;stroke-linejoin:round;stroke-miterlimit:10;}
</style>
<g>
	<path class="st0" d="M277.2,100.1c0-28-18.5-31.1-26.4-31.1c-7.9,0-26.4,3-26.4,31.1c0,22.6,11.6,40.4,26.4,40.4
		C265.6,140.5,277.2,122.8,277.2,100.1z M230.6,100.1c0-20.5,11-24.8,20.2-24.8c9.2,0,20.2,4.3,20.2,24.8c0,18.5-9.2,34.1-20.2,34.1
		C239.9,134.2,230.6,118.6,230.6,100.1z"/>
	<path class="st0" d="M306.1,161.4c-2.4-2.6-5.4-3.9-8.6-3.9h-2.9c-6.9,0-12.6-0.6-17.7-8c-0.6-0.8-1.5-1.3-2.6-1.3
		c-0.6,0-1.2,0.2-1.8,0.6c-0.7,0.5-1.1,1.2-1.3,2c-0.1,0.8,0,1.7,0.5,2.3c6.8,9.8,15.3,10.7,22.6,10.7c0.6,0,1.1,0,1.7,0h1.4
		c1,0,2.4,0.2,4,1.9c5.9,6.4,7.3,26.4,6.7,41.6c0,0.8-0.7,1.5-1.5,1.5h-14.1c-0.8,0-1.5-0.7-1.5-1.5v-18.6c0-1.7-1.4-3.1-3.1-3.1
		s-3.1,1.4-3.1,3.1v18.6c0,0.8-0.7,1.5-1.5,1.5h-43.4c0.4,2.1,0.7,4.2,1,6.3h70.3c1.6,0,3-1.3,3.1-2.9
		C315.3,197.7,314.8,170.8,306.1,161.4z"/>
	<path class="st0" d="M229.4,148.7c-0.5-0.4-1.1-0.6-1.8-0.6c-1,0-2,0.5-2.6,1.3c-5.1,7.4-10.8,8-17.8,8h-2.9
		c-3.3,0-6.2,1.4-8.6,3.9c-1.7,1.8-3,4.2-4.1,7c2.1,0.6,3.9,1.9,5.3,3.7c0.9-2.7,2.1-5,3.4-6.4c1.6-1.7,3.1-1.9,4-1.9h1.4
		c0.5,0,1.1,0,1.7,0c7.4,0,15.8-0.8,22.7-10.7c0.5-0.7,0.7-1.5,0.5-2.3C230.6,149.9,230.1,149.2,229.4,148.7z"/>
</g>
<g>
	<path class="st0" d="M69,69.1c-7.9,0-26.4,3-26.4,31.1c0,22.6,11.6,40.4,26.4,40.4s26.4-17.7,26.4-40.4
		C95.4,72.1,76.9,69.1,69,69.1z M69,134.2c-10.9,0-20.2-15.6-20.2-34.1c0-20.5,11-24.8,20.2-24.8s20.2,4.3,20.2,24.8
		C89.2,118.6,79.9,134.2,69,134.2z"/>
	<path class="st0" d="M35.1,207.2v-18.6c0-1.7-1.4-3.1-3.1-3.1c-1.7,0-3.1,1.4-3.1,3.1v18.6c0,0.8-0.7,1.5-1.5,1.5h-14
		c-0.8,0-1.5-0.6-1.5-1.5c-0.6-15.2,0.8-35.2,6.7-41.6c1.6-1.7,3.1-1.9,4-1.9H24c0.5,0,1.1,0,1.7,0c7.4,0,15.8-0.8,22.7-10.7
		c0.5-0.7,0.7-1.5,0.5-2.3c-0.1-0.8-0.6-1.5-1.3-2c-0.5-0.4-1.1-0.6-1.8-0.6c-1,0-2,0.5-2.6,1.3c-5.1,7.4-10.8,8-17.8,8h-2.9
		c-3.3,0-6.2,1.4-8.6,3.9c-8.7,9.4-9.2,36.2-8.1,50.6c0.1,1.6,1.5,2.9,3.1,2.9h73.7c0.3-2.1,0.6-4.2,1-6.3h-47
		C35.8,208.7,35.1,208,35.1,207.2z"/>
	<path class="st0" d="M124.3,161.4c-2.4-2.6-5.4-3.9-8.6-3.9h-2.9c-6.9,0-12.6-0.6-17.7-8c-0.6-0.8-1.5-1.3-2.6-1.3
		c-0.6,0-1.2,0.2-1.8,0.6c-0.7,0.5-1.1,1.2-1.3,2c-0.1,0.8,0,1.7,0.5,2.3c6.8,9.8,15.3,10.7,22.6,10.7c0.6,0,1.1,0,1.7,0h1.4
		c1,0,2.4,0.2,4,1.9c1.9,2,3.3,5.4,4.3,9.5c0.7-0.7,1.5-1.6,2.2-2.7c0.7-1.1,1.6-2,2.7-2.7C127.8,166.4,126.3,163.5,124.3,161.4z"/>
</g>
<g>
	<path d="M161.6,166.1c17,0,30.4-20.4,30.4-46.4c0-32.2-21.2-35.7-30.4-35.7c-9.1,0-30.4,3.5-30.4,35.7
		C131.2,145.7,144.6,166.1,161.6,166.1z M161.6,91.2c10.6,0,23.2,4.9,23.2,28.5c0,21.2-10.6,39.2-23.2,39.2
		c-12.6,0-23.2-17.9-23.2-39.2C138.4,96.2,151,91.2,161.6,91.2z"/>
	<path d="M233.8,214.9c-0.3-2.1-0.6-4.2-1-6.3c-1.5-7.8-3.9-14.5-7.6-18.5c-2.7-2.9-6.2-4.5-9.9-4.5H215h-2.5h-0.6
		c-6.4,0-11.9-0.4-16.9-5.1c-1.2-1.1-2.3-2.4-3.4-4c-0.5-0.7-1.1-1.1-1.9-1.4c-0.4-0.1-0.7-0.2-1.1-0.2c-0.7,0-1.4,0.2-2,0.6
		c-0.8,0.5-1.3,1.4-1.5,2.3c-0.2,0.9,0,1.9,0.6,2.7c0.8,1.2,1.7,2.3,2.6,3.3c1.9,2.1,3.8,3.7,5.8,4.9c5.5,3.4,11.2,4,16.6,4
		c0.4,0,0.7,0,1,0c0.7,0,1.3,0,2,0h1.7c0.4,0,1,0,1.6,0.2c0.9,0.3,1.9,0.8,3,2c2.5,2.7,4.4,7.6,5.6,13.6c0.4,2,0.8,4.1,1.1,6.3
		c1.2,8.9,1.4,19.1,1.1,27.9c0,0.9-0.8,1.7-1.8,1.7h-16.2c-1,0-1.8-0.8-1.8-1.8v-21.4c0-2-1.6-3.6-3.6-3.6s-3.6,1.6-3.6,3.6v21.4
		c0,1-0.8,1.8-1.8,1.8h-74.6c-1,0-1.8-0.8-1.8-1.8v-21.4c0-2-1.6-3.6-3.6-3.6s-3.6,1.6-3.6,3.6v21.4c0,1-0.8,1.8-1.8,1.8H97.7
		c-0.9,0-1.7-0.7-1.8-1.7c-0.4-8.8-0.1-19,1.1-27.9c0.3-2.2,0.6-4.3,1.1-6.3c1.1-5.4,2.7-9.9,4.9-12.8c0.2-0.3,0.5-0.6,0.7-0.8
		c1.8-2,3.5-2.2,4.6-2.2h0.9h0.7c0.6,0,1.3,0,1.9,0c4.6,0,9.5-0.3,14.4-2.3c2-0.9,4-2,6-3.6s3.9-3.7,5.7-6.3
		c0.5-0.8,0.8-1.7,0.6-2.7c-0.2-0.9-0.7-1.8-1.5-2.3c-0.6-0.4-1.3-0.6-2-0.6c-1.2,0-2.3,0.6-3,1.5c-0.3,0.5-0.7,0.9-1,1.4
		c-1.8,2.3-3.6,3.9-5.5,5c-4.2,2.5-8.7,2.8-13.9,2.8h-3.3c-0.3,0-0.6,0-0.9,0c-1.3,0.1-2.5,0.4-3.7,0.8c-2,0.7-3.8,2-5.3,3.7
		c-3.7,4-6.1,10.8-7.6,18.5c-0.4,2-0.7,4.1-1,6.3c-1.5,11.7-1.4,24.6-0.7,33.4c0.1,1.9,1.7,3.3,3.6,3.3H231c1.9,0,3.4-1.5,3.6-3.3
		C235.2,239.6,235.3,226.7,233.8,214.9z"/>
</g>
</svg>
