<?xml version="1.0" encoding="utf-8"?>
<!-- Generator: Adobe Illustrator 23.0.4, SVG Export Plug-In . SVG Version: 6.00 Build 0)  -->
<svg version="1.1" id="Layer_1" xmlns="http://www.w3.org/2000/svg" xmlns:xlink="http://www.w3.org/1999/xlink" x="0px" y="0px"
	 viewBox="0 0 285 285" style="enable-background:new 0 0 285 285;" xml:space="preserve">
<style type="text/css">
	.st0{fill:#303030;}
</style>
<g>
	<g>
		<g>
			<g>
				<g>
					<path class="st0" d="M142.6,184.8c-23.3,0-42.3-19-42.3-42.3s19-42.3,42.3-42.3s42.3,19,42.3,42.3
						C184.9,165.8,165.9,184.8,142.6,184.8z M142.6,112.3c-16.6,0-30.1,13.5-30.1,30.1s13.5,30.1,30.1,30.1s30.1-13.5,30.1-30.1
						C172.6,125.8,159.1,112.3,142.6,112.3z"/>
				</g>
			</g>
			<g>
				<g>
					<path class="st0" d="M142.6,220.9c-43.3,0-78.5-35.2-78.5-78.5s35.2-78.5,78.5-78.5c10.2,0,20.1,1.9,29.5,5.7
						c3.1,1.3,4.6,4.8,3.3,7.9c-0.9,2.3-3.2,3.8-5.7,3.8c-0.8,0-1.5-0.1-2.3-0.4c-7.9-3.2-16.3-4.8-24.9-4.8
						c-36.6,0-66.3,29.7-66.3,66.3s29.7,66.3,66.3,66.3s66.3-29.7,66.3-66.3c0-2.9-0.2-5.9-0.6-8.9c-0.7-5.1-2-10.2-3.8-15
						c-1.2-3.1,0.4-6.7,3.5-7.9c0.7-0.3,1.4-0.4,2.2-0.4c2.5,0,4.8,1.6,5.7,3.9c2.2,5.7,3.7,11.7,4.5,17.7c0.5,3.5,0.7,7,0.7,10.5
						C221,185.8,185.9,220.9,142.6,220.9z"/>
				</g>
			</g>
		</g>
		<g>
			<g>
				<path class="st0" d="M142.6,284.4c-5.5,0-11-0.3-16.8-1c-2.4-0.3-4.4-2-5.1-4.3l-6.3-20.9c-0.3-1-1.1-1.8-2.1-2
					c-4.1-1.1-8.3-2.4-12.4-3.9c-0.3-0.1-0.7-0.2-1-0.2c-0.6,0-1.3,0.2-1.8,0.6L79.2,266c-1.1,0.8-2.4,1.2-3.7,1.2
					c-1,0-2-0.3-2.9-0.7c-10-5.5-19.4-12.1-27.9-19.8c-1.8-1.7-2.5-4.2-1.6-6.6l7.4-20.5c0.4-1,0.2-2.1-0.5-2.9
					c-2.7-3.2-5.2-6.6-7.6-10.1c-0.6-0.8-1.5-1.3-2.5-1.3L17.4,206c-2.4,0-4.4-1.3-5.5-3.5C7,192.2,3.4,181.4,1.1,170.3
					c-0.5-2.4,0.5-4.9,2.5-6.2l18.3-12.5c0.9-0.6,1.4-1.6,1.3-2.6c-0.1-2.1-0.2-4.2-0.2-6.3c0-2,0-4.1,0.1-6.2c0.1-1-0.4-2-1.3-2.6
					L3.5,121.6c-2-1.4-3.1-3.8-2.6-6.2c2.2-11.1,5.8-21.9,10.6-32.3c1-2.1,3.1-3.4,5.8-3.5l22.3,0.5c1,0,1.9-0.5,2.5-1.3
					c2.3-3.5,4.8-6.9,7.5-10.2c0.7-0.8,0.9-1.9,0.5-2.9l-7.5-20.4c-0.8-2.3-0.2-4.9,1.6-6.6c8.5-7.8,17.8-14.5,27.8-20
					c0.9-0.5,1.9-0.8,3-0.8c1.3,0,2.6,0.4,3.6,1.2l17.7,13.4c0.5,0.4,1.2,0.6,1.8,0.6c0.4,0,0.7-0.1,1.1-0.2c4.1-1.6,8.3-2.9,12.4-4
					c1-0.3,1.8-1,2.1-2L119.9,6c0.7-2.3,2.7-4,5.1-4.3c5.9-0.7,11.5-1.1,17.2-1.1l3.3,0.1c4.8,0.2,9.3,0.3,13.9,0.9
					c2.4,0.3,4.4,2,5.1,4.3l6.3,20.9c0.3,1,1.1,1.8,2.1,2c4.2,1.1,8.4,2.4,12.4,3.9c0.3,0.1,0.7,0.2,1,0.2c0.6,0,1.3-0.2,1.8-0.6
					l17.7-13.4c1.1-0.8,2.3-1.3,3.7-1.3c1,0,2,0.3,2.9,0.7c10.1,5.5,19.5,12.2,27.9,19.9c1.8,1.7,2.5,4.2,1.6,6.6l-7.4,20.5
					c-0.4,1-0.2,2.1,0.5,2.9c2.7,3.3,5.3,6.7,7.6,10.2c0.6,0.8,1.5,1.3,2.5,1.3l22.3-0.7c2.8,0.2,4.8,1.3,5.8,3.5
					c4.9,10.3,8.5,21.2,10.7,32.2c0.5,2.4-0.5,4.9-2.6,6.2l-18,12.4c-0.9,0.6-1.4,1.6-1.3,2.6c0.1,2,0.2,4.1,0.2,6.2
					c0,2.1,0,4.2-0.2,6.2c-0.1,1,0.4,2,1.3,2.6l18.3,12.3c2,1.4,3.1,3.8,2.6,6.2c-2.2,11.1-5.7,22-10.6,32.3c-1,2.2-3,3.5-5.4,3.5
					l-22.7-0.6c-1,0-1.9,0.5-2.5,1.3c-2.3,3.5-4.8,6.9-7.5,10.2c-0.7,0.8-0.9,1.9-0.5,2.9l7.5,20.4c0.8,2.3,0.2,4.9-1.6,6.6
					c-8.4,7.7-17.8,14.5-27.8,20c-0.9,0.5-1.9,0.8-2.9,0.8c-1.3,0-2.6-0.4-3.7-1.2l-17.7-13.3c-0.5-0.4-1.2-0.6-1.8-0.6
					c-0.4,0-0.7,0.1-1.1,0.2c-4.1,1.6-8.2,2.9-12.4,4c-1,0.3-1.8,1-2.1,2l-6.2,20.9c-0.7,2.3-2.7,4-5.1,4.3
					c-6.2,0.7-11.8,1.1-17.5,1.1h0V284.4z M97.2,238.6c0.8,0,1.6,0.2,2.4,0.5c6.6,2.8,13.3,4.9,20.2,6.4c2.2,0.5,3.9,2.1,4.6,4.2
					l6.1,20c0.4,1.2,1.4,2,2.6,2.1c3.5,0.3,6.6,0.3,9.8,0.4c3.4,0,6.6-0.1,9.9-0.4c1.2-0.1,2.3-0.9,2.6-2.1l6-20.1
					c0.6-2.1,2.4-3.7,4.5-4.2c6.8-1.5,13.6-3.7,20.1-6.5c0.8-0.3,1.6-0.5,2.4-0.5c1.3,0,2.6,0.4,3.6,1.2l17,12.8
					c0.5,0.4,1.2,0.6,1.8,0.6c0.5,0,1.1-0.1,1.6-0.4c5.5-3.4,10.8-7.2,15.7-11.3c1-0.8,1.3-2.1,0.9-3.3l-7.1-19.6
					c-0.8-2.1-0.3-4.5,1.2-6.2c4.6-5.1,8.8-10.7,12.3-16.8c1-1.7,3.2-3,5.3-3l21.6,0.5c1.2,0,2.3-0.7,2.7-1.8
					c2.4-5.8,4.4-11.9,5.9-18c0.3-1.2-0.2-2.5-1.2-3.2l-17.5-11.7c-1.9-1.2-2.9-3.4-2.7-5.6c0.3-3.7,0.5-7.1,0.5-10.4
					c0-3.4-0.2-6.8-0.5-10.4c-0.2-2.2,0.8-4.4,2.6-5.6l17.5-11.8c1-0.7,1.5-2,1.2-3.2c-1.6-6.1-3.6-12.2-6-18
					c-0.5-1.1-1.5-1.8-2.7-1.8l-21.7,0.6c-2.3,0-4.1-1-5.2-3c-3.5-5.9-7.7-11.5-12.5-16.7c-1.5-1.7-2-4-1.2-6.1l7-19.6
					c0.4-1.2,0.1-2.5-0.9-3.3c-5-4.1-10.3-7.9-15.8-11.2c-0.5-0.3-1-0.4-1.5-0.4c-0.6,0-1.3,0.2-1.8,0.6l-17,12.9
					c-1.1,0.8-2.3,1.2-3.7,1.2c-0.8,0-1.6-0.2-2.4-0.5c-6.5-2.8-13.3-4.9-20.1-6.4c-2.2-0.5-3.9-2.1-4.6-4.2l-6.1-20
					c-0.4-1.2-1.4-2-2.6-2.1c-1.6-0.1-3.3-0.1-4.9-0.2c-1.7,0-3.3-0.1-4.7-0.2c-0.1,0-0.3,0-0.3,0c-3.3,0-6.5,0.1-9.8,0.4
					c-1.2,0.1-2.3,0.9-2.6,2.1l-5.9,20.1c-0.6,2.1-2.4,3.7-4.5,4.2c-6.8,1.5-13.6,3.7-20.1,6.5c-0.8,0.3-1.6,0.5-2.4,0.5
					c-1.3,0-2.6-0.4-3.7-1.2l-17-12.8c-0.5-0.4-1.2-0.6-1.8-0.6c-0.5,0-1.1,0.1-1.6,0.4c-5.5,3.4-10.8,7.2-15.7,11.3
					c-1,0.8-1.3,2.1-0.9,3.3l7.2,19.6c0.8,2.1,0.3,4.5-1.2,6.1c-4.7,5.2-8.9,10.9-12.4,16.8c-1.1,1.8-3,3-5,3
					c-0.1,0-21.9-0.5-22-0.5c-1.2,0-2.3,0.7-2.7,1.8c-2.4,5.8-4.4,11.9-5.9,18c-0.3,1.2,0.2,2.5,1.2,3.2l17.6,11.7
					c1.9,1.3,2.9,3.4,2.7,5.7c-0.3,3.4-0.5,6.7-0.5,10.4c0,3.5,0.2,6.9,0.5,10.3c0.2,2.2-0.8,4.4-2.6,5.7l-17.5,11.8
					c-1,0.7-1.5,2-1.2,3.2c1.6,6.1,3.6,12.1,6,18c0.5,1.1,1.5,1.8,2.7,1.8l21.7-0.6c2.2,0,4.1,1,5.2,3c3.6,6,7.8,11.6,12.4,16.7
					c1.5,1.7,2,4,1.2,6.2l-7.1,19.6c-0.4,1.2-0.1,2.5,0.9,3.3c5,4.1,10.3,7.9,15.8,11.2c0.5,0.3,1,0.4,1.5,0.4
					c0.6,0,1.3-0.2,1.8-0.6l17-12.9C94.6,239,95.9,238.6,97.2,238.6z"/>
			</g>
		</g>
	</g>
</g>
</svg>
