<?xml version="1.0" encoding="utf-8"?>
<!-- Generator: Adobe Illustrator 23.0.4, SVG Export Plug-In . SVG Version: 6.00 Build 0)  -->
<svg version="1.1" id="Layer_1" xmlns="http://www.w3.org/2000/svg" xmlns:xlink="http://www.w3.org/1999/xlink" x="0px" y="0px"
	 viewBox="0 0 556.9 122.5" style="enable-background:new 0 0 556.9 122.5;" xml:space="preserve">
<g>
	<g>
		<path d="M16.3,71.2l6.3-8.8c3.8,4,9.8,7.3,17.2,7.3c6.3,0,9.4-2.9,9.4-6c0-9.6-31.2-3-31.2-23.4c0-9,7.8-16.5,20.6-16.5
			c8.6,0,15.8,2.6,21.1,7.6l-6.4,8.5C48.9,35.8,43.1,34,37.5,34c-5,0-7.7,2.2-7.7,5.4c0,8.6,31.1,2.8,31.1,23.1
			c0,9.9-7.1,17.4-21.7,17.4C28.8,79.8,21.3,76.3,16.3,71.2"/>
	</g>
	<g>
		<polygon points="66.3,78.8 66.3,24.6 104.7,24.6 104.7,34.7 77.8,34.7 77.8,46.2 104.1,46.2 104.1,56.4 77.8,56.4 77.8,68.6 
			104.7,68.6 104.7,78.8 		"/>
	</g>
	<g>
		<path d="M122.4,122.5h-100c-12.3,0-22.4-10-22.4-22.4V0h100.1c12.3,0,22.4,10,22.4,22.4L122.4,122.5z M4.7,4.8v95.3
			c0,9.7,7.9,17.6,17.6,17.6h95.2l0.1-95.3c0-9.7-7.9-17.6-17.6-17.6H4.7z"/>
	</g>
	<g>
		<path d="M24.5,94.1L24.5,94.1c-0.4,0.9-1.4,1.5-2.4,1.5c-1.8,0-3.2-1.4-3.2-3.3c0-0.9,0.3-1.8,0.9-2.4c0.6-0.6,1.4-0.9,2.3-0.9
			c1,0,2,0.6,2.4,1.5l0,0l2.1-1l0,0l0,0c-0.4-0.8-1-1.5-1.7-1.9c-0.8-0.5-1.8-0.8-2.9-0.8c-1.6,0-3.1,0.6-4.2,1.6
			c-1.1,1-1.7,2.5-1.7,4.1c0,3.3,2.4,5.6,5.8,5.6c2.7,0,4.1-1.7,4.6-2.8l0,0L24.5,94.1L24.5,94.1z M23.8,97.6L23.8,97.6L23.8,97.6
			 M24.6,97.2C24.5,97.2,24.5,97.3,24.6,97.2C24.5,97.3,24.5,97.2,24.6,97.2"/>
	</g>
	<g>
		<polygon points="36,91 31,91 31,86.9 28.4,86.9 28.4,97.6 31,97.6 31,93.3 36,93.3 36,97.6 38.6,97.6 38.6,86.9 36,86.9 		"/>
	</g>
	<g>
		<path d="M50.3,90.4c0-1-0.3-1.9-1-2.5c-0.7-0.7-1.6-1-2.8-1h-5.4v10.8h2.6V94h1.7l2.1,3.7l0,0h3L48,93.8
			C49,93.4,50.3,92.4,50.3,90.4 M43.8,89.1h2.5c0.9,0,1.4,0.5,1.4,1.3s-0.6,1.3-1.4,1.3h-2.5V89.1z"/>
	</g>
	<g>
		<rect x="52.5" y="86.9" width="2.6" height="10.8"/>
	</g>
	<g>
		<path d="M65.8,93.1c-0.1-0.1-0.1-0.3-0.2-0.4c0-0.1-0.1-0.1-0.1-0.2c-0.1-0.1-0.2-0.2-0.3-0.3c-0.1,0-0.1-0.1-0.2-0.1
			c-0.1-0.1-0.2-0.2-0.3-0.2c-0.8-0.5-1.9-0.7-2.8-0.9c-0.8-0.2-1.5-0.3-1.9-0.6l0,0c-0.1-0.1-0.2-0.2-0.2-0.4c0-0.6,0.6-1,1.6-1
			c1.1,0,2.4,0.5,3.2,1.2l0,0l1.2-1.9l0,0l0,0c-1.1-1-2.6-1.5-4.3-1.5c-1.3,0-2.3,0.3-3.1,1c-0.7,0.6-1.2,1.5-1.2,2.4
			c0,0.2,0,0.4,0.1,0.6c0,0,0,0,0,0.1c0,0.2,0.1,0.3,0.2,0.5c0,0.1,0,0.1,0.1,0.2c0.1,0.1,0.2,0.3,0.2,0.4l0.1,0.1
			c0.1,0.1,0.2,0.2,0.3,0.3l0,0c0.8,0.7,2,0.9,3,1.2c1.2,0.3,2.2,0.5,2.2,1.2s-0.7,1.1-1.9,1.1c-1.4,0-2.8-0.7-3.5-1.4l0,0l-1.2,2
			l0,0l0,0c1,1,2.8,1.6,4.6,1.6c2.9,0,4.6-1.3,4.6-3.5c0-0.5-0.1-0.8-0.2-1.2C65.8,93.1,65.8,93.1,65.8,93.1 M65.7,92.9L65.7,92.9
			L65.7,92.9 M65.3,92.4L65.3,92.4L65.3,92.4 M57.6,91.5L57.6,91.5L57.6,91.5 M58.1,92L58.1,92L58.1,92"/>
	</g>
	<g>
		<polygon points="67.1,89.1 70.2,89.1 70.2,97.6 72.7,97.6 72.7,89.1 75.8,89.1 75.8,86.9 67.1,86.9 		"/>
	</g>
	<g>
		<rect x="77.6" y="86.9" width="2.6" height="10.8"/>
	</g>
	<g>
		<path d="M88.9,86.9h-3.1l-4.3,10.7l0,0h2.9l0.7-1.8h4.6l0.7,1.8l0,0h2.9L88.9,86.9L88.9,86.9z M88.9,93.6h-3.1l1.6-4L88.9,93.6z"
			/>
	</g>
	<g>
		<polygon points="102.1,86.9 102.1,93.3 97.3,86.9 97.3,86.9 94.6,86.9 94.6,97.6 97.2,97.6 97.2,90.9 102.1,97.6 102.1,97.6 
			104.7,97.6 104.7,86.9 		"/>
	</g>
</g>
<g>
	<path d="M168.3,80.2c-4.1,0-8-0.7-11.5-2.1c-3.5-1.4-6.6-3.4-9.1-5.9c-2.6-2.5-4.6-5.6-6-9.1s-2.1-7.3-2.1-11.5
		c0-4.1,0.7-8,2.1-11.5c1.4-3.5,3.4-6.5,6-9.1c2.6-2.5,5.6-4.5,9.1-5.9s7.4-2.1,11.5-2.1c4.2,0,8,0.7,11.6,2.1
		c3.5,1.4,6.6,3.4,9.1,5.9c2.6,2.5,4.6,5.6,6,9.1s2.1,7.3,2.1,11.5c0,4.1-0.7,8-2.1,11.5c-1.4,3.5-3.4,6.5-6,9.1
		c-2.6,2.5-5.6,4.5-9.1,5.9C176.3,79.5,172.5,80.2,168.3,80.2z M168.3,69.8c2.5,0,4.8-0.5,6.9-1.4c2.1-0.9,3.8-2.2,5.3-3.8
		s2.6-3.5,3.4-5.7c0.8-2.2,1.2-4.6,1.2-7.2c0-2.6-0.4-5-1.2-7.2s-1.9-4.1-3.4-5.7c-1.5-1.6-3.2-2.9-5.3-3.8s-4.4-1.4-6.9-1.4
		s-4.8,0.5-6.9,1.4c-2.1,0.9-3.8,2.2-5.3,3.8c-1.4,1.6-2.6,3.5-3.3,5.7c-0.8,2.2-1.2,4.6-1.2,7.2c0,2.6,0.4,5,1.2,7.2
		s1.9,4.1,3.3,5.7c1.4,1.6,3.2,2.9,5.3,3.8C163.4,69.4,165.7,69.8,168.3,69.8z"/>
	<path d="M241.4,79.3l-26.3-36v36h-11.7V24.1h12L241,58.8V24.1h11.7v55.2H241.4z"/>
	<path d="M261.5,79.3V24.1h39v10.3h-27.3v11.7h26.7v10.3h-26.7v12.5h27.3v10.3L261.5,79.3L261.5,79.3z"/>
	<path d="M326.8,79.3V24.1h25.8c3,0,5.6,0.5,8,1.4c2.3,0.9,4.3,2.2,5.8,3.8c1.6,1.6,2.8,3.5,3.6,5.7c0.8,2.1,1.2,4.4,1.2,6.9
		c0,2.4-0.4,4.7-1.2,6.9c-0.8,2.1-2,4-3.6,5.6s-3.5,2.9-5.8,3.8c-2.3,1-4.9,1.4-7.9,1.4h-14.1v19.6L326.8,79.3L326.8,79.3z
		 M351,49.3c2.3,0,4.2-0.7,5.8-2c1.5-1.3,2.3-3.1,2.3-5.5c0-2.3-0.8-4.1-2.3-5.5c-1.5-1.3-3.5-2-5.8-2h-12.5v14.9H351V49.3z"/>
	<path d="M402.5,80.2c-4.1,0-8-0.7-11.5-2.1c-3.5-1.4-6.6-3.4-9.1-5.9c-2.6-2.5-4.6-5.6-6-9.1s-2.1-7.3-2.1-11.5
		c0-4.1,0.7-8,2.1-11.5s3.4-6.5,6-9.1c2.6-2.5,5.6-4.5,9.1-5.9s7.4-2.1,11.5-2.1c4.2,0,8,0.7,11.6,2.1c3.5,1.4,6.6,3.4,9.1,5.9
		c2.6,2.5,4.6,5.6,6,9.1s2.2,7.3,2.2,11.5c0,4.1-0.7,8-2.2,11.5c-1.4,3.5-3.4,6.5-6,9.1c-2.6,2.5-5.6,4.5-9.1,5.9
		C410.5,79.5,406.6,80.2,402.5,80.2z M402.5,69.8c2.5,0,4.8-0.5,6.9-1.4s3.8-2.2,5.3-3.8s2.6-3.5,3.4-5.7s1.2-4.6,1.2-7.2
		c0-2.6-0.4-5-1.2-7.2c-0.8-2.2-1.9-4.1-3.4-5.7c-1.5-1.6-3.2-2.9-5.3-3.8c-2.1-0.9-4.4-1.4-6.9-1.4s-4.8,0.5-6.9,1.4
		s-3.8,2.2-5.3,3.8c-1.4,1.6-2.6,3.5-3.3,5.7c-0.8,2.2-1.2,4.6-1.2,7.2c0,2.6,0.4,5,1.2,7.2c0.8,2.2,1.9,4.1,3.3,5.7
		c1.4,1.6,3.2,2.9,5.3,3.8C397.6,69.4,399.9,69.8,402.5,69.8z"/>
	<path d="M437.5,79.3V24.1h11.7v55.2H437.5z"/>
	<path d="M496.2,79.3l-26.3-36v36h-11.7V24.1h12.1l25.6,34.7V24.1h11.7v55.2H496.2z"/>
	<path d="M529.1,79.3V34.5H513V24.2h43.9v10.3h-16v44.8H529.1z"/>
</g>
</svg>
