<?xml version="1.0" encoding="utf-8"?>
<!-- Generator: Adobe Illustrator 23.0.4, SVG Export Plug-In . SVG Version: 6.00 Build 0)  -->
<svg version="1.1" id="Layer_1" xmlns="http://www.w3.org/2000/svg" xmlns:xlink="http://www.w3.org/1999/xlink" x="0px" y="0px"
	 viewBox="0 0 360 360" style="enable-background:new 0 0 360 360;" xml:space="preserve">
<style type="text/css">
	.st0{fill:#303030;}
</style>
<g>
	<g>
		<g>
			<g>
				<path class="st0" d="M179.9,171.7c-28.1,0-50-33.6-50-76.4c0-53.1,35-58.8,50-58.8c15,0,50,5.7,50,58.8
					C229.9,138.1,208,171.7,179.9,171.7z M179.9,48.3c-17.4,0-38.2,8.1-38.2,47c0,35,17.5,64.6,38.2,64.6
					c20.7,0,38.2-29.6,38.2-64.6C218.1,56.5,197.3,48.3,179.9,48.3z"/>
			</g>
		</g>
		<g>
			<g>
				<path class="st0" d="M66.4,312.7c-3.1,0-5.7-2.4-5.9-5.5c-2-27.3-1.1-78.1,15.4-95.9c4.5-4.9,10.1-7.4,16.3-7.4l5.4,0
					c13.1,0,23.9-1.1,33.6-15.1c1.1-1.6,2.9-2.5,4.9-2.5c1.2,0,2.4,0.4,3.4,1.1c1.3,0.9,2.2,2.3,2.5,3.8c0.3,1.6-0.1,3.1-1,4.4
					c-12.9,18.6-28.9,20.2-42.9,20.2c-1.1,0-2.1,0-3.1,0l-2.7,0c-1.8,0-4.6,0.4-7.6,3.6c-11.3,12.1-13.9,50-12.7,78.7
					c0.1,1.6,1.3,2.8,2.9,2.8H101c1.6,0,2.9-1.3,2.9-2.9v-35.2c0-3.3,2.7-5.9,5.9-5.9c3.3,0,5.9,2.7,5.9,5.9v35.2
					c0,1.6,1.3,2.9,2.9,2.9h122.9c1.6,0,2.9-1.3,2.9-2.9v-35.2c0-3.3,2.7-5.9,5.9-5.9c3.3,0,5.9,2.7,5.9,5.9v35.2
					c0,1.6,1.3,2.9,2.9,2.9h26.8c1.6,0,2.8-1.2,2.9-2.8c1.2-28.7-1.5-66.6-12.7-78.7c-3-3.3-5.8-3.6-7.6-3.6l-2.7,0
					c-1.1,0-2.1,0-3.2,0c-13.9,0-29.9-1.6-42.8-20.2c-0.9-1.3-1.2-2.9-1-4.4c0.3-1.6,1.2-2.9,2.5-3.8c1-0.7,2.2-1.1,3.4-1.1
					c2,0,3.8,1,4.9,2.6c9.7,14,20.5,15.1,33.5,15.1l5.6,0c6.1,0,11.8,2.6,16.3,7.4c16.5,17.7,17.4,68.6,15.4,95.9
					c-0.2,3.1-2.8,5.5-5.9,5.5H66.4z"/>
			</g>
		</g>
	</g>
</g>
</svg>
