<?xml version="1.0" encoding="utf-8"?>
<!-- Generator: Adobe Illustrator 22.0.1, SVG Export Plug-In . SVG Version: 6.00 Build 0)  -->
<svg version="1.1" id="Layer_1" xmlns="http://www.w3.org/2000/svg" xmlns:xlink="http://www.w3.org/1999/xlink" x="0px" y="0px"
	 viewBox="0 0 50 50" enable-background="new 0 0 50 50" xml:space="preserve">
<g id="surface1">
	<path fill="#FFFFFF" d="M5.2,39.6v-25h39.6v25c0,2.3-1.9,4.2-4.2,4.2H9.4C7.1,43.8,5.2,41.9,5.2,39.6z"/>
	<path fill="#D6D6D6" d="M44.8,10.4v6.2H5.2v-6.2c0-2.3,1.9-4.2,4.2-4.2h31.2C42.9,6.2,44.8,8.1,44.8,10.4z"/>
	<path fill="#B5B5B5" d="M37.5,10.4c0,1.7-1.4,3.1-3.1,3.1c-1.7,0-3.1-1.4-3.1-3.1s1.4-3.1,3.1-3.1C36.1,7.3,37.5,8.7,37.5,10.4z"/>
	<path fill="#B5B5B5" d="M18.8,10.4c0,1.7-1.4,3.1-3.1,3.1s-3.1-1.4-3.1-3.1s1.4-3.1,3.1-3.1S18.8,8.7,18.8,10.4z"/>
	<path fill="#FFFFFF" d="M34.4,3.1c-1.1,0-2.1,0.9-2.1,2.1v5.2c0,1.1,0.9,2.1,2.1,2.1s2.1-0.9,2.1-2.1V5.2
		C36.5,4.1,35.5,3.1,34.4,3.1z"/>
	<path fill="#FFFFFF" d="M15.6,3.1c-1.1,0-2.1,0.9-2.1,2.1v5.2c0,1.1,0.9,2.1,2.1,2.1c1.1,0,2.1-0.9,2.1-2.1V5.2
		C17.7,4.1,16.8,3.1,15.6,3.1z"/>
</g>
</svg>
