<svg xmlns="http://www.w3.org/2000/svg" viewBox="0 0 114.12 66.09"><title>Asset 1</title><g id="2b4c81cd-ae53-4c99-a26d-8ddf13ca4d53" data-name="Layer 2"><g id="e0660d53-0cb0-467f-9e44-f786cbf92b7a" data-name="Layer 1"><path d="M9.73,15a2.51,2.51,0,0,1-2.5,2.5H1.6V0H7.23a2.51,2.51,0,0,1,2.5,2.5V6.7A1.63,1.63,0,0,1,8.48,8.25,1.61,1.61,0,0,1,9.73,9.8ZM7.85,2.5a.58.58,0,0,0-.62-.62H3.48V7.32H7.23a.59.59,0,0,0,.62-.62Zm0,7.3a.59.59,0,0,0-.62-.63H3.48v6.45H7.23A.59.59,0,0,0,7.85,15Z" fill="#e84276"/><path d="M20.45,17.5H13.58V0h6.87V1.88h-5V7.3H19.2V9.17H15.45v6.45h5Z" fill="#e84276"/><path d="M29.93,12.5a1.13,1.13,0,0,0-.3-.83L24.53,6.6a3.05,3.05,0,0,1-.85-2.18V2.5A2.5,2.5,0,0,1,26.18,0H29.3a2.5,2.5,0,0,1,2.5,2.5V5H29.93V2.5a.59.59,0,0,0-.63-.62H26.18a.59.59,0,0,0-.63.62V4.42a1.09,1.09,0,0,0,.3.8L31,10.3a3,3,0,0,1,.85,2.2V15a2.51,2.51,0,0,1-2.5,2.5H26.18a2.51,2.51,0,0,1-2.5-2.5V12.5h1.87V15a.61.61,0,0,0,.63.62H29.3a.59.59,0,0,0,.63-.62Z" fill="#e84276"/><path d="M43.15,1.88H40V17.5H38.15V1.88H35V0h8.12Z" fill="#e84276"/><path d="M13,34.43A5.12,5.12,0,0,1,14.4,38v3.74a3.61,3.61,0,0,1-3.6,3.6H3.6A3.58,3.58,0,0,1,0,41.74v-4.5H5.4v2.7H9V38L1.44,30.55A5.12,5.12,0,0,1,0,27V23.74a3.58,3.58,0,0,1,3.6-3.6h7.2a3.61,3.61,0,0,1,3.6,3.6v4.5H9v-2.7H5.4V27Z" fill="#e84276"/><path d="M33.19,41.74a3.61,3.61,0,0,1-3.6,3.6h-7.2a3.59,3.59,0,0,1-3.6-3.6V20.14h5.4v19.8h3.6V20.14h5.4Z" fill="#e84276"/><path d="M56.23,45.34h-5.4V33.86L47.91,45.34h-2L43,33.86V45.34h-5.4V20.14h6.34l3,12.13,3-12.13h6.34Z" fill="#e84276"/><path d="M79.27,45.34h-5.4V33.86L71,45.34h-2L66,33.86V45.34h-5.4V20.14H67l3,12.13,3-12.13h6.34Z" fill="#e84276"/><path d="M96.26,45.34H83.66V20.14h12.6v5.4h-7.2v4.25h5.4v5.36h-5.4v4.79h7.2Z" fill="#e84276"/><path d="M111.31,36.09l2.81,9.25H108.5l-2.37-9.18h-1v9.18h-5.4V20.14h10.8a3.61,3.61,0,0,1,3.6,3.6v8.82A3.64,3.64,0,0,1,111.31,36.09Zm-2.59-5.33V25.54h-3.6v5.22Z" fill="#e84276"/><path d="M80.79,66.09H73.91V48.6h6.88v1.87h-5V55.9h3.75v1.87H75.79v6.45h5Z" fill="#e84276"/><path d="M88,63.17l3-14.57h1.89L89.09,66.09H86.81L83.06,48.6H85Z" fill="#e84276"/><path d="M102.61,66.09H95.74V48.6h6.87v1.87h-5V55.9h3.75v1.87H97.61v6.45h5Z" fill="#e84276"/><path d="M112.16,58.67l1.77,7.42h-2l-1.6-7.32h-2.63v7.32h-1.87V48.6h5.62a2.49,2.49,0,0,1,2.5,2.5v5.17A2.48,2.48,0,0,1,112.16,58.67Zm-.08-7.57a.59.59,0,0,0-.62-.63h-3.75V56.9h3.75a.59.59,0,0,0,.62-.63Z" fill="#e84276"/><polygon points="112.11 17.45 114.11 17.45 114.11 0 45.63 0 45.63 2 112.11 2 112.11 17.45" fill="#e5a1b9"/><polygon points="71.48 64.09 2.05 64.09 2.05 48.2 0.05 48.2 0.05 66.09 71.48 66.09 71.48 64.09" fill="#e5a1b9"/><path d="M56.13,3.41l14.6,14h.47l-14.6-14Zm-1.69,0L69,17.41h.48l-14.6-14Zm3.38,0,14.6,14h.47l-14.6-14Zm-5.08,0,14.6,14h.47l-14.6-14Zm-1.69,0,14.6,14h.47l-14.6-14Zm8.47,0,14.59,14h.48L60,3.41Zm6.77,0,14.6,14h.47l-14.6-14Zm-1.69,0,14.6,14h.47l-14.6-14Zm-3.39,0,14.6,14h.47l-14.6-14Zm1.69,0,14.6,14H78l-14.6-14Zm-13.54,0L64,17.41h.47l-14.59-14Zm-3.73,14h.17l-.17-.17Zm0-1.34L47,17.41h.47l-1.86-1.79Zm0-3.25,4.78,4.59h.47l-5.25-5Zm0,1.63,3.08,3h.47L45.63,14Zm64.69-11,.31.29V3.41Zm-62.66,0,14.6,14h.47l-14.6-14ZM68,3.41l14.6,14h.47l-14.6-14ZM45.63,4.7,58.87,17.41h.47L45.63,4.25Zm0,6.5,6.47,6.21h.47l-6.94-6.66ZM46,3.41l14.6,14H61l-14.6-14Zm-.34,6.16,8.16,7.84h.47L45.63,9.12Zm0-3.24L57.18,17.41h.47l-12-11.54Zm0,1.62,9.86,9.46H56L45.63,7.5Zm54.53-4.54,10.47,10V13l-10-9.58ZM90,3.41l14.6,14h.47l-14.6-14Zm-20.32,0,14.6,14h.47l-14.6-14Zm27.09,0,13.86,13.28v-.45L97.24,3.41Zm-3.39,0,14.6,14h.47l-14.59-14Zm-1.69,0,14.6,14h.47l-14.6-14Zm6.77,0,12.17,11.66v-.45L98.94,3.41Zm3.39,0,8.78,8.41v-.45l-8.31-8Zm6.78,0,2,1.92V4.87L109.1,3.41Zm-1.7,0L110.63,7V6.5L107.4,3.41Zm-1.69,0,5.39,5.16V8.12l-4.92-4.71Zm-1.69,0,7.08,6.79V9.75L104,3.41Zm-8.47,0,14.6,14h.47l-14.6-14Zm-18.63,0,14.6,14h.47l-14.6-14Zm-1.69,0,14.6,14h.47l-14.6-14Zm3.38,0,14.6,14h.47l-14.6-14Zm-5.08,0,14.6,14h.47l-14.6-14Zm-1.69,0,14.6,14h.47l-14.6-14Zm8.47,0,14.6,14h.47l-14.6-14Zm5.08,0,14.6,14H100l-14.6-14Zm1.69,0,14.6,14h.47l-14.6-14Zm-3.39,0,14.6,14h.47l-14.6-14Zm-1.69,0,14.6,14h.47L82,3.41Zm6.77,0,14.6,14h.47l-14.6-14Z" fill="#f4cfdc"/><path d="M14.59,48.28,30,63h.47L15.06,48.28Zm1.69,0L31.66,63h.47L16.75,48.28Zm11.86,0L43.52,63H44L28.61,48.28Zm-16.94,0L26.58,63h.47L11.67,48.28Zm-1.69,0L24.89,63h.47L10,48.28Zm16.93,0L41.82,63h.47L26.91,48.28Zm-1.69,0L40.13,63h.47L25.22,48.28Zm-6.77,0L33.36,63h.47L18.45,48.28Zm5.08,0L38.44,63h.47L23.53,48.28Zm-15.24,0L23.2,63h.47L8.29,48.28Zm13.54,0L36.74,63h.47L21.83,48.28Zm-1.69,0L35.05,63h.47L20.14,48.28Zm-6.77,0L28.28,63h.47L13.37,48.28ZM3,55l8.34,8h.47L3,54.58ZM3,59.9,6.26,63h.47L3,59.45Zm0-3.24L9.65,63h.47L3,56.21Zm0,1.62L8,63h.47L3,57.83Zm0,3.25L4.57,63H5l-2-2ZM3,63h.35L3,62.7ZM3,50.16,16.42,63h.47L3,49.71Zm0-1.88v.26L18.12,63h.47L3.21,48.28Zm1.43,0L19.81,63h.47L4.9,48.28Zm1.69,0L21.5,63H22L6.59,48.28ZM3,53.41,13,63h.47L3,53Zm0-1.63L14.73,63h.47L3,51.33Zm57.31-3.5L71.25,58.77v-.45l-10.47-10Zm-3.39,0L71.25,62v-.45L57.39,48.28Zm1.7,0L71.25,60.4V60L59.09,48.28Zm3.38,0,9.25,8.87V56.7l-8.78-8.42Zm-6.77,0L70.61,63h.47L55.7,48.28Zm-1.69,0L68.92,63h.47L54,48.28Zm-1.7,0L67.22,63h.47L52.31,48.28Zm-1.69,0L65.53,63H66L50.62,48.28Zm13.55,0,7.55,7.25v-.46l-7.08-6.79Zm5.08,0,2.47,2.37V50.2l-2-1.92Zm-38.95,0L45.21,63h.47L30.3,48.28Zm37.25,0,4.17,4v-.45l-3.69-3.55Zm-1.69,0,5.86,5.62v-.45l-5.39-5.17Zm5.55,0h-.47l.78.75v-.45Zm-36,0L50.29,63h.47L35.38,48.28Zm1.69,0L52,63h.47L37.07,48.28Zm1.7,0L53.68,63h.47L38.77,48.28Zm-5.08,0L48.6,63h.47L33.69,48.28Zm-1.7,0L46.9,63h.47L32,48.28Zm11.86,0L58.76,63h.47L43.85,48.28Zm-3.39,0L55.37,63h.47L40.46,48.28Zm5.08,0L60.45,63h.47L45.54,48.28Zm1.69,0L62.14,63h.47L47.23,48.28Zm1.7,0L63.84,63h.47L48.93,48.28Zm-6.78,0L57.06,63h.47L42.15,48.28Z" fill="#f4cfdc"/></g></g></svg>