<svg xmlns="http://www.w3.org/2000/svg" xmlns:xlink="http://www.w3.org/1999/xlink" viewBox="0 0 344.06 33.6"><defs><clipPath id="b0756093-4519-4163-8c5b-01cf1740385b"><rect width="344.06" height="33.6" fill="none"/></clipPath></defs><title>Asset 1</title><g id="8b5ea729-f8f7-4c82-804e-91416abd8914" data-name="Layer 2"><g id="ca41ce0d-8d70-4468-b1c5-2478c13c6c4a" data-name="Layer 1"><g clip-path="url(#b0756093-4519-4163-8c5b-01cf1740385b)"><path d="M344.06,19.54a3.6,3.6,0,0,0-2.4-3.7,3.6,3.6,0,0,0,2.4-3.7V4.8a4.81,4.81,0,0,0-4.8-4.8h-7.2a4.81,4.81,0,0,0-4.8,4.8v7.34a3.59,3.59,0,0,0,2.4,3.7,3.59,3.59,0,0,0-2.4,3.7V28.8a4.81,4.81,0,0,0,4.8,4.8h7.2a4.81,4.81,0,0,0,4.8-4.8Zm-12-14.74h7.2v8.64h-7.2Zm0,13.44h7.2V28.8h-7.2ZM323.6,28.8h-4.8V0h-9.6V4.8H314v24h-4.8v4.8h14.4Zm-18.33-24a4.81,4.81,0,0,0-4.8-4.8h-7.2a4.81,4.81,0,0,0-4.8,4.8v24a4.81,4.81,0,0,0,4.8,4.8h7.2a4.81,4.81,0,0,0,4.8-4.8Zm-12,0h7.2v24h-7.2Zm-25,18.58a4.58,4.58,0,0,0-.82,2.73V33.6h16.8V28.8h-12V26.11l11.19-14.3a4.6,4.6,0,0,0,.81-2.74V4.8a4.81,4.81,0,0,0-4.8-4.8h-7.2a4.81,4.81,0,0,0-4.8,4.8V9.6h4.8V4.8h7.2V9.07ZM241,9.12V4.8h7.2V9.6H253V4.8a4.81,4.81,0,0,0-4.8-4.8H241a4.81,4.81,0,0,0-4.8,4.8V8.5a6.68,6.68,0,0,0,2.31,5.08l9.69,9.65V28.8H241V24h-4.8v4.8a4.81,4.81,0,0,0,4.8,4.8h7.2a4.81,4.81,0,0,0,4.8-4.8V23.86a6.71,6.71,0,0,0-2.3-5.09ZM232.31,4.8a4.81,4.81,0,0,0-4.8-4.8h-12V33.6h4.8V20.16h7.2a4.78,4.78,0,0,0,4.8-4.8Zm-12,0h7.2V15.36h-7.2ZM211.23,0h-6L200,19.78,194.81,0h-6.05V33.6h4.8V12.29l5.67,21.31h1.53l5.67-21.31V33.6h4.8ZM178.17,0h-6l-7.2,33.6H170l1-4.8h8.36l1,4.8h5.08Zm-6.24,24,3.32-15.65L178.37,24Zm-10,0h-4.8v4.8h-7.2V4.8h7.2V9.6h4.8V4.8a4.81,4.81,0,0,0-4.8-4.8h-7.2a4.81,4.81,0,0,0-4.8,4.8v24a4.81,4.81,0,0,0,4.8,4.8h7.2a4.81,4.81,0,0,0,4.8-4.8Zm-35-4.08a4.14,4.14,0,0,0,3.8-4.56V4.8a4.81,4.81,0,0,0-4.8-4.8h-12V33.6h4.8V20.16h3.74l3.17,13.44h5.09ZM118.72,4.8h7.2V15.36h-7.2ZM110,28.8h-9.6V18.24h7.2v-4.8h-7.2V4.8H110V0H95.59V33.6H110ZM91.3,0h-6L80.07,19.78,74.88,0h-6V33.6h4.8V12.29L79.3,33.6h1.54L86.5,12.29V33.6h4.8ZM64.55,0h-6L53.32,19.78,48.13,0h-6V33.6h4.8V12.29L52.55,33.6h1.54l5.66-21.31V33.6h4.8ZM37.82,0H33V28.8h-7.2V0H21V28.8a4.81,4.81,0,0,0,4.8,4.8H33a4.81,4.81,0,0,0,4.8-4.8ZM4.8,9.12V4.8H12V9.6h4.8V4.8A4.81,4.81,0,0,0,12,0H4.8A4.81,4.81,0,0,0,0,4.8V8.5a6.71,6.71,0,0,0,2.3,5.08L12,23.23V28.8H4.8V24H0v4.8a4.81,4.81,0,0,0,4.8,4.8H12a4.81,4.81,0,0,0,4.8-4.8V23.86a6.71,6.71,0,0,0-2.3-5.09Z" fill="#1c1b1a"/></g></g></g></svg>