<svg xmlns="http://www.w3.org/2000/svg" width="234" height="149.689" viewBox="0 0 234 149.689">
  <g id="Group_23" data-name="Group 23" transform="translate(162.892 -6.125)">
    <g id="Group_11" data-name="Group 11" transform="translate(-162.892 10.004)">
      <g id="Group_2" data-name="Group 2" transform="translate(0 35.097)">
        <g id="Group_1" data-name="Group 1">
          <path id="Path_1" data-name="Path 1" d="M-149.008,106.184a34.1,34.1,0,0,1-7.947-3.966c-2.675-1.728-4.093-4.6-5.08-7.189a12.277,12.277,0,0,1,1.614-11.9c3.277-4.529,7.982.154,7.965,3.393-.01,1.814-.517,3.614-.434,5.428a5.239,5.239,0,0,0,2.867,4.673,7.48,7.48,0,0,0,1.284.442c3.455.9,7.313.962,10.368-1.119,3.2-2.183,9.466-10.648,6.807-14.3-2.348-3.227-4.735-6.523-7.061-9.8a84.687,84.687,0,0,1-5.769-8.616l-2.637-3.977a63.379,63.379,0,0,1-3.79-6.23c-1.979-4.243-2.307-8.22-.989-12.064a12.7,12.7,0,0,1,1.647-2.784,19.025,19.025,0,0,1,8.241-6.495,12.906,12.906,0,0,1,11.207.663,15.208,15.208,0,0,1,4.284,3.048,7.694,7.694,0,0,1,2.142,4.906c.319,2.943-.809,7.592-3.817,9.462a4.011,4.011,0,0,1-2.076.752,4.616,4.616,0,0,1-1.375-.282,5.092,5.092,0,0,1-2.329-1.2,2.663,2.663,0,0,1-.533-1.942c.1-1.946,1.364-3.642.488-5.558-.91-1.995-3.1-3.155-5.1-1.181-1.92,1.9-2.848,4.592-1.738,6.975l1.484,3.181c.33.663.66,1.326.989,2.122a24.857,24.857,0,0,1,1.977,3.977,5.692,5.692,0,0,0,1.647,2.253c1.318,1.59,2.637,3.182,3.956,4.64a33.706,33.706,0,0,1,2.307,2.651A76.245,76.245,0,0,1-120,77.684a13.654,13.654,0,0,1,1.484,5.832,18,18,0,0,1-3.626,11.8,2.105,2.105,0,0,0-.33.928c-.165.4-.495.663-.658,1.061-2.307,3.579-5.933,7.822-12.855,9.146a35.235,35.235,0,0,1-6.428.663A21.148,21.148,0,0,1-149.008,106.184Z" transform="translate(162.892 -30.706)" fill="#4ab6ac"/>
        </g>
      </g>
      <g id="Group_4" data-name="Group 4" transform="translate(46.461)">
        <g id="Group_3" data-name="Group 3">
          <path id="Path_2" data-name="Path 2" d="M-93.389,117.823a7,7,0,0,1-4.242-1.857A14.871,14.871,0,0,1-102.005,110a8.08,8.08,0,0,0-.663-1.592l-.132-.263a11.134,11.134,0,0,1-.929-6.1,53.641,53.641,0,0,0,.133-12.2v-.53a34.82,34.82,0,0,1,.133-5.3,8.543,8.543,0,0,0-1.194,1.061,69.04,69.04,0,0,0-6.893,11.666l-1.194,2.385q-1.192,2.585-2.385,5.171a22.128,22.128,0,0,1-4.508,6.363,6.91,6.91,0,0,1-1.326,1.457,2.518,2.518,0,0,1-1.988,1.061h-.265c-1.988-.4-4.11-.794-5.834-2.784-3.579-3.844-4.242-8.616-4.506-12.725a39.907,39.907,0,0,1,.265-5.7c0-1.194.133-2.386.133-3.447.132-3.446.132-7.026.132-10.473A143.369,143.369,0,0,1-131.3,55.385l.265-1.724c.4-2.784.929-5.569,1.326-8.352A99.946,99.946,0,0,1-123.746,23.7a42.012,42.012,0,0,1,4.375-7.424l.133-.132A25.266,25.266,0,0,1-115,11.108a11.39,11.39,0,0,1,5.436-2.386,5.016,5.016,0,0,1,6.1,3.712,13.626,13.626,0,0,1,.663,4.64v1.061a42.229,42.229,0,0,1-.929,8.218c-.928,3.447-1.589,7.159-2.253,10.6-.265,1.592-.53,3.316-.928,4.906a75.043,75.043,0,0,1-4.375,14.45c-2.253,5.7-4.373,10.738-6.628,15.509A33.986,33.986,0,0,1-120.3,76.2l-1.061,1.59a4.74,4.74,0,0,0-.663,2.916v4.243a32.2,32.2,0,0,0,.265,7.158,21.3,21.3,0,0,1,0,2.918,2.94,2.94,0,0,0-.132,1.061A21.545,21.545,0,0,0-122.154,99l-.4,3.844a8.653,8.653,0,0,0,0,1.857v.265c.132.928.132,1.061.4,1.192.4.133.794,0,1.326-.53a5.488,5.488,0,0,0,1.061-1.59c1.061-2.122,1.988-4.243,3.049-6.5a109.419,109.419,0,0,1,8.085-14.317l.531-.8a17.638,17.638,0,0,1,4.108-4.9,33.205,33.205,0,0,1,4.243-2.784,3.5,3.5,0,0,1,5.038.8A10.061,10.061,0,0,1-91.8,82.56l-.4,10.207a.485.485,0,0,1-.133.4v2.122a42.6,42.6,0,0,1,0,5.832,26.6,26.6,0,0,0,.663,5.569,10.227,10.227,0,0,0,.266,2.12,5.46,5.46,0,0,0,1.722,3.182c.663.663.929.794,1.061.794s.4,0,1.194-.53a15.718,15.718,0,0,0,4.108-4.9l.8-1.326c2.518-4.243,5.171-8.616,7.291-13.124a49.816,49.816,0,0,0,2.784-7.291l.265-.663c.53-1.724.928-3.314,1.59-4.906a2.138,2.138,0,0,1,1.857-1.326A2.036,2.036,0,0,1-66.742,80.7a3.137,3.137,0,0,1-.133,1.592,25.661,25.661,0,0,1-1.061,2.916A29.9,29.9,0,0,1-69,88.392a78,78,0,0,1-8.352,17.234c-.4.53-.8,1.192-1.194,1.857a37.684,37.684,0,0,1-4.11,6.1,11.605,11.605,0,0,1-9.014,4.375A7.622,7.622,0,0,1-93.389,117.823ZM-115,54.854l.8-1.855a39.461,39.461,0,0,0,1.724-5.171l.794-2.916a26.281,26.281,0,0,0,1.326-7.026,9.889,9.889,0,0,1,.531-2.122,20.94,20.94,0,0,0,1.192-4.773,18.916,18.916,0,0,1,1.724-6.495V22.244c0-2.122.133-4.243,0-6.363a3.5,3.5,0,0,0-.4-1.857c-.265.133-.4.531-.663.8a45.2,45.2,0,0,0-5.169,10.075c-2.253,7.026-3.977,14.448-5.567,21.608l-.531,2.253a27.132,27.132,0,0,0-.8,4.906c-.53,4.108-1.059,8.218-1.326,12.2-.132,1.326-.265,2.651-.265,3.977A157.729,157.729,0,0,0-115,54.854Z" transform="translate(133.591 -8.572)" fill="#4ab6ac"/>
        </g>
      </g>
      <g id="Group_6" data-name="Group 6" transform="translate(104.713 49.332)">
        <g id="Group_5" data-name="Group 5">
          <path id="Path_3" data-name="Path 3" d="M-88.52,93.636c-3.845-2.386-6.1-5.169-7.026-8.616l-.133-.8c-.794-3.314-1.59-6.76-.928-10.472.4-1.459.53-3.049.8-4.506l.53-3.714A23.188,23.188,0,0,1-93.16,59.7c1.192-1.988,2.386-3.182,4.9-3.182a4.073,4.073,0,0,1,1.194.133,1.19,1.19,0,0,1,.663.133h.132a.654.654,0,0,0,.4-.133c.265,0,.663-.133,1.061-.133a2.754,2.754,0,0,1,1.59.664,3.124,3.124,0,0,1,.4,3.312,1,1,0,0,1-.133.531,122.372,122.372,0,0,0-2.518,18.162c0,.4-.133.926-.133,1.457v2.122c-.133,1.988,1.061,3.447,2.386,4.9a2.373,2.373,0,0,0,1.724.663c2.386-.132,3.845-.53,5.038-1.724a29.2,29.2,0,0,0,5.567-7.556c1.194-2.386,2.651-4.773,3.977-7.026l.929-1.857a5.072,5.072,0,0,1,1.589-1.457,1.674,1.674,0,0,1,.8-.133,1.834,1.834,0,0,1,1.724,1.326,4.265,4.265,0,0,1,.132,1.857A9.4,9.4,0,0,1-62.8,74.15L-64.261,76.8c-1.457,2.518-2.916,5.169-4.506,7.689A29.874,29.874,0,0,1-78.312,93.5a10.447,10.447,0,0,1-5.039,1.457h-.265A9.421,9.421,0,0,1-88.52,93.636Zm3.844-43.481a5.063,5.063,0,0,0-1.192-1.192,13.56,13.56,0,0,1-1.855-1.988,4.352,4.352,0,0,1-.265-4.11c1.192-2.651,2.914-3.181,4.242-3.181a2.6,2.6,0,0,1,1.059.132,10.086,10.086,0,0,1,2.386.8l.266.132c1.724.8,1.326,2.653,1.326,3.316,0,.132-.133.132-.133.265-.265.53-.4,1.061-.663,1.724a9.107,9.107,0,0,1-2.253,4.108,1.832,1.832,0,0,1-1.459.8A1.832,1.832,0,0,1-84.676,50.155Z" transform="translate(96.854 -39.683)" fill="#4ab6ac"/>
        </g>
      </g>
      <g id="Group_8" data-name="Group 8" transform="translate(133.839 58.213)">
        <g id="Group_7" data-name="Group 7" transform="translate(0)">
          <path id="Path_4" data-name="Path 4" d="M-49.169,96.189a50.265,50.265,0,0,1-5.7-15.246,27.405,27.405,0,0,1-.133-5.7c0-.8.133-1.724.133-2.52V64.109a36.545,36.545,0,0,0-3.844,5.832l-10.34,17.9a4.248,4.248,0,0,1-3.712,2.253,3.982,3.982,0,0,1-2.916-1.061C-77.4,87.7-77.8,85.716-78.2,83.993v-.4a13.422,13.422,0,0,1-.265-3.978,16.419,16.419,0,0,0,.265-2.651,23.532,23.532,0,0,0,.265-3.048c.133-2.52.4-5.039.663-7.557.265-2.12.531-4.375.663-6.628a15.307,15.307,0,0,1,.4-3.447,24.264,24.264,0,0,0,.263-4.375,6.5,6.5,0,0,1,.663-2.518l.4-1.061c.8-1.988,1.326-3.049,4.11-3.049h1.59c2.122.133,3.316.4,4.11,1.326s.663,2.386.4,4.375c-.265,2.122-.53,4.11-.928,6.23-.133,1.326-.4,2.52-.663,3.845a10.3,10.3,0,0,1-.265,1.988,21.618,21.618,0,0,1-1.061,5.7,1,1,0,0,0-.133.53l-.133.663a5.016,5.016,0,0,0-.132,1.326c0,1.724-.133,3.447-.265,5.171l6.363-10.6a60.17,60.17,0,0,1,5.7-7.822L-55,56.816a36.667,36.667,0,0,1,2.918-3.446,5.494,5.494,0,0,1,3.977-1.988c2.122,0,3.712,1.59,4.64,3.977,1.459,4.506,1.857,8.22,1.194,11.666a11.525,11.525,0,0,0-.133,3.049l1.194,15.244v.266c.132.265.132.794.265.928a21.654,21.654,0,0,0,4.64,5.567,1.127,1.127,0,0,0,.663.4,2.043,2.043,0,0,0,.794-.4,22.573,22.573,0,0,0,4.64-5.038c2.255-3.977,4.906-8.616,7.424-13.389.531-.928.929-2.12,1.459-3.314.133-.53.4-1.061.531-1.59a1.019,1.019,0,0,0,.265-.663A9.155,9.155,0,0,0-20,66.76a2,2,0,0,1,1.857-1.192h.265a2.548,2.548,0,0,1,1.988,1.457,3.35,3.35,0,0,1-.132,2.386l-.8,1.855-1.724,3.712c-2.784,5.834-6.1,11.4-9.412,16.968a15.484,15.484,0,0,1-11.268,7.291h-1.459a.991.991,0,0,0-.663.133,5.743,5.743,0,0,1-2.518.531C-45.324,99.9-47.313,99.237-49.169,96.189Z" transform="translate(78.486 -45.284)" fill="#4ab6ac"/>
        </g>
      </g>
      <g id="Group_10" data-name="Group 10" transform="translate(190.553 51.791)">
        <g id="Group_9" data-name="Group 9">
          <path id="Path_5" data-name="Path 5" d="M-32.73,95.645a10.454,10.454,0,0,1-6.23-5.7c-1.855-4.108-4.11-9.544-3.712-15.642a51.654,51.654,0,0,1,1.988-10.207l.531-1.326a53.582,53.582,0,0,1,2.12-5.965,34.787,34.787,0,0,1,9.544-12.86,13.232,13.232,0,0,1,6.232-2.518l.265-.133a6.431,6.431,0,0,1,1.59,0c3.182.531,7.424,4.375,8.087,7.424a4.831,4.831,0,0,1,0,2.386v.265A25.054,25.054,0,0,1-15.1,58.525C-21.594,68.6-33.924,72.844-28.62,86.233c.663,1.855,3.844,4.242,6.363,4.506a2.517,2.517,0,0,0,1.061-.265,5.478,5.478,0,0,0,2.784-1.855l1.059-1.061c.8-.928,1.722-1.857,2.518-2.918a116.572,116.572,0,0,0,9.148-12.46l1.192-2.386c.266-.663.531-1.192.8-1.855A2.369,2.369,0,0,1-.781,66.745,2.184,2.184,0,0,1,.545,68.071a2.69,2.69,0,0,1-.133,2.253A121.584,121.584,0,0,1-9.4,84.907a22.955,22.955,0,0,1-1.59,1.855,22.274,22.274,0,0,0-2.386,2.783,21.418,21.418,0,0,1-7.291,5.7l-.928.4A6.77,6.77,0,0,1-25.439,96.7H-26.5A23.594,23.594,0,0,1-32.73,95.645Zm3.977-28.237A41.985,41.985,0,0,0-18.545,56.274,21.4,21.4,0,0,0-16.556,51.5l.265-1.326c-.132-2.386-1.061-2.386-1.326-2.386a3.056,3.056,0,0,0-1.192.4,6.978,6.978,0,0,0-2.653,1.988,44.079,44.079,0,0,0-4.375,7.291,43.959,43.959,0,0,0-3.446,10.207A.687.687,0,0,0-28.753,67.408Z" transform="translate(42.718 -41.234)" fill="#4ab6ac"/>
        </g>
      </g>
    </g>
    <g id="Group_14" data-name="Group 14" transform="translate(-37.402 6.125)">
      <g id="Group_13" data-name="Group 13">
        <g id="Group_12" data-name="Group 12">
          <path id="Path_6" data-name="Path 6" d="M-83.364,30.286l-.376-.888.122-.27a5.873,5.873,0,0,0-.011-2.547,14.41,14.41,0,0,1-.078-2.835A2.039,2.039,0,0,1-83.628,23c.912-4.145.622-8.512.312-12.693a3.543,3.543,0,0,1,1.372-3.152A4.222,4.222,0,0,1-80.252,6.3,4.718,4.718,0,0,1-75.4,7.658a3.356,3.356,0,0,1,.488,2.505c-.036,1.221-.154,2.339-.273,3.458-.159,1.491-.214,2.9-.29,4.494a12.007,12.007,0,0,1-.281,1.762c-.094,1.779-.273,3.458-.263,5.156A9.838,9.838,0,0,1-77.667,30.8a.49.49,0,0,0-.227.354,3.135,3.135,0,0,1-1.67,1.521,2.372,2.372,0,0,1-.85,0,3.21,3.21,0,0,1-2.637-1.789C-83.217,30.679-83.2,30.492-83.364,30.286Z" transform="translate(83.75 -6.125)" fill="#4ab6ac"/>
        </g>
      </g>
    </g>
    <g id="Group_16" data-name="Group 16" transform="translate(-66.276 12.592)">
      <g id="Group_15" data-name="Group 15">
        <path id="Path_7" data-name="Path 7" d="M-94.168,12.166c.5,1.008,1.08,2.183,1.579,3.192.709,1.218,1.375,2.562,2.041,3.907a12.006,12.006,0,0,1,.874,1.554c.875,1.554,1.624,3.065,2.54,4.5a11.092,11.092,0,0,1,1.654,5.875.41.41,0,0,0,.041.295,3.134,3.134,0,0,1-.595,2.177,2.807,2.807,0,0,1-.758.584,3.21,3.21,0,0,1-3.186-.1,1.191,1.191,0,0,0-.585-.339l-.794-.547-.041-.293A8.386,8.386,0,0,0-92.73,30.7a6.839,6.839,0,0,1-1.584-2.353c-.082-.17-.335-.254-.376-.547-1.452-3.988-4.037-7.519-6.539-10.882a3.711,3.711,0,0,1-.533-3.4,4.22,4.22,0,0,1,.97-1.63,4.538,4.538,0,0,1,4.7-1.492" transform="translate(101.96 -10.204)" fill="#4ab6ac"/>
      </g>
    </g>
    <g id="Group_18" data-name="Group 18" transform="translate(-18.121 13.075)">
      <g id="Group_17" data-name="Group 17">
        <path id="Path_8" data-name="Path 8" d="M-57.958,10.617A4.543,4.543,0,0,1-54.276,13.9a3.362,3.362,0,0,1-.541,2.556l-1.939,2.987c-.685,1.23-1.5,2.489-2.318,3.747a12.181,12.181,0,0,1-.89,1.544c-.891,1.546-1.809,2.96-2.57,4.478a11.106,11.106,0,0,1-4.208,4.421.419.419,0,0,0-.233.186,3.138,3.138,0,0,1-2.175.6,2.856,2.856,0,0,1-.89-.354,3.215,3.215,0,0,1-1.543-2.789,1.177,1.177,0,0,0-.008-.675l.067-.962.232-.186a8.432,8.432,0,0,0,1.27-2.3,6.818,6.818,0,0,1,1.216-2.562c.1-.159.048-.417.279-.6,2.688-3.284,4.406-7.308,6.022-11.177a3.711,3.711,0,0,1,2.65-2.193A4.233,4.233,0,0,1-57.958,10.617Z" transform="translate(71.591 -10.508)" fill="#4ab6ac"/>
      </g>
    </g>
    <g id="Group_20" data-name="Group 20" transform="translate(-7.398 34.705)">
      <g id="Group_19" data-name="Group 19">
        <path id="Path_9" data-name="Path 9" d="M-41.965,32.133l-3.309,1.316c-1.272.607-2.665,1.162-4.059,1.717a11.889,11.889,0,0,1-1.619.745c-1.621.747-3.187,1.37-4.686,2.168a11.1,11.1,0,0,1-5.989,1.175.41.41,0,0,0-.3.016,3.135,3.135,0,0,1-2.122-.769,2.81,2.81,0,0,1-.522-.8,3.211,3.211,0,0,1,.354-3.167,1.189,1.189,0,0,0,.385-.557l.609-.747.3-.017a8.447,8.447,0,0,0,2.369-1.145,6.81,6.81,0,0,1,2.474-1.387c.176-.07.281-.314.576-.331,4.093-1.124,7.822-3.414,11.377-5.637a3.717,3.717,0,0,1,3.43-.257,4.255,4.255,0,0,1,1.546,1.1,4.542,4.542,0,0,1,1.107,4.808" transform="translate(64.828 -24.149)" fill="#4ab6ac"/>
      </g>
    </g>
    <g id="Group_21" data-name="Group 21" transform="translate(-124.459 142.741)">
      <path id="Path_10" data-name="Path 10" d="M-124.459,104.426l.051.241-.121.19-.189.086-.224.035h-.241l-.4-.035-.258-.017h-.775l-1.067.07-.225-.07-.1-.136-.086-.19-.534-1.448-.121-.171-.155-.035-.206-.016-1.034-.07h-.276l-1.292-.035-1.034-.016H-133l-.258.016h-.793l-.225.035-.138.086-.1.206-.4,1.173-.1.274-.189.224-.258.1-.276-.016-1-.052h-.276l-1.067.068-.225.017-.206-.1-.138-.19.017-.225.033-.136.1-.276.241-.534.1-.258.431-.964.1-.241.449-.966.1-.258.4-.931.1-.257.465-.966.1-.241.62-1.413.482-1.034.12-.276.379-.775.12-.276.328-.791.1-.258.311-.706.086-.19.173-.1.257-.051.793-.033h1.345l.793.016.292.052.19.138.086.224.241.672.1.258.431.81.1.239.379.845.1.241.311.878.1.241.379.826.1.243.379.844.1.241.346.861.1.243.534,1.067.412.81.122.239.463,1.086Zm-5.754-4.857-.068-.224-.379-1.172-.087-.258-.344-1.016-.086-.225-.171-.12-.225-.051-.189.051-.173.174-.466,1.17-.1.258-.449,1.153-.051.26.051.206.189.086.241.036h1.086l.81.051.224-.068.138-.14Z" transform="translate(138.654 -92.162)" fill="#4ab6ac"/>
      <path id="Path_11" data-name="Path 11" d="M-117.233,101.137l-.017.276-.035.449-.051.258-.122.362-.1.241-.171.327-.155.225-.276.327-.189.19-.431.309-.225.138-.239.12-.26.121-.274.086-.258.087-.775.155-.4.052-.276.016-.414.035h-.276l-.947.033h-1.5l-.964-.051h-.276l-.948.035h-.258l-.655-.017-.274-.035-.243-.035-.138-.051-.086-.087-.033-.189-.019-.241.019-.258v-.276l.016-.138v-.293l.052-.912-.017-.276-.017-.431-.017-.257-.016-.243v-.258l.016-.43v-.76l.07-.912v-.276l-.035-.913v-.276l-.017-.913.017-.276.052-.912.016-.276-.068-.913-.017-.276-.052-.515v-.4l.07-.225.173-.1.241-.035.274-.016,1.879-.052,1.5.086.931-.033h.276l.947.016h.276l1,.068.292.036.295.051.653.208.258.121.328.173.224.154.292.243.173.189.241.292.121.225.19.327.1.241.086.258.052.276.068.447.017.276-.017.293-.051.292-.1.4-.1.243-.189.327-.173.19-.276.257-.138.14-.051.119.051.138.155.173.206.189.208.225.258.362.155.258.121.276.068.136.086.276.07.293.035.292Zm-7.839-4.7.017.138.017.276.035.19.068.1.138.068.206.016h.69l.293-.016h.293l.395.033.587.033h.379l.224-.051.206-.1.173-.121.121-.136.1-.174.052-.241v-.293l-.052-.222-.155-.225-.241-.171-.1-.035-.258-.07-.121-.016-.292-.035h-.155l-.672-.087h-.258l-.43.017-.276.017h-.363l-.171.035-.155.017-.1.051-.07.087-.051.224-.052.412Zm3.963,5.548.138-.12.07-.1.121-.258.051-.276.017-.1-.017-.239-.051-.241-.138-.243-.1-.12-.224-.224-.276-.154-.258-.087-.121-.033-.241-.019-.775.035-.292.017h-1.016l-.258.017-.311.051-.155.052-.051.086-.017.208v.292l.017.276v.381l-.035.292v.344l.035.19.068.1.121.068.224.035,2.431-.051.585-.035.276-.052Z" transform="translate(144.59 -92.182)" fill="#4ab6ac"/>
      <path id="Path_12" data-name="Path 12" d="M-116.638,102.189v.276l-.07.931v.276l-.017.947v.19l-.051.086-.138.051-.241.017-.878-.017H-119.1l-.861-.068-.1-.035-.052-.051v-.173l-.035-.43v-.276l-.016-.258V103.4l-.052-.931.017-.276.051-.931.019-.276-.052-.947v-.276l-.017-.929V97.348l-.017-.947v-.276l.017-.931V93.713l-.035-.947.052-.19.1-.068.173-.017h.138l.257-.017.414.017h.276l.793-.035h1.069l.189.035.035.1.016.192.035.447.017.276v1.687l.017.931V96.4l-.017.947v.276l.017.931v.276l-.035.929v1.5Z" transform="translate(149.439 -92.182)" fill="#4ab6ac"/>
      <path id="Path_13" data-name="Path 13" d="M-106.868,104.112l-.016.276v.154l-.052.208-.1.121-.12.052-.173.033h-.138l-.241.017-1.912-.1h-1.292l-1.551.1-1-.068h-1.273l-.793.051h-.258l-.241-.017-.19-.033-.12-.07-.086-.1-.035-.208v-.276l.086-.655.017-.258-.068-.912v-.276l.035-.913v-.276l.033-2.1v-.274l-.068-2.1v-.274l-.017-.915V93.829l-.035-.519v-.258l.017-.154.051-.225.07-.1.12-.052.19-.033h.138l.257-.017.845.051h.276l1.223-.016h.173l.121.068.086.121v1.5l.033,1v.276l-.051,1v.276l.035,1v.276l.051,1v.276l-.1,2.275.017.171.017.087.033.084.087.07.208.035.585.033.517-.033h.276l2.48-.035.276-.017.585-.068.276-.017h.258l.206.051.122.1.051.12.017.189.017.964.016.276Z" transform="translate(151.64 -92.175)" fill="#4ab6ac"/>
      <path id="Path_14" data-name="Path 14" d="M-105.676,102.189v.276l-.07.931v.276l-.017.947v.19l-.051.086-.138.051-.241.017-.878-.017h-1.069l-.861-.068-.1-.035-.051-.051v-.173l-.035-.43v-.276l-.016-.258V103.4l-.052-.931.017-.276.051-.931.017-.276-.051-.947v-.276l-.017-.929V97.348l-.017-.947v-.276l.017-.931V93.713l-.035-.947.052-.19.1-.068.173-.017h.138l.257-.017.414.017h.276l.793-.035H-106l.189.035.035.1.016.192.035.447.017.276v1.687l.017.931V96.4l-.017.947v.276l.017.931v.276l-.035.929v1.5Z" transform="translate(155.858 -92.182)" fill="#4ab6ac"/>
      <path id="Path_15" data-name="Path 15" d="M-95.128,93.851l-.017.258.017.517-.017.274-.016.138-.035.208-.052.12-.1.086-.206.036h-.276l-.517-.054-.276-.016-.793.051H-97.7l-.43-.035h-.258l-.121.017-.173.052-.068.1-.017.224-.068,1.016v.276l.068,1.034-.017.276-.07,1.032-.016.276.035,1.018v1.584l-.035,1.016.016.258.087.775.017.276-.052.206-.086.086-.224.035-.328-.017-.431-.051-.292-.017-.775.051h-.276l-.775-.051-.206-.017-.1-.052-.035-.189v-.293l.052-.723.016-.276v-1.292l.017-1.032v-.276l.017-1.018v-.276l-.068-1.032-.017-.276v-1.31l-.035-1.016v-.241l-.051-.138-.173-.033h-.258l-.552.033h-.309l-.466-.033-.292-.017-.293.017-.4.016h-.258l-.138-.016-.189-.035-.1-.07-.068-.1-.035-.174v-.12l-.017-.276.035-.515v-.258l-.051-.655.016-.276.052-.224.068-.122.1-.051.171-.033h.4l.637.051h.276l1-.068h.276l1.016.086h.276l1.275-.086,1,.017h.276l1.291-.017h1.275l.569-.035.293.017.138.017.206.033.121.068.086.122.035.206v.122l.017.258Z" transform="translate(157.799 -92.182)" fill="#4ab6ac"/>
      <path id="Path_16" data-name="Path 16" d="M-94.453,102.211v.274l-.07.931v.276l-.016.948v.189l-.052.1-.138.035-.241.017-.878-.017h-1.069l-.861-.068-.1-.035-.052-.052v-.171l-.035-.431v-.274l-.016-.26v-.258l-.052-.931.017-.274.051-.929.017-.276-.051-.948v-.276l-.017-.931V97.37l-.017-.948v-.276l.017-.929V93.735l-.035-.948L-98,92.6l.1-.07.173-.017h.138l.258-.016.412.016h.276l.793-.033h1.067l.19.033.035.1.017.189.033.447.017.276v1.689l.017.929v.276l-.017.948v.276l.017.931v.274l-.035.931v1.5Z" transform="translate(162.431 -92.169)" fill="#4ab6ac"/>
      <path id="Path_17" data-name="Path 17" d="M-84.263,103.321l-.017.276-.07.931-.017.171-.068.122-.086.068-2.256.068h-.276l-.913-.068-.276.017-.894.068-.276.017H-90.6l-.9-.068h-.276l-1.479.086-.587-.035-.206-.033-.121-.087-.052-.12-.035-.189-.033-.4-.017-.276.017-.258v-.258l.068-.912v-.276l.017-.913-.017-.276-.052-.913-.016-.274.033-.931V97.4l.07-.912-.017-.276-.052-.913-.017-.276V94.6l.035-.517v-.258l.052-.9.017-.241.051-.138.087-.068.138-.017.224-.035,1.119.07,1.05-.017h.276l1.034.068h.276l1.034-.068h.274l2.344.035.293-.017.587-.052h.43l.243.052.1.086.035.121.035.224V93.4l-.035.431v.293l.017.431.017.257-.017.258-.035.208-.068.121-.087.068-.206.036h-.138l-.276.016-1.619-.035h-.276l-.878.035h-.274l-.9-.035-.774-.051h-.258l-.138.016-.173.035-.086.087-.017.1-.033.189-.036.414v.276l.017.292.019.19.033.122.068.084.19.051.552.036.55-.036h1.638l1.928-.1.533.035.192.033.1.087.051.1.017.189.033.293.017.292v.569l.036.4-.036.517-.033.208-.068.119-.121.087-.173.033h-.346l-.775-.086-.276-.017-1.378.086-1.1-.033h-.276l-.69-.052-.292.017-.206.017-.087.051-.051.122-.017.258-.052.43-.017.276v.379l.017.173.052.121.068.068.19.017.947.035h.276l.931-.07,1.223.07h.276l1.224-.07h.258l.258.017.618.07.1.051.068.1.017.19Z" transform="translate(164.626 -92.195)" fill="#4ab6ac"/>
      <path id="Path_18" data-name="Path 18" d="M-76.212,101.171l-.017.293-.035.292-.052.276-.087.379-.084.243-.157.343-.119.225-.208.309-.173.208-.206.206-.206.19-.346.224-.224.155-.258.136-.241.122-.4.138-.515.171-.276.052-.433.068-.258.036-.377.033-.241.017-.4.017-.828.051h-.379l-.239-.017-.4-.033-.26-.035-.292-.052-.258-.086-.379-.121-.243-.12-.257-.121-.241-.122-.225-.136-.552-.379-.2-.173-.312-.241-.206-.173-.189-.189-.14-.155-.016-.12.086-.154.07-.087.173-.189.48-.449.155-.19.295-.447.154-.189.173-.19.189-.1.19.036.189.138.552.377.258.138.241.121.395.19.258.086.276.087.276.051.4.017.276.016,1.085-.068.276-.033.138-.035.258-.1.225-.138.171-.173.087-.119.1-.26-.016-.292-.035-.138-.138-.241-.087-.1-.222-.171-.138-.052-.258-.1-.293-.07-.292-.051-1.638-.155-.517-.1-.276-.07L-84,99.724l-.258-.087-.258-.12-.585-.292-.224-.155-.258-.155-.224-.155-.293-.241-.155-.224-.154-.258-.1-.26-.12-.36-.051-.258-.052-.379-.035-.552.017-.276.033-.414.054-.258.068-.222.086-.258.173-.381.121-.241.138-.206.171-.19.276-.258.225-.173.222-.154.243-.121.328-.189.515-.208.258-.086.4-.07.276-.051.517-.07.379-.068L-82,92.3l.258-.016h.276l.515.051.258.033.12.035.276.035.585.1.293.07.276.084.292.087.276.1.258.12.258.1.328.189.241.121.224.155.155.155V93.9l-.1.19-.189.344-.138.208-.655.861-.189.241-.208.173-.138.051-.121-.017-.171-.086-.258-.155-.257-.1-.122-.052-.258-.086-.138-.035-.292-.068-.4-.087-.276-.016-.447-.035h-.449l-.293.017-.292.051-.276.087-.1.051-.206.157-.086.1-.12.241-.035.276.051.225.138.222.19.173.206.1.12.052.258.052.431.051.585.035.293.052.587.138.55.171.4.087.258.068.482.173.346.155.239.121.243.138.224.138.5.412.19.206.171.208.206.309.138.225.121.257.071.258.068.379.035.26Z" transform="translate(168.826 -92.283)" fill="#4ab6ac"/>
      <path id="Path_19" data-name="Path 19" d="M-61,103.367l.016.276.068.533.017.258-.017.138-.016.19-.087.138-.1.086-.19.035-.258.017h-.276l-.687-.052-.295-.017h-.43l-.311-.017-.637-.084-.12-.036-.068-.084-.017-.174-.016-.239-.017-.258.033-.585v-1.621l-.051-1.085v-.276l.068-1.069V98.095l-.033-.206-.1-.07h-.1l-.122.157-.171.239-.723.828L-66.7,100.3l-.69.863-.154.138-.121.051H-67.8l-.19-.035-.206-.052-.19-.138-.859-1.032-.639-.844-.171-.208-.9-1-.222-.225-.1.036-.033.189-.052,1.086V99.4l.07,1.086v.276l.033,1.085v.276l-.017,1.067v.258l.017.517-.017.276-.016.293-.035.224-.07.1-.121.033-.447.051-.276.017-.672-.051-.276.017-.826.068h-.4l-.206-.035-.1-.1-.033-.12-.036-.174v-.4l.036-.533v-2.654l-.036-.912V99.8l.019-.913-.019-.276-.051-.931v-.274l.051-.913.019-.274-.07-.915.017-.274.07-.913v-.274l-.07-.639v-.276l.033-.224.07-.121.1-.086.138-.035.222-.017.293.035.379.086h.276l.534-.051.293-.035.258-.017.655.017h.224l.189.086.173.19.6.671.173.224.5.707.173.224.568.672.173.243.534.669.171.192.155.084h.173l.155-.084.154-.174.518-.687.171-.243.552-.672.171-.224.6-.672.173-.224.449-.55.136-.19.138-.138.173-.086.224.017.913.051.809.017h.276l.517-.035.293.017.208.033.119.036.1.086.036.136-.019.208-.068.777-.017.274.035.913V95.3l-.017.915v.274l.017.913v.274l.07.931v.276l-.07.913v.276l.051.912v.276l-.068.913v.276Z" transform="translate(176.021 -92.188)" fill="#4ab6ac"/>
      <path id="Path_20" data-name="Path 20" d="M-60.938,102.189v.276l-.068.931v.276l-.017.947v.19l-.052.086-.138.051-.241.017-.878-.017H-63.4l-.861-.068-.1-.035-.051-.051v-.173l-.033-.43v-.276l-.017-.258V103.4l-.052-.931.016-.276.054-.931.016-.276-.052-.947v-.276l-.017-.929V97.348l-.016-.947v-.276l.016-.931V93.713l-.033-.947.051-.19.1-.068.173-.017h.138l.258-.017.414.017h.274l.793-.035h1.069l.189.035.035.1.017.192.035.447.017.276v1.687l.017.931V96.4l-.017.947v.276l.017.931v.276l-.035.929v1.5Z" transform="translate(182.06 -92.182)" fill="#4ab6ac"/>
      <path id="Path_21" data-name="Path 21" d="M-49.08,95.207l-.017.276v2.55l.051,1v.276l.035,2.275v.292l-.017.138-.017.293-.051.826.017,1-.017.241-.07.206-.138.19-.171.121-.155.052-.241.016-.878.035-.276.017-.43.017h-.276l-.225-.052-.206-.086-.208-.155-.154-.224-.258-.5-.155-.224-.672-.844-.171-.208-.672-.826-.155-.225-.6-.894-.154-.208-.672-.828-.173-.206-.636-.844L-57,98.567l-.121.051-.052.208-.033.861v.276l.016.861v.276l.017.964v.276l-.051.964.017.276.1.69.017.276-.052.224-.121.121-.121.035-.208.033-.138.017-.292.017-.793-.017h-.276l-.706.035h-.276l-.258-.017-.189-.035-.138-.084-.07-.12-.035-.174-.016-.121V104.2l.033-.569.017-.276-.051-.912v-.276l.033-2.1.017-.274.052-.915.017-.274V97.413l-.07-.913v-.274l.07-.915-.017-.274-.07-.931-.017-.276v-.4l.017-.257.036-.258.033-.19.051-.122.1-.051.189-.033.517-.035.517.035H-58l.206.016.086.068.1.157.723.774.173.208.636.828.174.206.636.844.173.208.62.861.155.206.655.828.171.206.622.861.136.12.14.017.119-.086v-.19l-.119-.723-.019-.276.052-.74v-.276l-.07-1.051V95.31l.07-1.051-.017-.274-.052-.637v-.43l.052-.225.068-.138.122-.068.2-.035h.157l.293-.017.774.052h.276l.587-.035.258.017.395.017.19.035.121.051.1.12.035.241.017.155.017.293-.035.534-.035.274Z" transform="translate(184.262 -92.195)" fill="#4ab6ac"/>
      <path id="Path_22" data-name="Path 22" d="M-48.27,102.189v.276l-.068.931v.276l-.017.947v.19l-.052.086-.138.051-.241.017-.878-.017h-1.067l-.861-.068-.1-.035-.051-.051v-.173l-.035-.43v-.276l-.016-.258V103.4l-.052-.931.016-.276.052-.931.017-.276-.052-.947v-.276l-.017-.929V97.348l-.016-.947v-.276l.016-.931V93.713l-.033-.947.051-.19.1-.068.173-.017h.138l.258-.017.414.017h.274l.793-.035H-48.6l.189.035.035.1.017.192.035.447.017.276v1.687l.017.931V96.4l-.017.947v.276l.017.931v.276l-.035.929v1.5Z" transform="translate(189.479 -92.182)" fill="#4ab6ac"/>
      <path id="Path_23" data-name="Path 23" d="M-37.407,101.171l-.016.293-.035.292-.052.276-.087.379-.084.243-.155.343-.121.225-.208.309-.171.208-.206.206-.208.19-.344.224-.225.155-.258.136-.241.122-.395.138-.517.171-.276.052-.431.068-.258.036-.379.033-.241.017-.4.017-.828.051h-.377l-.241-.017-.4-.033-.258-.035-.293-.052-.258-.086-.379-.121-.241-.12-.258-.121-.241-.122-.225-.136-.55-.379-.206-.173-.311-.241-.206-.173-.19-.189-.136-.155-.017-.12.084-.154.07-.087.173-.189.482-.449.155-.19.293-.447.154-.189.173-.19.19-.1.189.036.189.138.552.377.258.138.241.121.4.19.258.086.276.087.276.051.4.017.276.016,1.083-.068.276-.033.138-.035.258-.1.225-.138.171-.173.087-.119.1-.26-.016-.292-.035-.138-.138-.241-.086-.1-.224-.171-.138-.052-.258-.1-.293-.07-.292-.051-1.636-.155-.519-.1-.274-.07-.381-.136-.257-.087-.258-.12-.587-.292-.224-.155-.258-.155L-47,98.759l-.293-.241-.155-.224-.154-.258-.1-.26-.121-.36-.051-.258-.051-.379-.036-.552.017-.276.036-.414.051-.258.068-.222.086-.258.173-.381.121-.241.138-.206.173-.19.276-.258.224-.173.224-.154.241-.121.328-.189.517-.208.257-.086.4-.07.276-.051.517-.07.379-.068.276-.035.258-.016h.276l.517.051.257.033.121.035.276.035.585.1.295.07.276.084.292.087.276.1.258.12.257.1.328.189.243.121.222.155.155.155V93.9l-.1.19-.192.344-.136.208-.655.861-.19.241-.206.173-.136.051-.122-.017-.171-.086-.258-.155-.258-.1-.121-.052-.258-.086-.138-.035-.293-.068-.4-.087-.276-.016-.447-.035h-.449l-.293.017-.292.051-.276.087-.1.051-.206.157-.087.1-.121.241-.035.276.052.225.138.222.189.173.206.1.121.052.26.052.43.051.587.035.293.052.585.138.552.171.4.087.258.068.48.173.346.155.241.121.241.138.224.138.5.412.19.206.171.208.208.309.138.225.119.257.07.258.07.379.035.26Z" transform="translate(191.553 -92.283)" fill="#4ab6ac"/>
      <path id="Path_24" data-name="Path 24" d="M-30.429,93.851l-.017.258.017.517-.017.274-.017.138-.035.208-.051.12-.1.086-.206.036h-.276l-.517-.054-.276-.016-.793.051H-33l-.43-.035h-.258l-.122.017-.171.052-.07.1-.017.224-.068,1.016v.276l.068,1.034-.016.276-.068,1.032-.017.276.033,1.018v1.584l-.033,1.016.017.258.084.775.017.276-.051.206-.087.086-.224.035-.328-.017-.43-.051-.293-.017-.775.051h-.276l-.774-.051-.208-.017-.1-.052-.036-.189v-.293l.052-.723.017-.276v-1.292l.017-1.032v-.276l.017-1.018v-.276l-.068-1.032-.019-.276v-1.31l-.033-1.016v-.241l-.052-.138-.171-.033h-.258l-.552.033h-.311l-.465-.033-.293-.017-.292.017-.4.016H-40.7l-.138-.016-.189-.035-.1-.07-.07-.1-.033-.174v-.12l-.017-.276.035-.515v-.258l-.052-.655.017-.276.051-.224.07-.122.1-.051.171-.033h.4l.636.051h.276l1-.068h.276l1.016.086h.274l1.275-.086,1,.017h.276l1.291-.017h1.275l.568-.035.293.017.14.017.206.033.121.068.086.122.035.206v.122l.017.258Z" transform="translate(195.689 -92.182)" fill="#4ab6ac"/>
      <path id="Path_25" data-name="Path 25" d="M-21.83,104.88l-.225.068H-23.26l-.948-.017h-.276l-.774.033h-.225l-.154-.068-.138-.136-.552-.777-.155-.206-.55-.74-.155-.206-.484-.793-.154-.208-.552-.74-.121-.138-.1-.051-.206-.019-.552-.033-.225.017-.138.1-.051.225-.033.947.016.276.068.964.019.276.017.414v.276l-.017.276-.035.206-.086.086-.19.051h-.276l-.826-.051-.791.051h-.276l-.793-.051-.208-.033-.1-.07-.035-.173-.017-.241-.017-.258.035-.447.017-.276.07-.931v-.276l-.052-.931L-33.3,101l-.017-.912v-.276l.052-.931v-.274l-.052-.931V97.4l.052-.931V96.2l.035-.912v-.276l-.017-.931V93.8l-.035-.568.017-.258.017-.1.051-.222.1-.138.2-.052.138-.017.258-.017.777.035,2.05.07,1.17-.07h.276l1.137.07h.655l.292.016.258.052.363.1.258.087.258.1.276.1.258.121.224.138.328.224.189.155.171.171.171.208.243.344.154.225.208.327.122.241.121.258.084.276.052.276.017.276.035.379v.276l-.017.276-.035.292-.052.293-.068.276-.1.258-.121.258-.155.257-.154.224-.155.206-.155.19-.276.276-.19.155-.344.189-.206.121-.225.12-.224.052-.138.052.068.138.622.877.155.208.618.845.174.2.618.863.174.206.533.622.154.189.087.189Zm-5.22-6.634.379-.068.224-.087.208-.121.171-.206.121-.258.068-.274.017-.276-.017-.293-.033-.292-.07-.26-.119-.258-.157-.206-.189-.155-.241-.1-.379-.086-.276-.035-.861-.017h-.276l-.878.052-.208.016-.119.052-.1.1-.016.19.016.4.035.276.033.293.019.292-.035.948.016.189.036.1.119.052.208.033.894.07h.276Z" transform="translate(200.321 -92.201)" fill="#4ab6ac"/>
      <path id="Path_26" data-name="Path 26" d="M-13.494,92.68l-.1.155-1.242,1.827-.173.224-.585.793-.155.222-.482.847-.155.239-.533.793-.173.241-.552.793-.171.224-.569.793-.07.138v1.4l.07.931-.017.274-.07.931v.276l.07.723.017.243-.052.136-.068.068-.155.035H-19.8l-2.017-.068-.068-.051-.035-.174v-2.118l-.017-.274-.068-.931-.019-.276.07-.931-.033-.155-.122-.121-.465-.826-.155-.241-.552-.775-.154-.241-.5-.828-.138-.241L-25.277,94.9l-.136-.239-.519-.81-.138-.241-.5-.826-.052-.155.017-.087.1-.068h2.309l.276.017,1,.051.189.017.07.052.5.861.136.224.517.775.138.225.449.793.155.239.465.742.121.154.1.035.121-.121.43-.828.155-.222.534-.76.155-.225.43-.809.138-.241.482-.793.138-.171.138-.035.19.017.861.051h.274l1-.051h.276l.982.068.208.035.086.035Z" transform="translate(204.266 -92.182)" fill="#4ab6ac"/>
    </g>
    <g id="Group_22" data-name="Group 22" transform="translate(-156.215 142.741)">
      <path id="Path_27" data-name="Path 27" d="M-146.776,99.043l-.017.292-.017.414-.052.276-.121.4-.086.276-.1.258-.1.276-.1.292-.1.258-.189.381-.138.224-.243.276-.171.189-.293.276-.379.379-.224.189-.327.26-.225.136-.344.19-.224.1-.379.138-.258.087-.276.068-.276.051-1.051.155-.258.017-.377.035h-.276l-.552-.017-.449-.035h-.274l-.552.035-.431.017-.292.016-.258-.016h-1.207l-.258-.017-.741-.07-.138-.068-.086-.087-.035-.189-.017-.276.017-.138.035-.517v-.241l.017-.395v-.258l.016-.276v-.276l-.016-.913v-.276l-.035-.913.017-.258.017-.377.033-.258.017-.293v-.276l-.035-.449-.016-.293v-.154l-.017-.293.068-.913v-.276l-.017-.912v-.276l-.051-.913v-.672l.017-.276.051-.258.035-.189.068-.1.19-.052.293-.033.258-.035.274-.017,1.517.017h.274l.828.052.138.016h.311l.723-.033.258-.017h.276l.43.035.552.033.276.035.447.07.276.051.258.07.62.222.258.122.258.136.241.138.568.4.225.19.206.173.379.36.173.174.154.189.122.225.189.377.1.258.086.276.1.276.086.274.068.276.07.381.052.274.051.293.035.276.017.412.017.276Zm-3.928,1.481.119-.258.1-.292.068-.258.07-.381.016-.239.017-.4v-.552l-.017-.274-.051-.4-.07-.258-.033-.1-.138-.258-.258-.362-.087-.086-.171-.189-.19-.19-.206-.155-.379-.224-.241-.1-.241-.051-.276-.054-.431-.016-.292-.017h-.431l-.379-.017-.258.017-.379.051-.19.052-.086.086-.051.208-.017.155-.017.258.035.515.016.276.035.379.035.276.017.276v.274l-.017.381v.826l-.017.293-.017.276-.035.379v.241l-.016.4.016.257.052.414.068.19.1.086.206.017,1.6-.1.4-.017.274-.052.293-.086.276-.1.258-.12.224-.155.309-.276.173-.206Z" transform="translate(158.681 -92.188)" fill="#fff"/>
      <path id="Path_28" data-name="Path 28" d="M-146.519,102.189v.276l-.07.931v.276l-.016.947v.19l-.052.086-.138.051-.241.017-.878-.017h-1.069l-.861-.068-.1-.035-.052-.051v-.173l-.035-.43v-.276l-.016-.258V103.4l-.052-.931.017-.276.051-.931.019-.276-.052-.947v-.276l-.017-.929V97.348l-.017-.947v-.276l.017-.931V93.713l-.035-.947.052-.19.1-.068.173-.017h.138l.257-.017.414.017h.276l.793-.035h1.069l.189.035.035.1.017.192.035.447.016.276v1.687l.017.931V96.4l-.017.947v.276l.017.931v.276l-.033.929v1.5Z" transform="translate(163.695 -92.182)" fill="#fff"/>
      <path id="Path_29" data-name="Path 29" d="M-135.656,101.171l-.017.293-.033.292-.052.276-.086.379-.086.243-.157.343-.119.225-.208.309-.171.208-.208.206-.206.19-.344.224-.225.155-.258.136-.241.122-.4.138-.517.171-.276.052-.43.068-.258.036-.379.033-.241.017-.4.017-.826.051h-.379l-.241-.017-.4-.033-.258-.035-.293-.052-.258-.086-.379-.121-.241-.12-.258-.121-.241-.122-.224-.136-.552-.379-.206-.173-.311-.241-.206-.173-.19-.189-.138-.155-.017-.12.087-.154.068-.087.173-.189.482-.449.155-.19.292-.447.155-.189.173-.19.189-.1.19.036.19.138.55.377.258.138.241.121.4.19.258.086.276.087.276.051.4.017.274.016,1.086-.068.276-.033.138-.035.258-.1.224-.138.171-.173.086-.119.1-.26-.017-.292-.035-.138-.138-.241-.086-.1-.224-.171-.138-.052-.258-.1-.293-.07-.293-.051-1.635-.155-.519-.1-.274-.07-.379-.136-.258-.087-.258-.12-.585-.292-.225-.155-.258-.155-.224-.155-.293-.241-.155-.224-.154-.258-.1-.26-.119-.36-.052-.258-.052-.379-.033-.552.017-.276.033-.414.052-.258.068-.222.086-.258.173-.381.121-.241.138-.206.173-.19.276-.258.224-.173.224-.154.241-.121.328-.189.515-.208.258-.086.4-.07.276-.051.517-.07.379-.068.276-.035.258-.016h.276l.517.051.258.033.121.035.276.035.585.1.292.07.276.084.293.087.276.1.258.12.258.1.327.189.241.121.225.155.155.155V93.9l-.1.19-.189.344-.138.208-.655.861-.19.241-.206.173-.138.051-.121-.017-.173-.086-.258-.155-.258-.1-.119-.052-.258-.086-.138-.035-.293-.068-.4-.087-.276-.016-.447-.035h-.449l-.292.017-.293.051-.276.087-.1.051-.206.157-.087.1-.121.241-.033.276.051.225.138.222.189.173.208.1.121.052.258.052.431.051.585.035.292.052.587.138.552.171.4.087.257.068.484.173.344.155.241.121.241.138.224.138.5.412.19.206.171.208.208.309.138.225.12.257.068.258.07.379.033.26Z" transform="translate(165.769 -92.283)" fill="#fff"/>
    </g>
  </g>
</svg>
