<?xml version="1.0" encoding="utf-8"?>
<!-- Generator: Adobe Illustrator 22.1.0, SVG Export Plug-In . SVG Version: 6.00 Build 0)  -->
<svg version="1.1" id="Layer_1" xmlns="http://www.w3.org/2000/svg" xmlns:xlink="http://www.w3.org/1999/xlink" x="0px" y="0px"
	 viewBox="0 0 612 612" style="enable-background:new 0 0 612 612;" xml:space="preserve">
<style type="text/css">
	.st0{fill:none;stroke:#000000;stroke-width:15;stroke-linecap:round;stroke-linejoin:round;stroke-miterlimit:10;}
</style>
<g>
	<line class="st0" x1="141.8" y1="142.4" x2="141.8" y2="195.5"/>
	<line class="st0" x1="194.8" y1="142.4" x2="194.8" y2="195.5"/>
	<line class="st0" x1="247.8" y1="142.4" x2="247.8" y2="195.5"/>
	<line class="st0" x1="301" y1="142.4" x2="301" y2="195.5"/>
	<line class="st0" x1="354" y1="142.4" x2="354" y2="195.5"/>
	<line class="st0" x1="407" y1="142.4" x2="407" y2="195.5"/>
	<line class="st0" x1="460" y1="142.4" x2="460" y2="195.5"/>
</g>
<g>
	<line class="st0" x1="194.8" y1="169" x2="221.3" y2="169"/>
	<line class="st0" x1="247.8" y1="169" x2="274.5" y2="169"/>
	<line class="st0" x1="301" y1="169" x2="327.5" y2="169"/>
	<line class="st0" x1="354" y1="169" x2="380.5" y2="169"/>
	<line class="st0" x1="407" y1="169" x2="433.5" y2="169"/>
</g>
<polyline class="st0" points="460,169 495.5,169 495.5,337 "/>
<line class="st0" x1="106.4" y1="222" x2="495.5" y2="222"/>
<polyline class="st0" points="362.8,469.6 106.4,469.6 106.4,169 168.3,169 "/>
<line class="st0" x1="154" y1="310.5" x2="167.9" y2="310.5"/>
<line class="st0" x1="199.4" y1="310.4" x2="213.4" y2="310.4"/>
<line class="st0" x1="244.9" y1="310.4" x2="258.8" y2="310.4"/>
<line class="st0" x1="290.3" y1="310.4" x2="304.2" y2="310.4"/>
<line class="st0" x1="335.7" y1="310.4" x2="349.6" y2="310.4"/>
<line class="st0" x1="154" y1="345.8" x2="167.9" y2="345.8"/>
<line class="st0" x1="199.4" y1="345.8" x2="213.4" y2="345.8"/>
<line class="st0" x1="244.9" y1="345.8" x2="258.8" y2="345.8"/>
<line class="st0" x1="290.3" y1="345.8" x2="304.2" y2="345.8"/>
<line class="st0" x1="335.7" y1="345.8" x2="349.6" y2="345.8"/>
<line class="st0" x1="154" y1="381.2" x2="167.9" y2="381.2"/>
<line class="st0" x1="199.4" y1="381.2" x2="213.4" y2="381.2"/>
<line class="st0" x1="244.9" y1="381.2" x2="258.8" y2="381.2"/>
<line class="st0" x1="290.3" y1="381.2" x2="304.2" y2="381.2"/>
<line class="st0" x1="154" y1="416.7" x2="167.9" y2="416.7"/>
<line class="st0" x1="199.4" y1="416.7" x2="213.4" y2="416.7"/>
<line class="st0" x1="244.9" y1="416.7" x2="258.8" y2="416.7"/>
<line class="st0" x1="290.3" y1="416.7" x2="304.2" y2="416.7"/>
<line class="st0" x1="381.1" y1="310.4" x2="395.1" y2="310.4"/>
<line class="st0" x1="426.5" y1="310.5" x2="440.5" y2="310.5"/>
<line class="st0" x1="244.9" y1="275.1" x2="258.8" y2="275.1"/>
<line class="st0" x1="290.3" y1="275.1" x2="304.2" y2="275.1"/>
<line class="st0" x1="335.7" y1="275.1" x2="349.6" y2="275.1"/>
<line class="st0" x1="381.1" y1="275.1" x2="395.1" y2="275.1"/>
<line class="st0" x1="426.5" y1="275.1" x2="440.5" y2="275.1"/>
<g>
	<circle class="st0" cx="433.5" cy="407.7" r="61.9"/>
	<polyline class="st0" points="460,390 424.8,425.4 407,407.7 	"/>
</g>
</svg>
