<?xml version="1.0" encoding="utf-8"?>
<!-- Generator: Adobe Illustrator 23.0.1, SVG Export Plug-In . SVG Version: 6.00 Build 0)  -->
<svg version="1.1" id="Layer_1" xmlns="http://www.w3.org/2000/svg" xmlns:xlink="http://www.w3.org/1999/xlink" x="0px" y="0px"
	 viewBox="0 0 612 612" style="enable-background:new 0 0 612 612;" xml:space="preserve">
<style type="text/css">
	.st0{fill:none;stroke:#000000;stroke-width:15;stroke-linecap:round;stroke-linejoin:round;stroke-miterlimit:10;}
</style>
<polyline class="st0" points="323,425 290.4,425 172.3,545.8 172.3,425 90.9,425.5 90.9,101.9 521.1,101.9 521.1,425.2 484,425.3 
	"/>
<line class="st0" x1="203.5" y1="209.8" x2="427.5" y2="209.8"/>
<line class="st0" x1="203.5" y1="266.2" x2="427.5" y2="266.2"/>
<line class="st0" x1="203.5" y1="324.5" x2="263" y2="324.5"/>
<g>
	<path d="M374,438.3c0-37.2,42.9-42.6,42.9-75.3c0-13.8-9.9-27-28.8-27c-15.3,0-25.2,6.3-33.9,17.1l-12.6-15.3
		c12-14.7,29.4-23.1,49.8-23.1c30.3,0,49.8,19.8,49.8,44.7c0,42.6-46.2,50.1-46.2,80.1c0,5.4,2.7,11.7,6.6,15.3l-17.7,8.1
		C377,456,374,447.6,374,438.3z M374.6,504.9c0-8.4,7.5-15.9,16.2-15.9s15.9,7.5,15.9,15.9c0,9-7.2,16.2-15.9,16.2
		S374.6,513.9,374.6,504.9z"/>
</g>
</svg>
