<?xml version="1.0" encoding="utf-8"?>
<!-- Generator: Adobe Illustrator 22.1.0, SVG Export Plug-In . SVG Version: 6.00 Build 0)  -->
<svg version="1.1" id="Layer_1" xmlns="http://www.w3.org/2000/svg" xmlns:xlink="http://www.w3.org/1999/xlink" x="0px" y="0px"
	 viewBox="0 0 612 612" style="enable-background:new 0 0 612 612;" xml:space="preserve">
<style type="text/css">
	.st0{fill:none;stroke:#000000;stroke-width:15;stroke-linecap:round;stroke-linejoin:round;stroke-miterlimit:10;}
</style>
<circle class="st0" cx="306.9" cy="234.8" r="77.8"/>
<path class="st0" d="M188.7,460.8c0-65.3,52.9-118.2,118.2-118.2s118.2,52.9,118.2,118.2"/>
<path class="st0" d="M215.6,169.1c-13.3-14.7-34.6-21.6-54-16.7c-43.1,10.9-54.2,67.8-20.9,95.9c15.4,13,37.6,16.5,56.4,9.3"/>
<path class="st0" d="M89,375.8c-0.5-34.6,19.6-65.9,50.1-78.4c35.2-14.5,77.7-1.5,100.3,32.1"/>
<path class="st0" d="M402,165.2c14.3-13.8,36.1-19.1,55-12.8c42.2,13.9,49.3,71.4,14,97.1c-16.3,11.9-38.6,13.8-56.9,5.3"/>
<path class="st0" d="M523,375.3c0.5-34.6-19.6-65.9-50.1-78.4c-35.2-14.5-77.7-1.5-100.3,32.1"/>
</svg>
