<?xml version="1.0" encoding="utf-8"?>
<!-- Generator: Adobe Illustrator 22.1.0, SVG Export Plug-In . SVG Version: 6.00 Build 0)  -->
<svg version="1.1" id="Layer_1" xmlns="http://www.w3.org/2000/svg" xmlns:xlink="http://www.w3.org/1999/xlink" x="0px" y="0px"
	 viewBox="0 0 612 612" style="enable-background:new 0 0 612 612;" xml:space="preserve">
<style type="text/css">
	.st0{fill:none;stroke:#231F20;stroke-width:15;stroke-linejoin:round;stroke-miterlimit:10;}
	.st1{fill:none;stroke:#231F20;stroke-width:15;stroke-linecap:round;stroke-linejoin:round;stroke-miterlimit:10;}
</style>
<g>
	<line class="st0" x1="132.4" y1="497.2" x2="264.6" y2="497.2"/>
	<line class="st0" x1="143.5" y1="323.5" x2="154.6" y2="502.8"/>
	<line class="st0" x1="253.6" y1="323.5" x2="242.7" y2="497.2"/>
	<rect x="122.5" y="297.2" class="st0" width="152.1" height="31.9"/>
	<line class="st0" x1="173.2" y1="342.7" x2="177.8" y2="484"/>
	<line class="st0" x1="223.7" y1="342.5" x2="219.1" y2="483.8"/>
	<polyline class="st0" points="142.4,285.6 142.4,254.7 254.7,254.7 254.7,283.1 254.7,285.6 	"/>
	<circle class="st0" cx="198.5" cy="206.6" r="29.5"/>
	<line class="st0" x1="347.4" y1="497.6" x2="479.6" y2="497.6"/>
	<line class="st0" x1="358.4" y1="323.9" x2="369.5" y2="503.2"/>
	<line class="st0" x1="468.5" y1="323.9" x2="457.7" y2="497.6"/>
	<rect x="337.4" y="297.6" class="st0" width="152.1" height="31.9"/>
	<line class="st0" x1="388.2" y1="343.1" x2="392.7" y2="484.4"/>
	<line class="st0" x1="438.6" y1="342.9" x2="434" y2="484.2"/>
	<polyline class="st0" points="357.3,286 357.3,255.1 469.6,255.1 469.6,283.5 469.6,286 	"/>
	<circle class="st0" cx="413.5" cy="207" r="29.5"/>
	<polyline class="st1" points="266,162 238.6,174.9 244.2,156.2 244.2,108.8 304.8,108.8 	"/>
	<polygon class="st1" points="284.1,131.2 284.1,183.4 330.5,183.4 364.9,198.6 350.1,172.8 350.1,131.2 	"/>
</g>
</svg>
