<?xml version="1.0" encoding="utf-8"?>
<!-- Generator: Adobe Illustrator 23.0.0, SVG Export Plug-In . SVG Version: 6.00 Build 0)  -->
<svg version="1.1" id="Layer_1" xmlns="http://www.w3.org/2000/svg" xmlns:xlink="http://www.w3.org/1999/xlink" x="0px" y="0px"
	 viewBox="0 0 612 612" style="enable-background:new 0 0 612 612;" xml:space="preserve">
<style type="text/css">
	.st0{fill:none;stroke:#000000;stroke-width:15;stroke-linecap:round;stroke-linejoin:round;stroke-miterlimit:10;}
</style>
<g>
	<path class="st0" d="M416.2,504.3v-18.4c0-4.7-1.8-9.4-5.4-13s-8.3-5.4-13-5.4H214.2c-4.7,0-9.4,1.8-13,5.4s-5.4,8.3-5.4,13v18.4"
		/>
	<line class="st0" x1="85.7" y1="504.3" x2="351.9" y2="504.3"/>
	<line class="st0" x1="370.3" y1="504.3" x2="526.3" y2="504.3"/>
	<path class="st0" d="M306,82c91.3,0,165.2,74,165.2,165.2s-74,165.2-165.2,165.2c-91.3,0-165.2-74-165.2-165.2"/>
	<g>
		<circle class="st0" cx="306" cy="247.3" r="128.5"/>
		<path class="st0" d="M351.4,292.7c-50.2,50.2-111.2,70.5-136.3,45.4s-4.8-86.1,45.4-136.3s111.2-70.5,136.3-45.4
			C422,181.5,401.6,242.5,351.4,292.7z"/>
		<line class="st0" x1="396.9" y1="156.4" x2="215.1" y2="338.1"/>
		<line class="st0" x1="396.9" y1="338.1" x2="215.1" y2="156.4"/>
	</g>
	<line class="st0" x1="443.7" y1="109.6" x2="425.3" y2="127.9"/>
	<line class="st0" x1="168.3" y1="385" x2="186.7" y2="366.6"/>
	<polyline class="st0" points="278.5,467.6 296.8,412.5 315.2,412.5 333.5,467.6 	"/>
</g>
</svg>
