<svg xmlns="http://www.w3.org/2000/svg" viewBox="0 0 397.46 127.24"><title>Asset 1</title><g id="250e3fad-24cc-4114-8554-f5a10a8a4a4a" data-name="Layer 2"><g id="5034f857-9d96-4ef5-a979-dc956698fae4" data-name="Layer 1"><path d="M104.78,105.37a.8.8,0,0,0-.69-.44h-.3a.8.8,0,0,0-.68.44l-9.55,20.52h0a.76.76,0,0,0,0,.72.77.77,0,0,0,.66.33H97.6a1.31,1.31,0,0,0,1.26-.84l1-2.33H108l1,2.3c.31.65.62.87,1.23.87h3.39a.75.75,0,0,0,.65-.33.76.76,0,0,0,0-.72Zm-2.87,13.89,2-4.45,2,4.45Z" fill="#fff"/><path d="M131.26,105.24H117.72a.76.76,0,0,0-.76.76v3.32a.76.76,0,0,0,.76.76h4.18v16.1a.79.79,0,0,0,.76.76h3.66a.78.78,0,0,0,.76-.76v-16.1h4.18a.76.76,0,0,0,.76-.76V106A.76.76,0,0,0,131.26,105.24Z" fill="#fff"/><path d="M164,105.24H151.36a.77.77,0,0,0-.77.76v20.18a.77.77,0,0,0,.77.76H164a.76.76,0,0,0,.76-.76v-3.32a.77.77,0,0,0-.76-.77h-8.27v-3.75h6.77a.76.76,0,0,0,.76-.76v-3.32a.77.77,0,0,0-.76-.76h-6.77v-3.42H164a.76.76,0,0,0,.76-.76V106A.76.76,0,0,0,164,105.24Z" fill="#fff"/><path d="M181.7,105.37a.8.8,0,0,0-.68-.44h-.31a.8.8,0,0,0-.68.44l-9.54,20.52h0a.71.71,0,0,0,0,.72.74.74,0,0,0,.65.33h3.35a1.34,1.34,0,0,0,1.27-.84l1-2.33h8.06l1.05,2.3c.31.65.62.87,1.23.87h3.39a.74.74,0,0,0,.65-.33.71.71,0,0,0,0-.72Zm-2.87,13.89,2-4.45,2.05,4.45Z" fill="#fff"/><path d="M204.44,113.63c-2.28-.92-3.21-1.73-3.21-2.79a1.59,1.59,0,0,1,1.74-1.37c1.55,0,3.43,1.25,4.05,1.66l.2.13a.59.59,0,0,0,.49.1,1.26,1.26,0,0,0,.81-.54l1.56-2.36a1,1,0,0,0-.23-1.21,11.42,11.42,0,0,0-6.64-2.32c-5,0-7.22,3.24-7.22,6.25,0,3.74,3.28,5.82,6,6.91,2.06.81,3,1.74,3,2.91a1.72,1.72,0,0,1-1.92,1.64,7.75,7.75,0,0,1-4.12-1.57l-.1-.07h0a1.06,1.06,0,0,0-.76-.13.8.8,0,0,0-.54.37l-1.43,2.53c-.3.52-.17.72.18,1.07s2.62,2.4,7,2.4c4.61,0,7.37-3.3,7.37-6.49C210.71,116.6,207.13,114.7,204.44,113.63Z" fill="#fff"/><path d="M231.11,105.24H217.58a.77.77,0,0,0-.77.76v3.32a.77.77,0,0,0,.77.76h4.17v16.1a.79.79,0,0,0,.76.76h3.66a.78.78,0,0,0,.76-.76v-16.1h4.18a.76.76,0,0,0,.76-.76V106A.76.76,0,0,0,231.11,105.24Z" fill="#fff"/><path d="M252.36,105.24H239.74a.76.76,0,0,0-.76.76v20.18a.76.76,0,0,0,.76.76h12.62a.76.76,0,0,0,.76-.76v-3.32a.77.77,0,0,0-.76-.77H244.1v-3.75h6.77a.76.76,0,0,0,.76-.76v-3.32a.77.77,0,0,0-.76-.76H244.1v-3.42h8.26a.76.76,0,0,0,.76-.76V106A.76.76,0,0,0,252.36,105.24Z" fill="#fff"/><path d="M277.88,112a6.8,6.8,0,0,0-6.82-6.76h-9.12a.76.76,0,0,0-.76.76v20.18a.76.76,0,0,0,.76.76h3.63a.79.79,0,0,0,.76-.76v-7.59h1.81l4,8a.75.75,0,0,0,.65.37h4.06a.74.74,0,0,0,.67-.36.82.82,0,0,0,0-.79l-4.09-7.57A6.84,6.84,0,0,0,277.88,112Zm-7.22,2.35h-4.33V110h4.33a2.16,2.16,0,0,1,2.13,2.13A2.25,2.25,0,0,1,270.66,114.35Z" fill="#fff"/><path d="M393.08,45.92c-21.76-18.52-47.23-4.65-65.44,10.26a10.27,10.27,0,0,0-1.28,1l-.38.36C320.55,62,315.69,66.45,311.53,70c-9.89,7.69-20.62,14.35-28.71,13.59-2.41-.23-4.24-2.22-3.62-7.64a30.1,30.1,0,0,1,3.93-12.24S286.68,66,289,66.27c10,1,25.86-10.35,28.05-21.93.9-5.37-4.8-12.53-9.77-13.13-7.84-1-19.61,3.3-28.67,11.37-2.13-6.29-4.12-14.8-5.15-19.39a20.23,20.23,0,0,0-.61-2.81c-.06-.28-.09-.45-.09-.45l0,0c-1.83-5.85-6-9.75-8.5-9.93-1.21-.09-2.29.57-2.69,2.55-3.89,29.09-37.08,62.49-36.69,62.7-.09,0,11.18-22.68,12.12-34.67C237.74,29.3,227,23,221.86,22.94a1.5,1.5,0,0,0-1.67,1.6c-.06,1.28,2.08,5.9,1.74,12.47-.75,14.57-4.16,25.25-6.59,33-8,7-16.48,12.62-21,12.68-1.11,0-2.21-.89-2.2-2.72,0-11.59,9.7-23.39,10-32.36.26-8.45-11.61-16.53-15.22-22.37,2.79-4.46,8.39-13,8.54-18.33.09-3.49-2.66-7-6.33-6.93-4.91,0-14.48,10.73-14.41,19.93,0,3.31,3.17,8.36,4.93,10.53,0,0-5.95,10-13.21,21-.55.85-1.06,1.6-1.43,2.23C155.48,66.44,141.78,82.94,130.65,84c-2.38.21-4.52-1.43-4.91-6.94a31.29,31.29,0,0,1,1.54-12.9s3.88,1.69,6.12,1.51c9.81-.87,23.09-15,23.08-27-.12-5.51-6.94-11.59-11.85-11.27-7.22.45-16.9,6-24.06,14.59A143.27,143.27,0,0,1,87.39,65.16c-3.9-6.47-10.16-11.1-11.78-18.68A36.23,36.23,0,0,1,75,42.19a137.59,137.59,0,0,0,15-7.6l1.24-.76c8.48-5.28,19-13.77,16.22-23.12-1.75-5.87-14.49-6.37-19.2-5.15-5.36.9-11.37,4.36-14.22,6.2C67.67,15.2,58.9,26.08,60.11,37.89,37.53,46-.56,66,0,91.77.08,98,5.27,101.86,7.15,102a.78.78,0,0,0,.85-.7,21.63,21.63,0,0,1-.5-3.66c-.43-26.7,35.87-44.82,54.69-51.47,2.29,6.4,5.52,12.43,7.42,20.94a61.84,61.84,0,0,1,1.08,6.31C65,76.31,59.94,79.45,55.54,83.86l-1,1c-6.77,6.77-13.9,17.43-9,26,3,5.19,12.34,3.44,16.35,1.54,11.46-5.09,31.57-23.07,28.38-40,0-.21-.1-.4-.15-.6,7.18-4,14.69-8.3,21.32-12.54a36.36,36.36,0,0,0-1.07,12.31c1.34,14.5,12.63,20.24,23.82,19.28,10.82-1,26.95-21.75,35.18-32.94a10.93,10.93,0,0,0,.92-1.26l.37-.56.69-1c.12-.19.21-.35.31-.53,8.31-12.66,13-20,13-20,4.46,3.22,5,3.41,5,5.79C189.51,49,173.83,59.8,174.13,75.1c.14,8.28,7.92,15.87,18.11,15.71,6-.09,13.22-4.88,20.52-10.72,0,.27-.06.55-.07.8-.21,6.77,4.05,10.47,6.78,10.52,1.68,0,2.89-1.07,12.16-11.37,7.2-8.2,29.37-30.46,39.44-44.6,1,3.31,2.46,8.15,3.46,11.5-3.49,5-9,14.53-9.64,20.88-1.35,14.32,8.86,22,20.22,23.1,10.78,1,30.15-15.5,40.65-24.94,17.37-13.8,47.8-30.51,66.45-16.81a25.53,25.53,0,0,1,4.2,4.18.52.52,0,0,0,.79-.06C397.85,52.63,397.53,49.74,393.08,45.92Zm-83.8-5.68c.59.07.9.66.78,1.38-1.23,4.73-18.86,17-23.74,16.53C297.92,43.22,307.16,40,309.28,40.24ZM99.55,15.44c-1.3,4.37-7.88,8.91-12.53,11.61-.83.48-5.18,2.31-11.35,5.15,1.4-5.29,8.29-19.14,18.12-21.09l1.07-.23C97.21,10.54,101.18,10.62,99.55,15.44ZM57.32,107.77c-1.42.69-6.42,2.85-6.1-3.18.07-4.57,5.31-9.94,8.59-13.79,1.58-1.86,5.65-4.65,11.13-8C69.88,96.5,62.75,103.94,57.32,107.77ZM148.25,36c.58,0,1,.49,1,1.23-.33,4.94-15.11,20.32-19.92,20.8C137.82,41.06,146.16,36.14,148.25,36Zm40.64-28.8c6.38.13-3.88,14.59-3.83,14.61C181.81,16.51,183.92,7.11,188.89,7.21Z" fill="#fff"/></g></g></svg>