<?xml version="1.0" encoding="utf-8"?>
<!-- Generator: Adobe Illustrator 22.1.0, SVG Export Plug-In . SVG Version: 6.00 Build 0)  -->
<svg version="1.1" id="Layer_1" xmlns="http://www.w3.org/2000/svg" xmlns:xlink="http://www.w3.org/1999/xlink" x="0px" y="0px"
	 viewBox="0 0 612 612" style="enable-background:new 0 0 612 612;" xml:space="preserve">
<style type="text/css">
	.st0{fill:none;stroke:#231F20;stroke-width:15;stroke-linejoin:round;stroke-miterlimit:10;}
	.st1{fill:none;stroke:#231F20;stroke-width:14;stroke-miterlimit:10;}
</style>
<path class="st0" d="M238.6,192.1c0,0-108.6,23.6-110.1,126.6c7.5,34.5,28,60,28,60l12.5,12l40.5,77h45v-37c0,0,37.5,8,84.5,1.5
	v35.5h45.5l30.5-55.5l81-40.5v-47c0,0-20.6-5.5-32.5-25.8c-1.4-16.2-4.6-29.4-17.9-49.8c-0.8-1.3-1.7-2.5-2.6-3.8"/>
<line class="st0" x1="252.5" y1="237.2" x2="343.2" y2="237.2"/>
<path class="st0" d="M88.3,263.2c0,0-3.3,42.8,35.2,47.4"/>
<path class="st0" d="M357,192.1c0,0,12.1,1.1,40.8,18.6"/>
<path class="st0" d="M387.4,214.8c0,0,31.2-41.7,80.2-7.7l-57.5,59"/>
<circle class="st0" cx="298.1" cy="164" r="39.1"/>
<circle class="st1" cx="414.1" cy="305.6" r="5"/>
<line class="st0" x1="437.6" y1="237.9" x2="445.6" y2="249.1"/>
</svg>
