<?xml version="1.0" encoding="utf-8"?>
<!-- Generator: Adobe Illustrator 22.1.0, SVG Export Plug-In . SVG Version: 6.00 Build 0)  -->
<svg version="1.1" id="Layer_1" xmlns="http://www.w3.org/2000/svg" xmlns:xlink="http://www.w3.org/1999/xlink" x="0px" y="0px"
	 viewBox="0 0 612 612" style="enable-background:new 0 0 612 612;" xml:space="preserve">
<style type="text/css">
	.st0{fill:none;stroke:#000000;stroke-width:15;stroke-miterlimit:10;}
	.st1{fill:none;stroke:#000000;stroke-width:15;stroke-linecap:round;stroke-miterlimit:10;}
</style>
<path class="st0" d="M295.4,61.6c-4.1-1.3-8.7-0.6-13.8,3.1c-5,3.7-8.5,9-11.9,14.2c-35.3,53.8-74.5,106.7-102.8,164.7
	c-24.5,50.1-41.7,112.2-27.2,167.9c14.7,56.4,60.7,104.8,117.3,119.6c53.7,14.1,119-2.4,157.3-43.4c116.6-124.6-18-296.4-95.7-401
	c-3.7-4.9-7.3-9.9-11-14.8C304,66.9,300,63,295.4,61.6z"/>
<path class="st1" d="M172.7,361.1c0,0-1.2,24.6,6.2,40.6"/>
<path class="st1" d="M194.9,438c0,0,35.8,61,103.4,65.3"/>
</svg>
