<?xml version="1.0" encoding="utf-8"?>
<!-- Generator: Adobe Illustrator 22.1.0, SVG Export Plug-In . SVG Version: 6.00 Build 0)  -->
<svg version="1.1" id="Layer_1" xmlns="http://www.w3.org/2000/svg" xmlns:xlink="http://www.w3.org/1999/xlink" x="0px" y="0px"
	 viewBox="0 0 360 360" style="enable-background:new 0 0 360 360;" xml:space="preserve">
<g>
	<path d="M182.2,240.5l-0.3-0.2l-0.3,0.2c-1.1,0.7-2.7,1.5-4.3,2.2l-69.2,30.4c-26.4,11.6-57.4-0.4-69-26.9L33.8,234
		c-11.6-26.4,0.4-57.4,26.9-69l69.2-30.4c26.4-11.6,57.4,0.4,69,26.9l5.4,12.2c6.2,14,5.8,30-0.9,43.9l-0.4,0.8l0.8,0.2
		c4,0.9,8.2,1,12.6,0.5l0.4-0.1l0.1-0.4c6.4-16.3,6.1-34.1-0.9-50.1l-5.4-12.2c-14.5-32.9-53-47.9-85.9-33.4l-69.2,30.4
		c-15.9,7-28.2,19.8-34.5,36c-6.3,16.2-6,33.9,1,49.8l5.4,12.2c10.7,24.4,34.7,39,59.8,38.9c8.7,0,17.6-1.8,26.1-5.5l69.2-30.4
		c4.5-2,8.8-4.6,13.1-7.8l1.1-0.8l-1.3-0.4C190.9,244.2,186.3,242.9,182.2,240.5z"/>
	<path d="M337.8,117.9l-5.4-12.2c-7-15.9-19.8-28.2-36-34.5c-16.2-6.3-33.9-6-49.8,1l-69.2,30.4c-5.1,2.3-10,5.2-14.4,8.7l-1.4,1.1
		l1.8,0.1c4.6,0.2,9.2,1.7,13.6,4.3l0.3,0.2l0.3-0.2c1.6-0.9,3.2-1.7,4.8-2.4L251.7,84c26.4-11.6,57.4,0.4,69,26.9L326,123
		c5.6,12.8,5.9,27,0.8,40c-5.1,13-14.9,23.3-27.7,28.9L230,222.4c-26.4,11.6-57.4-0.4-69-26.9l-5.4-12.2
		c-6.5-14.7-5.8-31.4,1.9-45.7l0.4-0.8l-0.9-0.2c-3.9-0.9-8-1.1-12.7-0.6l-0.4,0l-0.2,0.4c-7.2,16.6-7.2,35.6,0,52.1l5.4,12.2
		c10.7,24.4,34.7,39,59.8,38.9c8.7,0,17.6-1.8,26.1-5.5l69.2-30.4c15.9-7,28.2-19.8,34.5-36C345.1,151.5,344.8,133.8,337.8,117.9z"
		/>
</g>
</svg>
