<?xml version="1.0" encoding="utf-8"?>
<!-- Generator: Adobe Illustrator 22.1.0, SVG Export Plug-In . SVG Version: 6.00 Build 0)  -->
<svg version="1.1" id="Layer_1" xmlns="http://www.w3.org/2000/svg" xmlns:xlink="http://www.w3.org/1999/xlink" x="0px" y="0px"
	 viewBox="0 0 360 360" style="enable-background:new 0 0 360 360;" xml:space="preserve">
<path d="M325.9,149.3c-6.9-38.4-30.4-73.3-64.5-95.7c-34.2-22.4-75.6-30.1-113.6-21c-46.4,11-84,41.4-103,83.4
	c-19.1,42.2-17.2,90.8,5.3,133.3c2.8,5.3,3.5,13.2,1.7,19.3c-4,13.8-8.7,27.5-13.7,42.1l-0.1,0.2c-1.3,3.9-2.7,7.9-4.1,12l-0.3,0.9
	l0.9-0.3c4.1-1.4,8-2.7,11.9-4c14.9-5,28.9-9.8,43-14c2-0.6,4.3-0.9,6.7-0.9c4.2,0,8.4,0.9,11.5,2.6c23.7,12.4,47.6,18.5,72.5,18.5
	c7.5,0,15.1-0.6,22.7-1.6c38.9-5.6,73.3-26.5,96.7-58.9C323.9,231.6,333.2,190.5,325.9,149.3z M255.8,288.7
	c-23.6,16.2-48.6,24.4-74.3,24.4c-22.4,0-45.2-6.3-67.8-18.6c-6.5-3.6-12.1-5.2-17.8-5.2c-0.3,0-0.6,0-0.9,0
	c-5.8,0.2-11.2,2.6-16.4,5c-1.1,0.5-2.2,1-3.3,1.5c-7.2,3.1-14.6,5.5-22.3,7.3c1.4-3.9,3.1-7.7,4.8-11.3c3.9-8.3,7.5-16.2,7.7-26.2
	c0.2-14.2-5.1-27.8-10.2-39.5c-21.4-49.4-12-99.3,26.5-140.4c37.6-40.2,85.2-52.9,137.5-36.7c52.5,16.2,84.8,53.3,93.4,107.4
	C321.6,211.2,301.9,257,255.8,288.7z"/>
</svg>
