<?xml version="1.0" encoding="utf-8"?>
<!-- Generator: Adobe Illustrator 22.1.0, SVG Export Plug-In . SVG Version: 6.00 Build 0)  -->
<svg version="1.1" id="Layer_1" xmlns="http://www.w3.org/2000/svg" xmlns:xlink="http://www.w3.org/1999/xlink" x="0px" y="0px"
	 viewBox="0 0 612 612" style="enable-background:new 0 0 612 612;" xml:space="preserve">
<style type="text/css">
	.st0{fill:none;stroke:#000000;stroke-width:14;stroke-linejoin:round;stroke-miterlimit:10;}
</style>
<path class="st0" d="M299.8,153.7c-19.9-9.6-34.5-24-57.1-28.7c-27.8-5.7-61.6-0.5-82,20.6c-38.6,40-15.6,113.1,12.6,151.9
	c9.2,12.6,20.3,24.7,23.7,40c4.2,18.9,1.7,38.4,2.3,57.6c0.8,23.4,2.1,73.1,33.8,76.3c10.8,1.1,19.4-5.3,23.7-15.1
	c3.4-7.7,4.1-16.3,4.9-24.7c2.1-21.4,5.7-42.6,10.7-63.5c3.8-16,9.9-35.2,30.5-32.5"/>
<path class="st0" d="M292.8,335.5c20.6-2.7,26.7,16.5,30.5,32.5c5,20.9,8.5,42.1,10.7,63.5c0.8,8.4,1.5,17,4.9,24.7
	c4.3,9.8,12.9,16.2,23.7,15.1c31.6-3.2,33-52.8,33.8-76.3c0.6-19.2-1.9-38.7,2.3-57.6c3.4-15.3,14.5-27.4,23.7-40
	c28.2-38.8,51.2-111.9,12.6-151.9c-20.4-21.2-54.2-26.4-82-20.6c-19.5,4-36.4,16.8-53.2,26.8c-0.8,0.5-1.7,1-2.6,1.1
	c-3,0.5-5.3-2.3-7-4.8"/>
<path class="st0" d="M168.8,220.8c0,0-13.4-56,50.6-72.5"/>
</svg>
