<?xml version="1.0" encoding="utf-8"?>
<!-- Generator: Adobe Illustrator 22.1.0, SVG Export Plug-In . SVG Version: 6.00 Build 0)  -->
<svg version="1.1" id="Layer_1" xmlns="http://www.w3.org/2000/svg" xmlns:xlink="http://www.w3.org/1999/xlink" x="0px" y="0px"
	 viewBox="0 0 792 612" style="enable-background:new 0 0 792 612;" xml:space="preserve">
<path d="M397.6,371.3c1.5-1.8,2.5-3.4,3.8-4.7c52.4-52.4,104.8-104.9,157.2-157.3c7.7-7.7,16.4-8.5,23.4-2.1
	c6.5,5.9,7.1,15.3,1.4,22c-1.1,1.3-2.3,2.4-3.5,3.6C523,289.8,466.1,346.7,409.2,403.5c-10.1,10.1-17.6,10.1-27.7,0
	c-57.1-57.1-114.3-114.3-171.4-171.4c-4.1-4.1-7.3-8.4-6.6-14.4c0.7-6.7,4.4-11.4,10.7-13.8c6.3-2.4,11.8-0.6,16.5,4
	c16.2,15.8,32.4,31.7,48.5,47.6c38.1,37.3,76.1,74.7,114.2,112C394.5,368.6,395.6,369.5,397.6,371.3z"/>
</svg>
