<?xml version="1.0" encoding="utf-8"?>
<!-- Generator: Adobe Illustrator 23.0.0, SVG Export Plug-In . SVG Version: 6.00 Build 0)  -->
<svg version="1.1" id="Layer_1" xmlns="http://www.w3.org/2000/svg" xmlns:xlink="http://www.w3.org/1999/xlink" x="0px" y="0px"
	 viewBox="0 0 612 612" style="enable-background:new 0 0 612 612;" xml:space="preserve">
<style type="text/css">
	.st0{fill:none;stroke:#000000;stroke-width:15;stroke-linecap:round;stroke-linejoin:round;stroke-miterlimit:10;}
</style>
<g>
	<path class="st0" d="M285.2,424.2H170.8c-37.7,0-75.3-13.9-104-41.6c28.7-27.7,66.4-41.6,104-41.6h301.7l41.6-62.4h31.2
		l-20.8,145.7H399.6"/>
	<polygon class="st0" points="410,486.6 368.4,486.6 233.2,382.6 316.4,382.6 	"/>
	<polygon class="st0" points="410,236.9 368.4,236.9 233.2,341 316.4,341 	"/>
	<line class="st0" x1="358" y1="382.6" x2="378.8" y2="382.6"/>
	<line class="st0" x1="181.2" y1="382.6" x2="202" y2="382.6"/>
	<line class="st0" x1="399.6" y1="382.6" x2="420.4" y2="382.6"/>
	<line class="st0" x1="441.2" y1="382.6" x2="462.1" y2="382.6"/>
</g>
<g>
	<path class="st0" d="M264.4,277.2c-18-4.6-31.2-20.9-31.2-40.3s13.3-35.6,31.3-40.2c0-0.5-0.1-0.9-0.1-1.5
		c0-46,37.2-83.2,83.2-83.2c39.4,0,72.3,27.4,80.9,64.2h0.1c4.1-1,8.2-1.8,12.6-1.8c28.7,0,52,23.3,52,52s-23.3,52-52,52h-20.8"/>
	<path class="st0" d="M430.8,195.3c0-7.2-0.9-14.2-2.6-20.8"/>
</g>
<g>
	<path class="st0" d="M139.5,309.8h-31.2c-23,0-41.6-18.6-41.6-41.6c0-23,18.6-41.6,41.6-41.6c16.8,0,31.2,10,37.8,24.4
		c4.3-2.2,9.1-3.6,14.2-3.6c17.2,0,31.2,14,31.2,31.2c0,17.2-14,31.2-31.2,31.2"/>
	<path class="st0" d="M129.1,278.5c0-17.2,14-31.2,31.2-31.2"/>
</g>
</svg>
