<?xml version="1.0" encoding="utf-8"?>
<!-- Generator: Adobe Illustrator 24.0.1, SVG Export Plug-In . SVG Version: 6.00 Build 0)  -->
<svg version="1.1" id="Layer_1" xmlns="http://www.w3.org/2000/svg" xmlns:xlink="http://www.w3.org/1999/xlink" x="0px" y="0px"
	 viewBox="0 0 1200 1200" style="enable-background:new 0 0 1200 1200;" xml:space="preserve">
<style type="text/css">
	.st0{fill:#FFFFFF;}
</style>
<g id="Group_359" transform="translate(14.598 68.201)">
	<path id="Path_2811" class="st0" d="M200.9,757.8V637.7h56.2c21.3-0.8,39.3,15.8,40.1,37.1c0.8,21.3-15.8,39.3-37.1,40.1
		c-1,0-2,0-3,0h-30.7v42.7h-25.5V757.8z M271.3,676.5c0.1-8.9-7-16.1-15.9-16.2c-0.6,0-1.2,0-1.7,0.1h-27.3v32.3h27.1
		c9,0.8,16.9-5.8,17.7-14.7C271.3,677.5,271.3,677,271.3,676.5z"/>
	<path id="Path_2812" class="st0" d="M382.7,757.8l-7.3-20.4h-51.6l-7.5,20.4h-29.1l46.5-120.1h31.9l46.3,120.1H382.7z M349.5,663.4
		L330.7,715h37.6L349.5,663.4z"/>
	<path id="Path_2813" class="st0" d="M490.9,757.8l-23.7-42.7h-18.8v42.7h-25.5V637.7h56.2c20.5-1.7,38.5,13.6,40.1,34.2
		c0.1,1.5,0.2,3,0.1,4.5c1,16.7-10,31.7-26.3,35.6l27.1,45.7L490.9,757.8L490.9,757.8z M493.3,676.5c0-9-7.2-16.3-16.2-16.3
		c-0.6,0-1.2,0-1.8,0.1h-26.9v32.3h26.9c8.9,1,16.9-5.5,17.9-14.4C493.3,677.7,493.3,677.1,493.3,676.5L493.3,676.5z"/>
	<path id="Path_2814" class="st0" d="M564.7,757.8v-97.5h-35.2v-22.4h95.6v22.4h-34.9v97.5H564.7z"/>
	<path id="Path_2815" class="st0" d="M724.4,757.8l-57.2-78.2v78.2h-25.5V637.7H668l55.6,75.4v-75.4h25.5v120.1H724.4z"/>
	<path id="Path_2816" class="st0" d="M772.7,757.8V637.7h84.9v22.4h-59.5v25.3h58v22.4h-58V735h59.5v22.4h-85L772.7,757.8
		L772.7,757.8z"/>
	<path id="Path_2817" class="st0" d="M945.5,757.8l-23.7-42.7h-18.7v42.7h-25.5V637.7h56.2c20.5-1.7,38.5,13.6,40.1,34.2
		c0.1,1.5,0.2,3,0.1,4.5c1,16.7-10,31.7-26.3,35.6l27.1,45.7L945.5,757.8L945.5,757.8z M948,676.5c0-9-7.2-16.3-16.2-16.3
		c-0.6,0-1.2,0-1.8,0.1h-26.9v32.3H930c8.9,1,16.9-5.5,17.9-14.4C947.9,677.7,948,677.1,948,676.5z"/>
</g>
<g id="Group_360" transform="translate(13.784 33.126)">
	<path id="Path_2818" class="st0" d="M194.1,439.5l10.7-16.6c6.7,7.3,16.2,11.5,26.1,11.5c9.5,0,14.8-5.3,14.8-11.9
		c0-19-48.2-12.5-48.2-48.9c0-17,13.3-31.5,35.6-31.5c12-0.4,23.8,3.9,32.8,11.9l-10.3,16.2c-6.2-5.9-14.5-9.1-23-9.1
		c-6.1-0.8-11.7,3.5-12.4,9.6c-0.1,0.4-0.1,0.9-0.1,1.3c0,16.8,48.2,12.3,48.2,48.7c0,19-12.9,32.8-36.6,32.8
		C217.6,454,204.1,449,194.1,439.5z"/>
	<path id="Path_2819" class="st0" d="M278.8,397.4c0-31.9,16.8-55.8,44.9-55.8c28.3,0,45.1,23.9,45.1,55.8
		c0,32.1-16.8,55.8-45.1,55.8C295.6,453.2,278.8,429.8,278.8,397.4z M346.7,397.4c0-20.8-8.1-36.6-23-36.6
		c-14.8,0-22.7,15.8-22.7,36.6c0,20.6,7.9,36.6,22.7,36.6C338.6,434,346.7,418.1,346.7,397.4z"/>
	<path id="Path_2820" class="st0" d="M385.3,414.2v-70.8h21.8v70.8c0,12.7,6.5,19.8,18,19.8c11.3,0,17.8-7.1,17.8-19.8v-70.8h21.8
		v70.8c1.7,20-13.2,37.6-33.2,39.3c-2.2,0.2-4.3,0.2-6.5,0C400.7,453.2,385.3,439.1,385.3,414.2z"/>
	<path id="Path_2821" class="st0" d="M503.4,451.4v-88.7h-23.9v-19h69.6v19h-23.9v88.7L503.4,451.4z"/>
	<path id="Path_2822" class="st0" d="M621.1,451.4v-45.9h-35.8v45.9h-21.6v-108h21.6v42.9h35.8v-42.9h21.8v108H621.1z"/>
	<path id="Path_2823" class="st0" d="M663.5,451.4v-108h61.9v19h-40v24.4h39v19h-39v26.3h40v19h-61.9V451.4z"/>
	<path id="Path_2824" class="st0" d="M799.8,451.4l-5.1-19h-33.2l-5.1,19h-23.3l31.9-108h26.3l31.9,108H799.8z M778.1,366.3
		l-12.3,46.9h24.7L778.1,366.3z"/>
	<path id="Path_2825" class="st0" d="M826.5,439.5l10.7-16.6c6.7,7.3,16.2,11.5,26.1,11.5c9.5,0,14.8-5.3,14.8-11.9
		c0-19-48.2-12.5-48.2-48.9c0-17,13.3-31.5,35.6-31.5c12-0.3,23.8,3.9,32.8,11.9L888,370.2c-6.2-5.9-14.5-9.1-23-9.1
		c-6.1-0.8-11.7,3.5-12.4,9.6c-0.1,0.4-0.1,0.9-0.1,1.3c0,16.8,48.2,12.3,48.2,48.7c0,19-12.9,32.8-36.6,32.8
		C850,454,836.6,448.9,826.5,439.5z"/>
	<path id="Path_2826" class="st0" d="M931.6,451.4v-88.7h-23.9v-19h69.5v19h-23.9v88.7L931.6,451.4z"/>
</g>
<g id="Group_361" transform="translate(14.17 49.357)">
	<path id="Path_2827" class="st0" d="M311,611.5v-91.4l-36.9,91.4H262l-37-91.4v91.4h-27.7V480.9h39l31.7,78.8l31.7-78.8h39.4v130.6
		H311z"/>
	<path id="Path_2828" class="st0" d="M364.7,611.5V480.9h27.9v130.6H364.7z"/>
	<path id="Path_2829" class="st0" d="M409.6,593.1l15.2-21.2c10.9,11.2,25.8,17.6,41.4,17.6c15.4,0,22.7-7.1,22.7-14.6
		c0-23-75.2-7.3-75.2-56.4c0-21.8,18.8-39.8,49.5-39.8c18.7-0.7,37,5.8,51,18.2l-15.6,20.4c-10.5-9.3-24-14.4-38-14.4
		c-11.9,0-18.6,5.3-18.6,13.1c0,20.8,75,6.9,75,55.6c0,23.9-17,41.8-52.4,41.8C444.2,614.8,424.3,607.3,409.6,593.1z"/>
	<path id="Path_2830" class="st0" d="M527.3,593.1l15.2-21.2c10.9,11.2,25.8,17.6,41.4,17.6c15.4,0,22.7-7.1,22.7-14.6
		c0-23-75.2-7.3-75.2-56.4c0-21.8,18.8-39.8,49.5-39.8c18.7-0.7,37,5.8,51,18.2l-15.6,20.4c-10.5-9.3-24-14.4-38-14.4
		c-11.9,0-18.6,5.3-18.6,13.1c0,20.8,75,6.9,75,55.6c0,23.9-17,41.8-52.4,41.8C561.9,614.8,541.9,607.3,527.3,593.1z"/>
	<path id="Path_2831" class="st0" d="M653.6,611.5V480.9h27.9v130.6H653.6z"/>
	<path id="Path_2832" class="st0" d="M700.9,546.4c-0.4-37.7,29.8-68.5,67.5-68.9s68.5,29.8,68.9,67.5s-29.8,68.5-67.5,68.9
		c-0.3,0-0.5,0-0.8,0c-36.1,1.5-66.6-26.6-68.1-62.7C700.9,549.6,700.9,548,700.9,546.4z M808.9,546.4c1.7-21.9-14.6-41-36.4-42.7
		c-1.1-0.1-2.3-0.1-3.4-0.1c-24.1,0-39.7,18.4-39.7,42.9c0,24.3,15.6,42.9,39.7,42.9c22,0.1,39.9-17.7,39.9-39.7
		C809,548.5,809,547.4,808.9,546.4z"/>
	<path id="Path_2833" class="st0" d="M947.2,611.5l-62.3-85.1v85.1H857V480.9h28.5l60.4,82.1v-82.1h27.9v130.6H947.2z"/>
</g>
</svg>
