<?xml version="1.0" encoding="utf-8"?>
<!-- Generator: Adobe Illustrator 23.0.1, SVG Export Plug-In . SVG Version: 6.00 Build 0)  -->
<svg version="1.1" id="Layer_1" xmlns="http://www.w3.org/2000/svg" xmlns:xlink="http://www.w3.org/1999/xlink" x="0px" y="0px"
	 viewBox="0 0 612 612" style="enable-background:new 0 0 612 612;" xml:space="preserve">
<style type="text/css">
	.st0{fill:none;stroke:#000000;stroke-width:15;stroke-linecap:round;stroke-linejoin:round;stroke-miterlimit:10;}
</style>
<path class="st0" d="M278.2,412.5c31.2,0.8,54.1,0.6,69.7-0.5c9.7-0.7,18.8-1.7,29.5-5.3c3.4-1.1,16.5-5.7,31.1-16.3
	c11.6-8.5,18.6-16.8,20.1-18.6c3-3.7,10.7-13.4,16.7-28c4.8-11.8,6.8-22.5,7.6-30.7c0.6-5.7,1.5-16.2-1.1-29.5
	c-2.7-13.5-7.7-23-10.6-28.4c-8.9-16.5-19.8-26.8-24.6-31.1c-6.1-5.3-16-13.9-31.4-19.3c-10.3-3.6-18.8-4.3-31.1-5.3
	c-8.9-0.7-15.7-0.6-29.2-0.4c-10.4,0.2-19.1,0.6-28.4,1.1c-9.2,0.5-15.9,1-18.2,1.1c-6.9,0.5-13.1,1-18.2,1.5"/>
<polyline class="st0" points="306.8,159.4 258.5,204 305.7,236.5 "/>
<line class="st0" x1="177.8" y1="412.8" x2="234.3" y2="412.8"/>
<line class="st0" x1="253.8" y1="412.8" x2="256.4" y2="412.8"/>
<circle class="st0" cx="306" cy="306" r="239.8"/>
</svg>
