<svg width="200" height="40" viewBox="0 0 200 40" fill="none" xmlns="http://www.w3.org/2000/svg">
<path d="M9.41309 34.3776C8.84486 34.9832 8.28411 35.3869 7.38692 35.3869C6.01869 35.3869 5.13271 34.2767 5.13271 32.5608V32.501C5.13271 30.8262 6.03738 29.7047 7.38692 29.7047C8.11963 29.7047 8.73645 30.0112 9.33084 30.6654L9.36449 30.7028L11.2972 28.815L11.2673 28.7813C10.243 27.6748 8.96075 27.1365 7.33832 27.1365C4.23178 27.1365 2.05981 29.3309 2.05981 32.4711V32.6505C2.05981 35.7757 4.18318 37.9552 7.22243 37.9552C8.90841 37.9552 10.2467 37.3683 11.3122 36.1608L11.3421 36.1271L9.43925 34.344L9.41309 34.3776Z" fill="white"/>
<path d="M21.5663 31.2522H18.4598V27.312H15.4691V37.7756H18.4598V33.7756H21.5663V37.7756H24.5757V27.312H21.5663V31.2522Z" fill="white"/>
<path d="M38.172 30.9121V30.8373C38.172 29.8093 37.8355 28.9831 37.1738 28.3738C36.4336 27.6784 35.2523 27.3083 33.7607 27.3083H29.2935V37.7719H32.2692V34.5569H33.2262L35.129 37.7495L35.1439 37.7719H38.5196L36.1869 33.9812C37.5028 33.3607 38.172 32.3252 38.172 30.9121ZM32.2654 29.7308H33.6336C34.6206 29.7308 35.1626 30.1869 35.1626 31.0168V31.0467C35.1626 31.8616 34.5981 32.3476 33.6486 32.3476H32.2617V29.7308H32.2654Z" fill="white"/>
<path d="M45.5776 27.312H42.5869V37.7756H45.5776V27.312Z" fill="white"/>
<path d="M54.8299 31.342C53.4355 30.8673 53.0766 30.6318 53.0766 30.2018V30.1869C53.0766 29.8018 53.4616 29.5514 54.0598 29.5514C54.8785 29.5514 55.8018 29.8841 56.6542 30.4897L56.6915 30.5159L58.1831 28.4934L58.2093 28.4561L58.1719 28.4299C57.0243 27.5776 55.7009 27.1626 54.1196 27.1626C51.6859 27.1626 50.0486 28.4673 50.0486 30.4112V30.4561C50.0486 32.4486 51.7757 33.1551 53.7009 33.7607C55.0841 34.2093 55.3271 34.4598 55.3271 34.8112V34.8261C55.3271 35.271 54.9046 35.5364 54.1981 35.5364C53.2037 35.5364 52.1831 35.1476 51.1701 34.3738L51.1327 34.3476L49.5588 36.3252L49.5289 36.3626L49.5663 36.3925C50.8261 37.3981 52.4224 37.929 54.1831 37.929C56.7028 37.929 58.3327 36.6318 58.3327 34.6243V34.5944C58.3364 32.7626 56.9345 31.9701 54.8299 31.342Z" fill="white"/>
<path d="M61.8168 29.8055H64.6018V37.7756H67.5925V29.8055H70.3738V27.312H61.8168V29.8055Z" fill="white"/>
<path d="M77.6336 27.312H74.6429V37.7756H77.6336V27.312Z" fill="white"/>
<path d="M88.628 27.2522H85.6336L81.6635 37.712L81.6411 37.7756H84.7177L85.3607 35.9101H88.8336L89.4916 37.7756H92.6355L88.6355 27.2821L88.628 27.2522ZM88.0785 33.6821H86.1159L87.0953 30.8335L88.0785 33.6821Z" fill="white"/>
<path d="M103.032 32.426L99.3681 27.3307L99.3532 27.312H96.5607V37.7756H99.5027V32.4372L103.327 37.7756H105.974V27.312H103.032V32.426Z" fill="white"/>
<path d="M124.706 34.3775C124.138 34.9831 123.577 35.3869 122.68 35.3869C121.312 35.3869 120.426 34.2766 120.426 32.5607V32.5009C120.426 30.8261 121.331 29.7046 122.68 29.7046C123.413 29.7046 124.03 30.0112 124.624 30.6654L124.658 30.7028L126.561 28.8485L126.594 28.8186L126.564 28.785C125.54 27.6785 124.258 27.1401 122.635 27.1401C119.529 27.1401 117.357 29.3345 117.357 32.4747V32.6542C117.357 35.7794 119.48 37.9588 122.52 37.9588C124.206 37.9588 125.544 37.3719 126.609 36.1644L126.639 36.1308L124.736 34.3476L124.706 34.3775Z" fill="white"/>
<path d="M136.86 31.2522H133.749V27.312H130.759V37.7756H133.749V33.7756H136.86V37.7756H139.865V27.312H136.86V31.2522Z" fill="white"/>
<path d="M150.699 33.6971C150.699 34.841 150.142 35.4429 149.088 35.4429C148.049 35.4429 147.477 34.8073 147.477 33.6522V27.312H144.471V33.626C144.471 36.4186 146.105 37.955 149.073 37.955C152.071 37.955 153.723 36.4036 153.723 33.5812V27.312H150.703V33.6971H150.699Z" fill="white"/>
<path d="M167.226 30.9121V30.8373C167.226 29.813 166.89 28.9831 166.228 28.3738C165.488 27.6784 164.306 27.3083 162.815 27.3083H158.344V37.7719H161.32V34.5569H162.277L164.191 37.7719H167.566L165.234 33.985C166.553 33.3607 167.226 32.3252 167.226 30.9121ZM164.217 31.0168V31.0467C164.217 31.8616 163.652 32.3476 162.703 32.3476H161.316V29.7308H162.684C163.675 29.7308 164.217 30.1869 164.217 31.0168Z" fill="white"/>
<path d="M178.617 34.3775C178.049 34.9831 177.488 35.3869 176.591 35.3869C175.222 35.3869 174.336 34.2766 174.336 32.5607V32.5009C174.336 30.8261 175.241 29.7046 176.591 29.7046C177.323 29.7046 177.94 30.0112 178.535 30.6654L178.568 30.7028L180.471 28.8485L180.505 28.8186L180.475 28.785C179.45 27.6785 178.168 27.1401 176.546 27.1401C173.439 27.1401 171.267 29.3345 171.267 32.4747V32.6542C171.267 35.7794 173.391 37.9588 176.43 37.9588C178.116 37.9588 179.454 37.3719 180.52 36.1644L180.55 36.1308L178.647 34.3476L178.617 34.3775Z" fill="white"/>
<path d="M190.774 27.312V31.2522H187.664V27.312H184.673V37.7756H187.664V33.7756H190.774V37.7756H193.779V27.312H190.774Z" fill="white"/>
<path d="M1.10657 20.299L4.31031 16.3962C6.21311 17.7943 8.38133 18.7476 10.6468 18.7476C12.2468 18.7476 13.0804 18.1233 13.0804 17.2298V17.1999C13.0804 16.3662 12.3813 15.8578 9.64489 14.9943C5.24488 13.656 2.14208 12.2279 2.14208 8.44475V8.35503C2.14208 4.57185 5.37947 1.92139 10.4823 1.92139C13.6187 1.92139 16.3851 2.69522 18.8225 4.45223L15.7869 8.44475C14.1869 7.34195 12.2505 6.53821 10.3514 6.53821C8.9832 6.53821 8.21685 7.1326 8.21685 7.90643V7.93634C8.21685 8.8597 8.94956 9.33447 11.9178 10.3176C16.3552 11.5999 19.1215 13.2074 19.1215 16.7513V16.8111C19.1215 20.8597 15.6187 23.3644 10.6168 23.3644C7.14395 23.3644 3.84302 22.4111 1.10657 20.299Z" fill="white"/>
<path d="M22.6841 12.8823V12.4337C22.6841 6.20936 27.2523 1.83179 33.5252 1.83179C39.828 1.83179 44.3327 6.14954 44.3327 12.4037V12.8523C44.3327 19.0766 39.7645 23.4542 33.4916 23.4542C27.1888 23.4542 22.6841 19.1365 22.6841 12.8823ZM38.1944 12.8224V12.4935C38.1944 8.88973 36.2579 6.68412 33.4916 6.68412C30.7215 6.68412 28.8224 8.85982 28.8224 12.4636V12.7925C28.8224 16.3963 30.7588 18.6019 33.5252 18.6019C36.3252 18.6019 38.1944 16.4262 38.1944 12.8224Z" fill="white"/>
<path d="M48.5532 14.8186V2.22046H54.5906V14.8784C54.5906 17.3793 55.9588 18.5719 58.0261 18.5719C60.1271 18.5719 61.4616 17.4392 61.4616 14.9681V2.22046H67.5327V14.7289C67.5327 20.7737 63.6971 23.4242 57.9925 23.4242C52.2878 23.4242 48.5532 20.7438 48.5532 14.8186Z" fill="white"/>
<path d="M77.1588 7.04289H71.3868V2.22046H88.9308V7.04663H83.1588V23.0691H77.1588V7.04289Z" fill="white"/>
<path d="M92.9982 2.22046H99.0019V10.142H105.641V2.22046H111.679V23.0691H105.641V15.0279H99.0019V23.0691H92.9982V2.22046Z" fill="white"/>
<path d="M116.789 2.22046H132.867V6.927H122.725V10.3513H131.865V14.7887H122.725V18.3625H132.998V23.0691H116.785V2.22046H116.789Z" fill="white"/>
<path d="M144.06 2.10083H150.131L158.37 23.0691H152.067L150.699 19.3158H143.361L142.026 23.0691H135.854L144.06 2.10083ZM149.196 15.0279L147.028 8.92326L144.86 15.0279H149.196Z" fill="white"/>
<path d="M160.161 20.299L163.365 16.3962C165.267 17.7944 167.436 18.7476 169.701 18.7476C171.301 18.7476 172.135 18.1233 172.135 17.2299V17.2C172.135 16.3663 171.436 15.8579 168.699 14.9944C164.295 13.6523 161.193 12.2243 161.193 8.44109V8.35137C161.193 4.56819 164.43 1.91772 169.533 1.91772C172.669 1.91772 175.436 2.69156 177.873 4.44857L174.837 8.44109C173.237 7.33829 171.301 6.53455 169.402 6.53455C168.034 6.53455 167.267 7.12894 167.267 7.90277V7.93268C167.267 8.85604 168 9.33081 170.968 10.314C175.406 11.5962 178.172 13.2037 178.172 16.7476V16.8074C178.172 20.856 174.669 23.3607 169.667 23.3607C166.198 23.3645 162.897 22.4112 160.161 20.299Z" fill="white"/>
<path d="M187.11 7.04289H181.338V2.22046H198.882V7.04663H193.11V23.0691H187.107V7.04289H187.11Z" fill="white"/>
</svg>
