<?xml version="1.0" encoding="utf-8"?>
<!-- Generator: Adobe Illustrator 24.0.1, SVG Export Plug-In . SVG Version: 6.00 Build 0)  -->
<svg version="1.1" id="Layer_1" xmlns="http://www.w3.org/2000/svg" xmlns:xlink="http://www.w3.org/1999/xlink" x="0px" y="0px"
	 viewBox="0 0 1200 1200" style="enable-background:new 0 0 1200 1200;" xml:space="preserve">
<style type="text/css">
	.st0{fill:#FFFFFF;}
</style>
<g id="Group_360_1_" transform="translate(13.784 33.126)">
	<path id="Path_2818_1_" class="st0" d="M199.2,445l10.7-16.5c6.7,7.3,16.1,11.5,26,11.5c9.5,0,14.7-5.2,14.7-11.9
		c0-18.9-47.9-12.5-47.9-48.7c0-16.9,13.3-31.4,35.4-31.4c12-0.4,23.7,3.9,32.6,11.9L260.3,376c-6.2-5.8-14.4-9.1-22.9-9.1
		c-6.1-0.8-11.6,3.5-12.4,9.5c-0.1,0.4-0.1,0.9-0.1,1.3c0,16.7,47.9,12.3,47.9,48.5c0,18.9-12.9,32.6-36.4,32.6
		C222.6,459.5,209.2,454.5,199.2,445z"/>
	<path id="Path_2819_1_" class="st0" d="M283.5,403.2c0-31.8,16.7-55.5,44.7-55.5c28.2,0,44.9,23.7,44.9,55.5
		c0,32-16.7,55.5-44.9,55.5C300.2,458.7,283.5,435.4,283.5,403.2z M351.1,403.2c0-20.7-8.1-36.4-22.9-36.4
		c-14.7,0-22.6,15.7-22.6,36.4c0,20.5,7.8,36.4,22.6,36.4C343,439.6,351.1,423.7,351.1,403.2z"/>
	<path id="Path_2820_1_" class="st0" d="M389.5,419.9v-70.4h21.7v70.4c0,12.7,6.4,19.7,17.9,19.7c11.3,0,17.7-7,17.7-19.7v-70.4
		h21.7v70.4c1.7,19.9-13.1,37.4-33,39.1c-2.1,0.2-4.3,0.2-6.5,0C404.8,458.7,389.5,444.6,389.5,419.9z"/>
	<path id="Path_2821_1_" class="st0" d="M507,456.9v-88.3h-23.7v-18.9h69.2v18.9h-23.7v88.3L507,456.9z"/>
	<path id="Path_2822_1_" class="st0" d="M624.2,456.9v-45.7h-35.6v45.7H567V349.4h21.5v42.7h35.6v-42.7h21.7v107.5H624.2z"/>
	<path id="Path_2823_1_" class="st0" d="M666.4,456.9V349.4H728v18.9h-39.8v24.3H727v18.9h-38.8v26.2H728v18.9h-61.6V456.9z"/>
	<path id="Path_2824_1_" class="st0" d="M802,456.9l-5-18.9h-33l-5,18.9h-23.3l31.8-107.5h26.2l31.8,107.5H802z M780.5,372.2
		l-12.3,46.7h24.5L780.5,372.2z"/>
	<path id="Path_2825_1_" class="st0" d="M828.6,445l10.7-16.5c6.7,7.3,16.1,11.5,26,11.5c9.5,0,14.7-5.2,14.7-11.9
		c0-18.9-47.9-12.5-47.9-48.7c0-16.9,13.3-31.4,35.4-31.4c12-0.3,23.6,3.9,32.6,11.9L889.7,376c-6.2-5.8-14.4-9.1-22.9-9.1
		c-6.1-0.8-11.6,3.5-12.4,9.5c-0.1,0.4-0.1,0.9-0.1,1.3c0,16.7,47.9,12.3,47.9,48.5c0,18.9-12.9,32.6-36.4,32.6
		C852.1,459.4,838.7,454.4,828.6,445z"/>
	<path id="Path_2826_1_" class="st0" d="M933.2,456.9v-88.3h-23.7v-18.9h69.2v18.9H955v88.3L933.2,456.9z"/>
</g>
<g>
	<path class="st0" d="M215.9,589.2c0-36.9,19.9-63.1,51.5-63.1c23.4,0,34.5,15.2,40.8,29.2l-20.3,9c-3.7-9.7-10.8-16.4-20.5-16.4
		c-16.4,0-26.3,17.4-26.3,41.3s9.9,41.3,26.3,41.3c10.1,0,17.2-7.7,20.7-17.7l20.3,8.8c-6,14.6-17.2,30.7-40.9,30.7
		C235.8,652.2,215.9,626.1,215.9,589.2z"/>
	<path class="st0" d="M387.7,650.1v-51.9h-40.4v51.9h-24.5v-122h24.5v48.4h40.4v-48.4h24.7V650L387.7,650.1L387.7,650.1z"/>
	<path class="st0" d="M490.3,650.1l-18.6-44h-13.2v44H434v-122h45.5c22.3,0,37.1,16.1,37.1,38.6c0,21-11.1,31.6-21.2,34.9l22.1,48.4
		L490.3,650.1L490.3,650.1z M491.5,567.1c0-10.6-6.2-17.4-15.7-17.4h-17.4v34.7h17.4C485.3,584.4,491.5,577.7,491.5,567.1z"/>
	<path class="st0" d="M534.7,650.1v-122h24.5V650L534.7,650.1L534.7,650.1z"/>
	<path class="st0" d="M572.9,636.5l12.1-18.8c6.8,7.5,17.4,13,29.4,13c10.8,0,16.6-6,16.6-13.5c0-21.4-54.5-14.1-54.5-55.4
		c0-19.2,15-35.6,40.2-35.6c14.8,0,27.6,4.8,36.9,13.5L641.9,558c-7.3-6.9-16.6-10.2-26.1-10.2c-8.8,0-14.3,4.9-14.3,12.4
		c0,19,54.3,13.9,54.3,55c0,21.4-14.6,37.1-41.3,37.1C596.1,652.2,582.5,646.2,572.9,636.5z"/>
	<path class="st0" d="M689.8,650.1V549.7h-27v-21.6h78.6v21.6h-27.1V650L689.8,650.1L689.8,650.1z"/>
	<path class="st0" d="M756,650.1v-122h24.5V650L756,650.1L756,650.1z"/>
	<path class="st0" d="M866.2,650.1l-5.7-21.6H823l-5.7,21.6h-26.5L827,528.2h29.6l36.2,121.9H866.2z M841.9,553.9l-13.9,53h27.8
		L841.9,553.9z"/>
	<path class="st0" d="M969.3,650.1l-41.5-72v72h-24.5v-122h24.9l39.8,69.5v-69.5h24.7V650L969.3,650.1L969.3,650.1z"/>
</g>
<g>
	<path class="st0" d="M314.7,823.3v-87.9l-30.5,87.9h-10.8l-30.3-87.9v87.9h-27.4V687h36.8l26.4,76l26.6-76h36.6v136.3H314.7z"/>
	<path class="st0" d="M366,823.3V687h27.4v136.3H366z"/>
	<path class="st0" d="M491.3,823.3l-46.4-80.5v80.5h-27.4V687h27.8l44.6,77.7V687h27.6v136.3H491.3z"/>
	<path class="st0" d="M541.4,823.3V687h27.4v136.3H541.4z"/>
	<path class="st0" d="M584.1,808.2l13.5-21.1c7.6,8.4,19.4,14.5,32.9,14.5c12.1,0,18.6-6.7,18.6-15.1c0-23.9-60.9-15.7-60.9-61.9
		c0-21.5,16.8-39.9,45-39.9c16.6,0,30.9,5.3,41.3,15.1l-13.1,20.4c-8.2-7.8-18.6-11.4-29.2-11.4c-9.8,0-15.9,5.5-15.9,13.9
		c0,21.3,60.7,15.5,60.7,61.5c0,23.9-16.4,41.5-46.2,41.5C610,825.8,594.9,819,584.1,808.2z"/>
	<path class="st0" d="M714.9,823.3V711.1h-30.3V687h87.9v24.1h-30.3v112.2H714.9z"/>
	<path class="st0" d="M851.8,823.3L831,774h-14.7v49.3h-27.4V687h50.9c24.9,0,41.5,18,41.5,43.1c0,23.5-12.5,35.4-23.7,39l24.7,54.2
		H851.8z M853.3,730.5c0-11.9-6.9-19.4-17.6-19.4h-19.4v38.8h19.4C846.3,749.9,853.3,742.4,853.3,730.5z"/>
	<path class="st0" d="M927.6,823.3v-56.2L885.5,687h30.3l25.5,54.8l25.5-54.8h30.3L955,767.1v56.2H927.6z"/>
</g>
</svg>
