<?xml version="1.0" encoding="utf-8"?>
<!-- Generator: Adobe Illustrator 22.1.0, SVG Export Plug-In . SVG Version: 6.00 Build 0)  -->
<svg version="1.1" id="Layer_1" xmlns="http://www.w3.org/2000/svg" xmlns:xlink="http://www.w3.org/1999/xlink" x="0px" y="0px"
	 viewBox="0 0 612 612" style="enable-background:new 0 0 612 612;" xml:space="preserve">
<style type="text/css">
	.st0{fill:none;stroke:#000000;stroke-width:14;stroke-linejoin:round;stroke-miterlimit:10;}
</style>
<polyline class="st0" points="347.6,360 123.5,360 123.5,214.8 389.9,214.8 390.7,310.1 "/>
<path class="st0" d="M211,244.7h-38.1c0,0,0.9,14.6-18.7,19.7v46c0,0,19.2,3.4,18.7,18.7l38.1,0"/>
<path class="st0" d="M303.5,329.1h38.1c0,0-0.9-14.6,18.7-19.7v-46c0,0-19.2-3.4-18.7-18.7l-38.1,0"/>
<ellipse class="st0" cx="257.1" cy="287.1" rx="35.5" ry="42.2"/>
<polyline class="st0" points="147.4,183.5 420.6,183.5 421.3,305.7 "/>
<polyline class="st0" points="451.9,307.6 451.9,153.1 178.1,152.8 "/>
<path class="st0" d="M364.8,348.8v96.1c0,0,6.2,22.2,58.2,22.2s58.4-22.2,58.4-22.2v-96.1c0,0-3.7-24.2-58.2-24.2
	S364.8,348.8,364.8,348.8z"/>
<path class="st0" d="M364.8,385.8c0,0,19,19.6,58.2,19.2c39.2-0.4,58.4-17.4,58.4-17.4"/>
<path class="st0" d="M364.8,354.4c0,0,19,19.6,58.2,19.2c39.2-0.4,58.4-17.4,58.4-17.4"/>
<path class="st0" d="M364.9,416.3c0,0,19,19.6,58.2,19.2c39.2-0.4,58.4-17.4,58.4-17.4"/>
</svg>
