<?xml version="1.0" encoding="utf-8"?>
<!-- Generator: Adobe Illustrator 22.1.0, SVG Export Plug-In . SVG Version: 6.00 Build 0)  -->
<svg version="1.1" id="Layer_1" xmlns="http://www.w3.org/2000/svg" xmlns:xlink="http://www.w3.org/1999/xlink" x="0px" y="0px"
	 viewBox="0 0 612 612" style="enable-background:new 0 0 612 612;" xml:space="preserve">
<style type="text/css">
	.st0{fill:#231F20;}
</style>
<g>
	<path class="st0" d="M305.7,59C305.7,59,305.7,59,305.7,59c-0.1,0-0.1,0-0.1,0c-137,0-248.5,111.5-248.5,248.5
		c0,137,111.5,248.5,248.5,248.5c0,0,0,0,0.1,0s0,0,0.1,0c137,0,248.5-111.5,248.5-248.5C554.2,170.5,442.7,59,305.7,59z
		 M82.5,307.5c0-123.1,100.1-223.2,223.2-223.2c123.1,0,223.2,100.2,223.2,223.2c0,123.1-100.1,223.2-223.2,223.2
		C182.6,530.7,82.5,430.6,82.5,307.5z"/>
	<path class="st0" d="M215.4,265.6c-3.2-2.3-6.6-4.2-10.3-5.6c-3.7-1.4-7.1-2.8-10.3-4c-3.2-1.2-5.8-2.5-7.9-3.8
		c-2.1-1.3-3.2-3.1-3.2-5.2c0-2.2,0.8-4,2.4-5.3c1.6-1.3,3.9-2,7-2c3.7,0,7.3,0.6,11,1.9c3.6,1.3,7,3.3,10.1,6.1l10.7-17.7
		c-4-3.6-8.7-6.3-13.9-8.1c-5.2-1.9-10.9-2.8-17.1-2.8c-5.5,0-10.3,0.8-14.6,2.4c-4.2,1.6-7.8,3.8-10.6,6.6c-2.8,2.7-5,5.9-6.5,9.4
		c-1.5,3.6-2.2,7.3-2.2,11.1c0,5.6,1.1,10.1,3.2,13.7c2.1,3.6,4.8,6.5,7.9,8.8c3.2,2.3,6.6,4.1,10.4,5.5c3.7,1.3,7.2,2.6,10.4,3.8
		c3.2,1.2,5.8,2.5,7.9,3.9c2.1,1.4,3.2,3.2,3.2,5.5c0,2.3-1,4.2-2.9,5.8c-1.9,1.5-4.7,2.3-8.4,2.3c-4.8,0-9.2-0.9-13.3-2.8
		c-4.1-1.9-7.5-4.3-10.3-7.4L157,305.8c4,4,8.9,7.2,14.6,9.4c5.7,2.2,12.4,3.3,20.3,3.3c5.5,0,10.3-0.7,14.6-2.2
		c4.3-1.5,7.9-3.6,10.9-6.3c3-2.7,5.2-6,6.8-9.7c1.5-3.7,2.3-7.9,2.3-12.4c0-5.4-1.1-9.8-3.2-13.4
		C221.2,270.8,218.6,267.9,215.4,265.6z"/>
	<polygon class="st0" points="274.5,316.8 274.5,241 295.2,241 295.2,220.7 230.4,220.7 230.4,241 251.1,241 251.1,316.8 	"/>
	<polygon class="st0" points="305.7,316.8 363.8,316.8 363.8,296.4 329.1,296.4 329.1,278.1 362.8,278.1 362.8,257.8 329.1,257.8 
		329.1,241 363.8,241 363.8,220.7 305.7,220.7 	"/>
	<path class="st0" d="M438.9,230.2c-2.6-2.9-5.9-5.2-9.9-6.9c-3.9-1.7-8.5-2.6-13.8-2.6h-38.6v96.1h23.3v-33h15.3
		c5.3,0,9.9-0.8,13.8-2.5c3.9-1.7,7.2-4,9.9-6.8s4.6-6.2,6-10c1.3-3.8,2-7.8,2-12c0-4.2-0.7-8.3-2-12.1
		C443.5,236.4,441.5,233,438.9,230.2z M420.1,260.5c-2,2-4.6,3-7.8,3h-12.4V241h12.4c3.2,0,5.8,1,7.8,3c2,2,3,4.8,3,8.2
		C423.1,255.8,422.1,258.5,420.1,260.5z"/>
	<path class="st0" d="M322.2,418.5c3.9-4.1,7.2-7.9,9.7-11.5c2.5-3.6,4.4-7,5.6-10.2c1.2-3.2,1.8-6.6,1.8-10.1
		c0-4.6-0.8-8.7-2.5-12.4c-1.6-3.7-4-6.8-7-9.4c-3-2.6-6.6-4.6-10.8-6.1c-4.2-1.4-8.8-2.1-13.7-2.1c-6.8,0-13.1,1.3-18.9,3.9
		c-5.8,2.6-10.8,6.5-15.1,11.7l13.4,14.4c2.7-3.1,5.7-5.5,9-7.3c3.3-1.7,7-2.6,11.1-2.6c3.3,0,6,0.9,8.2,2.7
		c2.2,1.8,3.2,4.2,3.2,7.3c0,2.3-0.5,4.6-1.5,6.8c-1,2.2-3,5-6,8.2c-3,3.3-7.3,7.4-12.7,12.5c-5.5,5-12.7,11.5-21.8,19.4v18.3h65.6
		v-19.9h-32C313.5,427.2,318.2,422.6,322.2,418.5z"/>
</g>
</svg>
