<?xml version="1.0" encoding="utf-8"?>
<!-- Generator: Adobe Illustrator 23.0.0, SVG Export Plug-In . SVG Version: 6.00 Build 0)  -->
<svg version="1.1" id="Layer_1" xmlns="http://www.w3.org/2000/svg" xmlns:xlink="http://www.w3.org/1999/xlink" x="0px" y="0px"
	 viewBox="0 0 612 612" style="enable-background:new 0 0 612 612;" xml:space="preserve">
<style type="text/css">
	.st0{fill:none;stroke:#000000;stroke-width:15;stroke-linecap:round;stroke-linejoin:round;stroke-miterlimit:10;}
</style>
<g>
	<g>
		<line class="st0" x1="278.2" y1="228" x2="307.2" y2="228"/>
		<line class="st0" x1="292.7" y1="228" x2="292.7" y2="261.5"/>
		<line class="st0" x1="261.4" y1="184.5" x2="261.4" y2="193.2"/>
		<line class="st0" x1="325.5" y1="184.5" x2="325.5" y2="193.2"/>
	</g>
	<path class="st0" d="M432.3,136c0-20.3-16.4-36.8-36.7-36.8c-18.1,0-32.4,13.3-35.5,30.5c-19.1-12.5-42.6-20.2-68.4-20.2
		c-24.4,0-46.9,6.8-65.4,18.1c-3.9-16.1-17.7-28.4-35.1-28.4c-20.3,0-36.7,16.5-36.7,36.8c0,18.5,13.9,33.2,31.7,35.8
		c-5,11-8,22.9-8,35.4c0,53.9,50.8,97.6,113.4,97.6c62.6,0,113.4-43.7,113.4-97.6c0-12.3-2.9-23.9-7.7-34.8
		C416.8,171.4,432.3,155.7,432.3,136z"/>
	<path class="st0" d="M240.4,424.5c8.8,32.7-4.8,64.8-30.3,71.6c-25.5,6.9-53.2-14.1-62-46.9c-8.8-32.7,4.8-64.7,30.3-71.5
		C204,370.8,231.7,391.8,240.4,424.5z M346.4,424.5c-8.8,32.7,4.8,64.8,30.3,71.6c25.5,6.9,53.2-14.1,62-46.9
		c8.8-32.7-4.8-64.7-30.3-71.5C382.9,370.8,355.1,391.8,346.4,424.5z"/>
	<path class="st0" d="M472.7,310.2c-1.7-1.4-32.9-25.6-95.8-38.6c-20.8,20.4-51.3,33.2-85.2,33.2c-33.6,0-63.8-12.6-84.6-32.6
		c-61,13.1-91.3,36.6-93,38c-13.3,10.5-15.5,29.7-5.1,43.1c10.4,13.5,29.8,15.9,43.3,5.7c0.3-0.2,15.2-11.2,45.8-20.5v39.2
		c18.8,4.7,35.8,22.5,42.3,46.9c4.4,16.2,3.2,32.3-2.2,45.2c16.5,12.3,36.9,19.6,59,19.6c19.6,0,37.8-5.8,53.2-15.6
		c-6.9-13.5-8.9-31.2-4-49.2c7.3-27.6,28.3-46.8,49.9-48v-35.6c25.4,8.7,37.7,17.7,37.8,17.8c5.7,4.6,12.5,6.7,19.2,6.7
		c9.1,0,18.2-4,24.3-11.7C488.3,340.3,486.1,320.8,472.7,310.2z"/>
	<g>
		<path class="st0" d="M276.8,304l-48.8,44.5l40.3,30.8l16.8-74.5C282.2,304.5,279.5,304.3,276.8,304z"/>
		<path class="st0" d="M301.8,304.4l16.8,74.8l40.3-30.8l-49.2-44.8C307.1,303.9,304.4,304.2,301.8,304.4z"/>
	</g>
</g>
</svg>
