<?xml version="1.0" encoding="utf-8"?>
<!-- Generator: Adobe Illustrator 22.1.0, SVG Export Plug-In . SVG Version: 6.00 Build 0)  -->
<svg version="1.1" id="Layer_1" xmlns="http://www.w3.org/2000/svg" xmlns:xlink="http://www.w3.org/1999/xlink" x="0px" y="0px"
	 viewBox="0 0 612 612" style="enable-background:new 0 0 612 612;" xml:space="preserve">
<style type="text/css">
	.st0{fill:none;stroke:#231F20;stroke-width:15;stroke-linejoin:round;stroke-miterlimit:10;}
</style>
<g>
	<polyline class="st0" points="417.8,165.2 444.7,138.2 473.8,167.3 447.7,193.4 	"/>
	<line class="st0" x1="239.5" y1="343.5" x2="322.1" y2="260.8"/>
	<polyline class="st0" points="193.8,447.3 167.3,473.8 138.2,444.7 165.8,417.2 	"/>
	<line class="st0" x1="351.2" y1="289.9" x2="268.8" y2="372.3"/>
	<g>
		<g>
			<g>
				<path class="st0" d="M258.9,436.6c9.6,9.6,9.6,25.2,0,34.8l-2.4,2.4c-9.6,9.6-25.2,9.6-34.8,0l-83.5-83.5
					c-9.6-9.6-9.6-25.2,0-34.8l2.4-2.4c9.6-9.6,25.2-9.6,34.8,0L258.9,436.6z"/>
			</g>
		</g>
		<g>
			<g>
				<path class="st0" d="M428.4,325.3c9.6,9.6,25.2,9.6,34.8,0l2.4-2.4c9.6-9.6,9.6-25.2,0-34.8L323.9,146.4
					c-9.6-9.6-25.2-9.6-34.8,0l-2.4,2.4c-9.6,9.6-9.6,25.2,0,34.8L428.4,325.3z"/>
			</g>
			<g>
				<path class="st0" d="M436.6,258.9c9.6,9.6,25.2,9.6,34.8,0l2.4-2.4c9.6-9.6,9.6-25.2,0-34.8l-83.5-83.5
					c-9.6-9.6-25.2-9.6-34.8,0l-2.4,2.4c-9.6,9.6-9.6,25.2,0,34.8L436.6,258.9z"/>
			</g>
		</g>
	</g>
	<g>
		<path class="st0" d="M325.3,428.4c9.6,9.6,9.6,25.2,0,34.8l-2.4,2.4c-9.6,9.6-25.2,9.6-34.8,0L146.4,323.9
			c-9.6-9.6-9.6-25.2,0-34.8l2.4-2.4c9.6-9.6,25.2-9.6,34.8,0L325.3,428.4z"/>
	</g>
</g>
</svg>
