<?xml version="1.0" encoding="utf-8"?>
<!-- Generator: Adobe Illustrator 22.1.0, SVG Export Plug-In . SVG Version: 6.00 Build 0)  -->
<svg version="1.1" id="Layer_1" xmlns="http://www.w3.org/2000/svg" xmlns:xlink="http://www.w3.org/1999/xlink" x="0px" y="0px"
	 viewBox="0 0 535 105.5" style="enable-background:new 0 0 535 105.5;" xml:space="preserve">
<style type="text/css">
	.st0{fill:#FFFFFF;}
</style>
<g>
	<path class="st0" d="M25.2,92c-1.5,1.6-3,2.7-5.4,2.7c-3.7,0-6-3-6-7.6v-0.2c0-4.5,2.4-7.5,6-7.5c2,0,3.6,0.8,5.2,2.6l0.1,0.1
		l5.2-5L30.1,77c-2.7-3-6.2-4.4-10.5-4.4c-8.3,0-14.1,5.9-14.1,14.3v0.5c0,8.4,5.7,14.2,13.8,14.2c4.5,0,8.1-1.6,10.9-4.8l0.1-0.1
		L25.2,92L25.2,92z"/>
	<polygon class="st0" points="57.7,83.6 49.4,83.6 49.4,73.1 41.4,73.1 41.4,101 49.4,101 49.4,90.3 57.7,90.3 57.7,101 65.7,101 
		65.7,73.1 57.7,73.1 	"/>
	<path class="st0" d="M102.1,82.7v-0.2c0-2.7-0.9-5-2.7-6.6c-2-1.9-5.1-2.8-9.1-2.8h-12v28h8v-8.6h2.6L94,101l0,0.1h9l-6.2-10.1
		C100.3,89.2,102.1,86.5,102.1,82.7z M86.3,79.5H90c2.6,0,4.1,1.2,4.1,3.4V83c0,2.2-1.5,3.5-4.1,3.5h-3.7V79.5z"/>
	<rect x="113.9" y="73.1" class="st0" width="8" height="28"/>
	<path class="st0" d="M146.7,83.8c-3.7-1.3-4.7-1.9-4.7-3.1v0c0-1,1-1.7,2.6-1.7c2.2,0,4.7,0.9,6.9,2.5l0.1,0.1l4-5.4l0.1-0.1
		l-0.1-0.1c-3.1-2.3-6.6-3.4-10.8-3.4c-6.5,0-10.9,3.5-10.9,8.7v0.1c0,5.3,4.6,7.2,9.8,8.8c3.7,1.2,4.3,1.9,4.3,2.8v0
		c0,1.2-1.1,1.9-3,1.9c-2.7,0-5.4-1-8.1-3.1l-0.1-0.1l-4.2,5.3l-0.1,0.1l0.1,0.1c3.4,2.7,7.6,4.1,12.3,4.1c6.7,0,11.1-3.5,11.1-8.8
		v-0.1C156.1,87.6,152.3,85.5,146.7,83.8z"/>
	<polygon class="st0" points="165.4,79.7 172.8,79.7 172.8,101 180.8,101 180.8,79.7 188.3,79.7 188.3,73.1 165.4,73.1 	"/>
	<rect x="199.7" y="73.1" class="st0" width="8" height="28"/>
	<path class="st0" d="M237.1,72.9h-8l-10.6,28l-0.1,0.2h8.2l1.7-5h9.3l1.8,5h8.4L237.1,72.9L237.1,72.9z M235.6,90.1h-5.2l2.6-7.6
		L235.6,90.1z"/>
	<polygon class="st0" points="275.6,86.7 265.8,73.1 265.8,73.1 258.3,73.1 258.3,101 266.2,101 266.2,86.8 276.4,101 283.5,101 
		283.5,73.1 275.6,73.1 	"/>
	<path class="st0" d="M333.6,92c-1.5,1.6-3,2.7-5.4,2.7c-3.7,0-6-3-6-7.6v-0.2c0-4.5,2.4-7.5,6-7.5c2,0,3.6,0.8,5.2,2.6l0.1,0.1
		l5.1-5l0.1-0.1l-0.1-0.1c-2.7-3-6.2-4.4-10.5-4.4c-8.3,0-14.1,5.9-14.1,14.3v0.5c0,8.4,5.7,14.2,13.8,14.2c4.5,0,8.1-1.6,10.9-4.8
		l0.1-0.1L333.6,92L333.6,92z"/>
	<polygon class="st0" points="366.1,83.6 357.8,83.6 357.8,73.1 349.8,73.1 349.8,101 357.8,101 357.8,90.3 366.1,90.3 366.1,101 
		374.1,101 374.1,73.1 366.1,73.1 	"/>
	<path class="st0" d="M403.1,90.1c0,3.1-1.5,4.7-4.3,4.7c-2.8,0-4.3-1.7-4.3-4.8v-17h-8v16.9c0,7.5,4.4,11.6,12.3,11.6
		c8,0,12.4-4.2,12.4-11.7V73.1h-8.1V90.1z"/>
	<path class="st0" d="M447.3,82.7v-0.2c0-2.7-0.9-5-2.7-6.6c-2-1.9-5.1-2.8-9.1-2.8h-12v28h8v-8.6h2.6l5.1,8.6h9L442,90.9
		C445.5,89.2,447.3,86.5,447.3,82.7z M439.3,83L439.3,83c0,2.3-1.5,3.6-4.1,3.6h-3.7v-7h3.7C437.8,79.5,439.3,80.8,439.3,83z"/>
	<path class="st0" d="M477.8,92c-1.5,1.6-3,2.7-5.4,2.7c-3.7,0-6-3-6-7.6v-0.2c0-4.5,2.4-7.5,6-7.5c2,0,3.6,0.8,5.2,2.6l0.1,0.1
		l5.1-5l0.1-0.1l-0.1-0.1c-2.7-3-6.2-4.4-10.5-4.4c-8.3,0-14.1,5.9-14.1,14.3v0.5c0,8.4,5.7,14.2,13.8,14.2c4.5,0,8.1-1.6,10.9-4.8
		l0.1-0.1L477.8,92L477.8,92z"/>
	<polygon class="st0" points="510.3,73.1 510.3,83.6 502,83.6 502,73.1 494,73.1 494,101 502,101 502,90.3 510.3,90.3 510.3,101 
		518.4,101 518.4,73.1 	"/>
</g>
<g>
	<path class="st0" d="M3,54.3l8.6-10.4c5.1,3.7,10.9,6.3,17,6.3c4.3,0,6.5-1.7,6.5-4.1V46c0-2.2-1.9-3.6-9.2-5.9
		C14,36.5,5.7,32.7,5.7,22.6v-0.2C5.7,12.2,14.4,5.1,28,5.1c8.4,0,15.8,2.1,22.3,6.8l-8.1,10.7c-4.3-2.9-9.5-5.1-14.5-5.1
		c-3.7,0-5.7,1.6-5.7,3.7v0.1c0,2.5,2,3.7,9.9,6.4c11.9,3.4,19.3,7.7,19.3,17.2V45c0,10.8-9.4,17.5-22.8,17.5
		C19.1,62.5,10.3,60,3,54.3z"/>
	<path class="st0" d="M60.7,34.5v-1.2c0-16.7,12.2-28.4,29-28.4c16.9,0,28.9,11.6,28.9,28.3v1.2c0,16.7-12.2,28.4-29,28.4
		C72.7,62.7,60.7,51.2,60.7,34.5z M102.2,34.3v-0.9c0-9.6-5.2-15.5-12.6-15.5c-7.4,0-12.5,5.8-12.5,15.5v0.9
		c0,9.6,5.2,15.5,12.6,15.5C97.2,49.8,102.2,43.9,102.2,34.3z"/>
	<path class="st0" d="M129.9,39.6V5.9H146v33.9c0,6.7,3.7,9.9,9.2,9.9c5.6,0,9.2-3,9.2-9.6V5.9h16.2v33.5
		c0,16.2-10.3,23.3-25.5,23.3S129.9,55.5,129.9,39.6z"/>
	<path class="st0" d="M206.4,18.8H191V5.9h46.9v12.9h-15.4v42.9h-16.1V18.8z"/>
	<path class="st0" d="M248.8,5.9h16.1v21.2h17.8V5.9h16.2v55.8h-16.2V40.2h-17.8v21.5h-16.1V5.9z"/>
	<path class="st0" d="M312.4,5.9h43v12.6h-27.1v9.2h24.4v11.9h-24.4v9.6h27.5v12.6h-43.4V5.9z"/>
	<path class="st0" d="M385.4,5.6h16.2l22,56.1h-16.9l-3.7-10h-19.6l-3.6,10h-16.5L385.4,5.6z M399.1,40.2l-5.8-16.3l-5.8,16.3H399.1
		z"/>
	<path class="st0" d="M428.4,54.3l8.6-10.4c5.1,3.7,10.9,6.3,17,6.3c4.3,0,6.5-1.7,6.5-4.1V46c0-2.2-1.9-3.6-9.2-5.9
		c-11.8-3.6-20.1-7.4-20.1-17.5v-0.2c0-10.1,8.7-17.2,22.3-17.2c8.4,0,15.8,2.1,22.3,6.8l-8.1,10.7c-4.3-2.9-9.5-5.1-14.5-5.1
		c-3.7,0-5.7,1.6-5.7,3.7v0.1c0,2.5,2,3.7,9.9,6.4c11.9,3.4,19.3,7.7,19.3,17.2V45c0,10.8-9.4,17.5-22.8,17.5
		C444.6,62.5,435.7,60,428.4,54.3z"/>
	<path class="st0" d="M500.5,18.8h-15.4V5.9H532v12.9h-15.4v42.9h-16.1V18.8z"/>
</g>
</svg>
