<svg xmlns="http://www.w3.org/2000/svg" width="260.932" height="69.862" viewBox="0 0 260.932 69.862">
  <g id="Group_81" data-name="Group 81" transform="translate(-33.451 -25.734)">
    <g id="Group_80" data-name="Group 80" transform="translate(33.451 44.982)">
      <path id="Path_31" data-name="Path 31" d="M33.451,74.888c.007-3.145,1.96-5.234,4.827-5.226a4.684,4.684,0,0,1,5.005,4.366,5.4,5.4,0,0,1-.625,2.681,13.284,13.284,0,0,0,7.263,1.9c5.03-.005,8.232-2.153,8.243-5.971,0-3.631-3.834-5.371-8.442-6.913-8.516-2.968-14.52-5.586-14.506-13.77,0-7.048,5.94-12.55,15.222-12.532,8.589,0,15.219,4.239,15.213,9.534,0,3.15-2.027,4.965-4.673,4.958a4.687,4.687,0,0,1-5.037-4.5,3.948,3.948,0,0,1,.5-2.07A11.858,11.858,0,0,0,50.365,46c-4.533,0-7.195,2.207-7.195,5.418-.012,3.621,3.843,5.236,8.437,6.85,8.241,2.821,14.454,5.581,14.445,13.773,0,8.369-6.785,13.136-16.207,13.133C40.768,85.157,33.446,80.271,33.451,74.888Z" transform="translate(-33.451 -34.717)" fill="#fff"/>
      <path id="Path_32" data-name="Path 32" d="M53.87,77.246h5.247l.016-30.59H53.891l.018-6.766,34.266.014-.016,12.616H80.62V46.606l-13.6-.012,0,11.813,13.887,0v6.439L67,64.842,67,77.33H80.683V71.436h7.545l-.021,12.62-34.336-.03Z" transform="translate(-18.135 -34.363)" fill="#fff"/>
      <path id="Path_33" data-name="Path 33" d="M77.534,81.431a5.828,5.828,0,1,1,5.808,5.6A5.69,5.69,0,0,1,77.534,81.431Zm.427-44.7,10.866,0-3.1,34.646L81,71.368Z" transform="translate(-0.386 -36.732)" fill="#fff"/>
      <path id="Path_34" data-name="Path 34" d="M87.689,77.267l5.234.009.031-30.586-5.233-.011V39.91l18.841.014-.014,6.643-5.716-.016-.019,14.97,15.453-14.951-5.236,0V39.926l20.245.009v6.782h-4.96L113.466,58.851l11.7,18.456h6.083l-.01,6.776H120.214l-12.765-20.14-6.64,6.225v7.116l5.737.012-.018,6.778-18.847-.012Z" transform="translate(7.226 -34.348)" fill="#fff"/>
      <path id="Path_35" data-name="Path 35" d="M115.648,77.3l5.586.009.021-30.586-5.59-.009.007-6.787,19.071.021-.014,6.78-5.579-.005-.03,30.595H134.7V84.1l-19.058-.025Z" transform="translate(28.199 -34.338)" fill="#fff"/>
      <path id="Path_36" data-name="Path 36" d="M129.484,77.308l5.231.007.03-30.595-5.24-.009.01-6.769,17.383.017c16.61,0,26.444,8.332,26.423,21.678,0,13.493-9.286,22.462-27.3,22.457l-16.535-.01Zm17.655.014c11.871.009,18.017-6.169,18.027-15.618.007-9.657-7.1-14.965-18.558-14.974h-3.978L142.6,77.315Z" transform="translate(38.581 -34.324)" fill="#fff"/>
      <path id="Path_37" data-name="Path 37" d="M157.166,74.991c0-3.157,1.955-5.233,4.823-5.233,3.07,0,5.021,2.217,5.017,4.365a5.49,5.49,0,0,1-.632,2.69,13.287,13.287,0,0,0,7.256,1.881c5.035,0,8.241-2.154,8.241-5.973,0-3.614-3.838-5.362-8.435-6.911-8.511-2.959-14.513-5.576-14.5-13.759,0-7.062,5.94-12.546,15.22-12.546,8.582.019,15.217,4.24,15.21,9.534,0,3.169-2.02,4.972-4.674,4.972a4.691,4.691,0,0,1-5.035-4.5,3.812,3.812,0,0,1,.5-2.086,11.892,11.892,0,0,0-6.074-1.346c-4.529-.014-7.195,2.209-7.195,5.427,0,3.633,3.841,5.238,8.439,6.867,8.252,2.819,14.449,5.562,14.442,13.754-.007,8.388-6.778,13.141-16.2,13.136C164.485,85.266,157.155,80.345,157.166,74.991Z" transform="translate(59.344 -34.652)" fill="#fff"/>
    </g>
    <path id="Path_38" data-name="Path 38" d="M178.015,41.151a2.908,2.908,0,0,1-.686,1.446c-.2.235-.39.291-.544.17a1.978,1.978,0,0,1-.765-1.3,1.6,1.6,0,0,1,.263-1.325c.266-.338.746-.389,1.405-.159a1.337,1.337,0,0,1,.327,1.173m4.884-1.337a2.4,2.4,0,0,1-2.272-.077,1.151,1.151,0,0,1-.462-.754,1.111,1.111,0,0,1,.273-.816.937.937,0,0,1,.691-.34.872.872,0,0,1,.665.156,4.48,4.48,0,0,1,1.1,1.831m-8.292-1.367a1.081,1.081,0,0,1-.229.8,3.849,3.849,0,0,1-1.489.758,2.068,2.068,0,0,1-1.355-.3,7.824,7.824,0,0,1,.646-1l.551-.663a1.042,1.042,0,0,1,1.582-.282.988.988,0,0,1,.294.684m4.191-1.64a1.415,1.415,0,0,1-2.2.306,1.268,1.268,0,0,1-.513-1.013,1.629,1.629,0,0,1,.4-1.185,1.826,1.826,0,0,1,1.1-.648,1.323,1.323,0,0,1,1.1.163c.842.653.872,1.449.114,2.377m5.742-3.05a3.279,3.279,0,0,1-1.33,1.033c-.5.212-.872.24-1.115.056a.874.874,0,0,1-.362-.711,1.237,1.237,0,0,1,.322-.831c.455-.546,1.477-.621,3.056-.235Zm-9.167-.252a.9.9,0,0,1-.172.77,1.483,1.483,0,0,1-.875.515,1.182,1.182,0,0,1-.926-.177,2.018,2.018,0,0,1-.7-2,2.194,2.194,0,0,1,2.263.161,1.148,1.148,0,0,1,.408.726m4.617-2.531a2.1,2.1,0,0,1-.513,1.1,1.441,1.441,0,0,1-.656.469.623.623,0,0,1-.557-.04,2.384,2.384,0,0,1-.8-1.944c.161-.163.338-.352.53-.539s.331-.334.4-.378l.035-.051a4.776,4.776,0,0,1,1.271.578.84.84,0,0,1,.3.8m-.116-5.1c-.606-.222-1.029-.17-1.292.149a1.8,1.8,0,0,0-.207.87,2.269,2.269,0,0,1-.242.894,3.133,3.133,0,0,1-.663.518,4.433,4.433,0,0,0-.649.487,2.85,2.85,0,0,0-.212,1.026,4.8,4.8,0,0,1-.4,1.671,3.128,3.128,0,0,1-1.162-.509,3.849,3.849,0,0,0-.994-.525,2.351,2.351,0,0,0-1.05.056,1.854,1.854,0,0,1-.9.051c-.775-.257-1.166-.392-1.181-.4a1.009,1.009,0,0,0-.886.467.953.953,0,0,0-.158.879c.018.025.075.065.151.14.072.051.173.13.308.215s.231.147.29.182a.88.88,0,0,1,.338.735c0,.3-.01.588-.01.863a2.875,2.875,0,0,0,.355.859,1.7,1.7,0,0,0,.933.9,2.333,2.333,0,0,1,.4.222.8.8,0,0,1,.352.541c-.427.268-.851.539-1.292.84a6.875,6.875,0,0,0-1.528,1.356,3.413,3.413,0,0,0-.452,1.048,3.246,3.246,0,0,1-.417.992,1.2,1.2,0,0,1-.578.231,1.169,1.169,0,0,0-.619.306.6.6,0,0,0-.051.539,1.026,1.026,0,0,0,.352.558c.175.133.509.047.987-.261a2.476,2.476,0,0,1,1.006-.448c.406.084.819.18,1.22.278a1.923,1.923,0,0,0,.994.017c1.026-.378,1.782-.688,2.3-.91a9.881,9.881,0,0,0-.222,1.925,1.693,1.693,0,0,0,.527,1.215,5.973,5.973,0,0,1,.474.469,1.59,1.59,0,0,1,.338.77A3.218,3.218,0,0,0,176.3,46a.486.486,0,0,0,.434.07.648.648,0,0,0,.417-.215,2.3,2.3,0,0,0,.261-.908,2.485,2.485,0,0,1,.252-.877,2.8,2.8,0,0,1,.448-.408,3.552,3.552,0,0,0,.452-.4,2.436,2.436,0,0,0,.43-1.486,3.944,3.944,0,0,1,.308-1.645l.94.709a2.536,2.536,0,0,0,2.091.677c.068-.033.254-.105.544-.21a.763.763,0,0,1,.45-.091c.254.091.5.173.732.268.285.051.609-.149.968-.6.133-.158.082-.383-.154-.681a3.46,3.46,0,0,1-.585-.751c-.023-.256-.051-.523-.068-.777a2.3,2.3,0,0,0-.919-1.23c-.343-.254-.77-.543-1.255-.838a8.437,8.437,0,0,1,2.041-.726,2.778,2.778,0,0,0,1.395-.663,4.243,4.243,0,0,0,.445-.723,4.626,4.626,0,0,1,.369-.637,1.452,1.452,0,0,1,.513-.324,1.374,1.374,0,0,0,.464-.245.957.957,0,0,0,.114-.684.945.945,0,0,0-.3-.684,1.194,1.194,0,0,0-.936-.053,1.482,1.482,0,0,1-.8.042.877.877,0,0,1-.161-.214,1.328,1.328,0,0,0-.233-.259,1.97,1.97,0,0,0-1.647-.326,20.935,20.935,0,0,0-2.062.761,3.2,3.2,0,0,1,.051-1.183c.039-.24.1-.483.165-.74a2.531,2.531,0,0,0-.912-2.448,3.672,3.672,0,0,0-.537-.326,2.925,2.925,0,0,0-.115-1.285Z" transform="translate(100.942 0)" fill="#fff"/>
    <path id="Path_39" data-name="Path 39" d="M151.914,40.4A3.715,3.715,0,0,1,150,39.84c-.341-.18-.438-.376-.306-.588a2.427,2.427,0,0,1,1.507-1.089,2.182,2.182,0,0,1,1.7.065c.464.257.593.795.439,1.6a1.864,1.864,0,0,1-1.428.569m2.517,5.43a2.65,2.65,0,0,1-.294-2.648,1.344,1.344,0,0,1,.868-.662,1.435,1.435,0,0,1,1.059.17,1.209,1.209,0,0,1,.466,1.547,5.889,5.889,0,0,1-2.1,1.593M154.7,36a1.514,1.514,0,0,1-1.022-.11,4.548,4.548,0,0,1-1.2-1.591,2.3,2.3,0,0,1,.147-1.624,11.028,11.028,0,0,1,1.351.572l.926.523c.838.48,1.033,1.061.613,1.78a1.173,1.173,0,0,1-.817.45m2.776,4.575a1.6,1.6,0,0,1-.763-2.49,1.689,1.689,0,0,1,1.2-.76,2.123,2.123,0,0,1,1.549.256,2.219,2.219,0,0,1,.994,1.157,1.412,1.412,0,0,1-.024,1.3c-.67,1.085-1.65,1.262-2.952.539m4.8,6.116a4.153,4.153,0,0,1-1.517-1.353c-.362-.551-.445-.966-.264-1.29a1.133,1.133,0,0,1,.814-.539,1.611,1.611,0,0,1,1.111.233c.761.429,1.033,1.587.814,3.493Zm-1.251-10.64a1.229,1.229,0,0,1-.987-.065,1.656,1.656,0,0,1-.788-.933,1.271,1.271,0,0,1,.065-1.1,2.55,2.55,0,0,1,2.37-1.143,2.408,2.408,0,0,1,.182,2.639,1.4,1.4,0,0,1-.842.6m3.945,4.905a2.87,2.87,0,0,1-1.47-.415,1.665,1.665,0,0,1-.69-.676.626.626,0,0,1-.038-.642,3.093,3.093,0,0,1,2.287-1.257q.352.213.772.523c.277.215.462.331.537.382l.068.037a4.994,4.994,0,0,1-.5,1.559,1.116,1.116,0,0,1-.964.488m6.377-1.017c.172-.716.045-1.2-.406-1.449a2.5,2.5,0,0,0-1.138-.1,2.81,2.81,0,0,1-1.155-.121,3.849,3.849,0,0,1-.753-.679,5.165,5.165,0,0,0-.732-.667,3.667,3.667,0,0,0-1.3-.056,6.422,6.422,0,0,1-2.168-.187,3.473,3.473,0,0,1,.438-1.437,3.965,3.965,0,0,0,.49-1.227,2.492,2.492,0,0,0-.254-1.2,2.2,2.2,0,0,1-.219-1.043c.189-.938.291-1.416.3-1.426a1.176,1.176,0,0,0-.735-.938,1.334,1.334,0,0,0-1.138-.051.78.78,0,0,1-.133.212,2.836,2.836,0,0,0-.217.389,3.978,3.978,0,0,1-.191.361,1.062,1.062,0,0,1-.844.529c-.38.038-.746.079-1.087.135a3.092,3.092,0,0,0-1.015.555,2.019,2.019,0,0,0-.971,1.239,2,2,0,0,1-.2.478,1.05,1.05,0,0,1-.637.5c-.392-.446-.823-.884-1.248-1.346a8.4,8.4,0,0,0-1.972-1.53,4.536,4.536,0,0,0-1.384-.352,4.042,4.042,0,0,1-1.316-.315,1.555,1.555,0,0,1-.385-.611,1.4,1.4,0,0,0-.487-.669.8.8,0,0,0-.679.033,1.245,1.245,0,0,0-.637.5c-.137.226.018.6.476,1.087.509.586.753.945.746,1.09-.042.488-.082.973-.136,1.449a1.933,1.933,0,0,0,.159,1.16q.966,1.667,1.512,2.515a13.355,13.355,0,0,0-2.441.054,2.251,2.251,0,0,0-1.425.826c-.147.2-.322.417-.509.628a2.21,2.21,0,0,1-.9.53,4.072,4.072,0,0,0-1.094.446.511.511,0,0,0-.011.522.682.682,0,0,0,.336.436,3,3,0,0,0,1.173.154,3.235,3.235,0,0,1,1.134.131,3.472,3.472,0,0,1,.6.457,6.631,6.631,0,0,0,.578.453,3.222,3.222,0,0,0,1.927.24,5.363,5.363,0,0,1,2.123.075l-.725,1.2a2.716,2.716,0,0,0-.478,2.539c.026.074.158.268.331.6a.97.97,0,0,1,.2.506c-.074.292-.147.592-.224.882,0,.336.294.677.912,1.024.226.117.506.025.835-.3a5.3,5.3,0,0,1,.83-.814c.329-.067.649-.14.961-.212a2.731,2.731,0,0,0,1.381-1.272,15.827,15.827,0,0,0,.838-1.594,10.11,10.11,0,0,1,1.267,2.238,3.068,3.068,0,0,0,1.071,1.507,4.234,4.234,0,0,0,.973.389,6.019,6.019,0,0,1,.858.317,1.515,1.515,0,0,1,.483.541,1.765,1.765,0,0,0,.389.5,1.41,1.41,0,0,0,.889.014,1.207,1.207,0,0,0,.793-.471,1.292,1.292,0,0,0-.084-1.078c-.2-.508-.261-.814-.2-.938a2.788,2.788,0,0,1,.233-.214,1.179,1.179,0,0,0,.28-.319,2.079,2.079,0,0,0,.147-1.944,25.418,25.418,0,0,0-1.32-2.263,4.684,4.684,0,0,1,1.488-.145c.319.014.635.037.961.067A3.287,3.287,0,0,0,169.421,41a5.147,5.147,0,0,0,.311-.665,4.03,4.03,0,0,0,1.586-.362Z" transform="translate(84.04 2.35)" fill="#fff"/>
    <path id="Path_40" data-name="Path 40" d="M143.765,33.968a1.781,1.781,0,0,0-1.32-.518,1.669,1.669,0,0,0-1.155.581,1.531,1.531,0,0,0-.493,1.181,2.091,2.091,0,0,0,.578,1.358,1.686,1.686,0,0,0,1.3.586,1.827,1.827,0,0,0,1.094-3.189m1.418,3.77a3.4,3.4,0,0,1-2.335.994,3.636,3.636,0,0,1-2.625-.938,3.248,3.248,0,0,1-1.166-2.363,2.93,2.93,0,0,1,.989-2.266,3.578,3.578,0,0,1,2.422-1.066,3.706,3.706,0,0,1,1.652.315,2.566,2.566,0,0,1,1.117.725,4.378,4.378,0,0,1,.749,2.634,2.493,2.493,0,0,1-.8,1.965m.39-5.129a3.93,3.93,0,0,0-2.937-1.131,5.3,5.3,0,0,0-1.8.257,4.4,4.4,0,0,0-2.718,4.295,4.462,4.462,0,0,0,.817,2.412,5.077,5.077,0,0,0,2.074,1.738A4.341,4.341,0,0,0,147,35.886a4.613,4.613,0,0,0-1.432-3.278" transform="translate(78.506 4.305)" fill="#fff"/>
    <path id="Path_41" data-name="Path 41" d="M163.022,31.6a1.811,1.811,0,0,0-.6,1.432,1.72,1.72,0,0,0,.676,1.239,1.927,1.927,0,0,0,1.388.537,2.619,2.619,0,0,0,1.587-.632,1.7,1.7,0,0,0,.672-1.391,1.86,1.86,0,0,0-.656-1.381,2.253,2.253,0,0,0-1.586-.471,2.182,2.182,0,0,0-1.481.667m4.4-1.538a3.532,3.532,0,0,1,1.166,2.529,3.75,3.75,0,0,1-1.083,2.818,3.96,3.96,0,0,1-2.776,1.271,3.508,3.508,0,0,1-2.643-1.066,3.794,3.794,0,0,1-1.26-2.616,4.047,4.047,0,0,1,.371-1.785A2.787,2.787,0,0,1,162.063,30a5.542,5.542,0,0,1,3.056-.819,3.148,3.148,0,0,1,2.307.875m-6-.41a4.148,4.148,0,0,0-1.32,3.169,5.64,5.64,0,0,0,.312,1.943,5.173,5.173,0,0,0,5.028,2.919,5.646,5.646,0,0,0,2.811-.877,5.559,5.559,0,0,0,2.016-2.238,4.261,4.261,0,0,0,.3-2,4.476,4.476,0,0,0-1.6-3.276,5.158,5.158,0,0,0-3.708-1.187,5.616,5.616,0,0,0-3.843,1.547" transform="translate(94.998 1.772)" fill="#fff"/>
    <path id="Path_42" data-name="Path 42" d="M179.481,40.433a1.909,1.909,0,0,0-.607,1.43,1.837,1.837,0,0,0,.679,1.251,2.021,2.021,0,0,0,1.384.53,2.577,2.577,0,0,0,1.591-.639,1.7,1.7,0,0,0,.676-1.395,1.877,1.877,0,0,0-.649-1.381,2.337,2.337,0,0,0-1.589-.464,2.213,2.213,0,0,0-1.484.667m4.407-1.53a3.455,3.455,0,0,1,1.159,2.524,3.749,3.749,0,0,1-1.09,2.821,3.973,3.973,0,0,1-2.762,1.272,3.545,3.545,0,0,1-2.643-1.069,3.745,3.745,0,0,1-1.255-2.615,3.961,3.961,0,0,1,.369-1.783,2.825,2.825,0,0,1,.858-1.216,5.486,5.486,0,0,1,3.054-.807,3.064,3.064,0,0,1,2.31.873m-6-.415a4.073,4.073,0,0,0-1.316,3.164,5.329,5.329,0,0,0,.315,1.943,5.188,5.188,0,0,0,5.021,2.933,5.629,5.629,0,0,0,2.814-.891,5.524,5.524,0,0,0,2.013-2.237,4.2,4.2,0,0,0,.3-2,4.455,4.455,0,0,0-1.6-3.276,5.1,5.1,0,0,0-3.708-1.185,5.566,5.566,0,0,0-3.84,1.545" transform="translate(107.347 8.402)" fill="#fff"/>
  </g>
</svg>
