<svg xmlns="http://www.w3.org/2000/svg" viewBox="0 0 10.36 10.36"><title>Asset 2</title><g id="e57f5944-8256-47c7-bf2f-1cd0c2a5ee22" data-name="Layer 2"><g id="dc327145-2a88-4dc0-8bea-fd8f5d6b4340" data-name="Circle Filled"><path d="M5.18,9.86A4.68,4.68,0,1,1,9.86,5.18,4.69,4.69,0,0,1,5.18,9.86Z" fill="#0d5075"/><path d="M5.18,1A4.18,4.18,0,1,1,1,5.18,4.18,4.18,0,0,1,5.18,1m0-1a5.18,5.18,0,1,0,5.18,5.18A5.18,5.18,0,0,0,5.18,0Z" fill="#0d5075"/><path d="M5.18,7.24A2.06,2.06,0,1,1,7.24,5.18,2.06,2.06,0,0,1,5.18,7.24Z" fill="#fff"/><path d="M5.18,3.62A1.56,1.56,0,1,1,3.62,5.18,1.56,1.56,0,0,1,5.18,3.62m0-1A2.56,2.56,0,1,0,7.74,5.18,2.55,2.55,0,0,0,5.18,2.62Z" fill="#0d5075"/></g></g></svg>