<?xml version="1.0" encoding="UTF-8" standalone="no"?>
<!-- Created with Inkscape (http://www.inkscape.org/) -->

<svg
   xmlns:dc="http://purl.org/dc/elements/1.1/"
   xmlns:cc="http://creativecommons.org/ns#"
   xmlns:rdf="http://www.w3.org/1999/02/22-rdf-syntax-ns#"
   xmlns:svg="http://www.w3.org/2000/svg"
   xmlns="http://www.w3.org/2000/svg"
   xmlns:sodipodi="http://sodipodi.sourceforge.net/DTD/sodipodi-0.dtd"
   xmlns:inkscape="http://www.inkscape.org/namespaces/inkscape"
   width="94.866524"
   height="93.891518"
   viewBox="0 0 94.866519 93.891518"
   id="svg2"
   version="1.1"
   inkscape:version="0.91 r13725"
   sodipodi:docname="920.svg">
  <defs
     id="defs4" />
  <sodipodi:namedview
     id="base"
     pagecolor="#ffffff"
     bordercolor="#666666"
     borderopacity="1.0"
     inkscape:pageopacity="0.0"
     inkscape:pageshadow="2"
     inkscape:zoom="3.959798"
     inkscape:cx="-47.599459"
     inkscape:cy="12.985107"
     inkscape:document-units="px"
     inkscape:current-layer="layer1"
     showgrid="false"
     inkscape:window-width="1920"
     inkscape:window-height="1018"
     inkscape:window-x="-8"
     inkscape:window-y="-8"
     inkscape:window-maximized="1"
     units="px"
     fit-margin-top="0"
     fit-margin-left="0"
     fit-margin-right="0"
     fit-margin-bottom="0" />
  <metadata
     id="metadata7">
    <rdf:RDF>
      <cc:Work
         rdf:about="">
        <dc:format>image/svg+xml</dc:format>
        <dc:type
           rdf:resource="http://purl.org/dc/dcmitype/StillImage" />
        <dc:title />
      </cc:Work>
    </rdf:RDF>
  </metadata>
  <g
     inkscape:label="Layer 1"
     inkscape:groupmode="layer"
     id="layer1"
     transform="translate(-82.360191,-304.0389)">
    <path
       style="color:#000000;font-style:normal;font-variant:normal;font-weight:normal;font-stretch:normal;font-size:medium;line-height:normal;font-family:sans-serif;text-indent:0;text-align:start;text-decoration:none;text-decoration-line:none;text-decoration-style:solid;text-decoration-color:#000000;letter-spacing:normal;word-spacing:normal;text-transform:none;direction:ltr;block-progression:tb;writing-mode:lr-tb;baseline-shift:baseline;text-anchor:start;white-space:normal;clip-rule:nonzero;display:inline;overflow:visible;visibility:visible;opacity:1;isolation:auto;mix-blend-mode:normal;color-interpolation:sRGB;color-interpolation-filters:linearRGB;solid-color:#000000;solid-opacity:1;fill:#000000;fill-opacity:1;fill-rule:evenodd;stroke:none;stroke-width:4.30000019;stroke-linecap:butt;stroke-linejoin:miter;stroke-miterlimit:4;stroke-dasharray:none;stroke-dashoffset:0;stroke-opacity:1;color-rendering:auto;image-rendering:auto;shape-rendering:auto;text-rendering:auto;enable-background:accumulate"
       d="m 82.447266,304.03906 0,2.15039 0.002,-0.0312 c -0.34422,23.60029 0.448664,47.16757 0.04492,70.61524 l -0.002,0.0195 0,0.0176 c -10e-7,11.64674 9.442825,21.09179 21.089844,21.09179 23.50921,0.0973 49.01135,-0.0907 71.45117,-0.0801 l 2.14844,0 0.002,-2.14844 c 0.0154,-23.80028 0.0447,-49.51524 0.043,-70.46485 0,-11.64542 -9.44101,-21.08769 -21.08594,-21.08984 l -0.004,0 c -24.16955,-0.031 -50.2301,-0.0834 -71.539066,-0.0801 l -2.15039,0 z M 86.75,308.3418 c 20.93346,-2e-5 45.93914,0.0481 69.38477,0.0781 l 0.002,0 c 9.33917,0 16.79101,7.44989 16.79101,16.78906 0.002,20.30725 -0.0273,45.13079 -0.043,68.31446 -21.96415,8.8e-4 -46.52405,0.17242 -69.29297,0.0781 l -0.004,0 -0.006,0 c -9.338912,0 -16.789061,-7.45184 -16.789061,-16.79101 0.392826,-22.87172 -0.310318,-45.7185 -0.04275,-68.46871 z"
       id="rect3353"
       inkscape:connector-curvature="0" />
    <g
       style="font-style:normal;font-weight:normal;font-size:42.33150101px;line-height:125%;font-family:sans-serif;letter-spacing:0px;word-spacing:0px;fill:#000000;fill-opacity:1;stroke:none;stroke-width:1px;stroke-linecap:butt;stroke-linejoin:miter;stroke-opacity:1"
       id="text4147">
      <path
         d="m 89.943497,356.96707 8.37122,-1.05415 q 0.330715,1.75692 1.116162,2.48036 0.785451,0.72344 1.922281,0.72344 2.02563,0 3.16246,-2.0463 0.82679,-1.50889 1.24018,-6.38693 -1.50889,1.55022 -3.10045,2.27366 -1.59157,0.72344 -3.679204,0.72344 -4.071926,0 -6.883002,-2.89375 -2.790407,-2.89376 -2.790407,-7.31707 0,-3.01777 1.426208,-5.49813 1.426208,-2.48036 3.927239,-3.74122 2.501031,-1.28152 6.283586,-1.28152 4.54733,0 7.29639,1.5709 2.74907,1.55023 4.38197,4.96072 1.65358,3.38983 1.65358,8.97064 0,8.20587 -3.45184,12.02976 -3.45183,3.80322 -9.57006,3.80322 -3.617193,0 -5.70483,-0.82679 -2.087638,-0.84746 -3.472506,-2.45969 -1.384869,-1.61224 -2.128977,-4.03059 z M 105.44576,343.4491 q 0,-2.45969 -1.24019,-3.84456 -1.24018,-1.40554 -3.01777,-1.40554 -1.674242,0 -2.790405,1.26085 -1.095493,1.26085 -1.095493,3.78255 0,2.54237 1.136833,3.8859 1.157502,1.34353 2.873085,1.34353 1.77759,0 2.95576,-1.30219 1.17818,-1.30219 1.17818,-3.72054 z"
         style="font-style:normal;font-variant:normal;font-weight:900;font-stretch:normal;font-family:Arial;-inkscape-font-specification:'Arial Heavy'"
         id="path4137" />
      <path
         d="m 142.48582,363.7674 -25.25835,0 q 0.43406,-3.74122 2.62505,-7.0277 2.21166,-3.30714 8.26787,-7.79246 3.69987,-2.74907 4.73336,-4.17528 1.03348,-1.42621 1.03348,-2.70773 0,-1.38487 -1.03348,-2.35634 -1.01282,-0.99214 -2.56304,-0.99214 -1.61224,0 -2.64572,1.01281 -1.01281,1.01281 -1.3642,3.57585 l -8.43323,-0.6821 q 0.49607,-3.55518 1.81893,-5.53947 1.32286,-2.00496 3.72055,-3.05911 2.41835,-1.07483 6.6763,-1.07483 4.44398,0 6.90367,1.01282 2.48037,1.01281 3.8859,3.12112 1.42621,2.08764 1.42621,4.69202 0,2.76973 -1.6329,5.29144 -1.61224,2.5217 -5.89086,5.53947 -2.54237,1.75692 -3.4105,2.45969 -0.84745,0.70277 -2.00496,1.8396 l 13.14592,0 0,6.86234 z"
         style="font-style:normal;font-variant:normal;font-weight:900;font-stretch:normal;font-family:Arial;-inkscape-font-specification:'Arial Heavy'"
         id="path4139" />
      <path
         d="m 146.12368,348.4925 q 0,-8.63992 3.10045,-12.09176 3.12112,-3.45184 9.48739,-3.45184 3.05911,0 5.02273,0.76478 1.96362,0.74411 3.2038,1.96362 1.24018,1.19884 1.94295,2.54237 0.72344,1.32286 1.1575,3.10045 0.84746,3.38983 0.84746,7.06903 0,8.24721 -2.79041,12.0711 -2.79041,3.82389 -9.6114,3.82389 -3.82389,0 -6.18023,-1.21951 -2.35635,-1.21952 -3.86523,-3.57586 -1.0955,-1.67424 -1.71559,-4.568 -0.59942,-2.91442 -0.59942,-6.42827 z m 8.35055,0.0207 q 0,5.78751 1.01282,7.91649 1.03348,2.10831 2.97643,2.10831 1.28152,0 2.21165,-0.8888 0.95081,-0.90947 1.38487,-2.85242 0.45474,-1.94295 0.45474,-6.05621 0,-6.03555 -1.03349,-8.10251 -1.01281,-2.08764 -3.05911,-2.08764 -2.08764,0 -3.01777,2.12897 -0.93014,2.10831 -0.93014,7.83381 z"
         style="font-style:normal;font-variant:normal;font-weight:900;font-stretch:normal;font-family:Arial;-inkscape-font-specification:'Arial Heavy'"
         id="path4141" />
    </g>
  </g>
</svg>
