<?xml version="1.0" encoding="UTF-8" standalone="no"?>
<!-- Created with Inkscape (http://www.inkscape.org/) -->

<svg
   xmlns:dc="http://purl.org/dc/elements/1.1/"
   xmlns:cc="http://creativecommons.org/ns#"
   xmlns:rdf="http://www.w3.org/1999/02/22-rdf-syntax-ns#"
   xmlns:svg="http://www.w3.org/2000/svg"
   xmlns="http://www.w3.org/2000/svg"
   xmlns:sodipodi="http://sodipodi.sourceforge.net/DTD/sodipodi-0.dtd"
   xmlns:inkscape="http://www.inkscape.org/namespaces/inkscape"
   width="150.98889mm"
   height="140.54666mm"
   viewBox="0 0 535.00001 497.99998"
   id="svg4764"
   version="1.1"
   inkscape:version="0.91 r13725"
   sodipodi:docname="bb.svg">
  <defs
     id="defs4766" />
  <sodipodi:namedview
     id="base"
     pagecolor="#ffffff"
     bordercolor="#666666"
     borderopacity="1.0"
     inkscape:pageopacity="0.0"
     inkscape:pageshadow="2"
     inkscape:zoom="0.35"
     inkscape:cx="-581.78572"
     inkscape:cy="180.42857"
     inkscape:document-units="px"
     inkscape:current-layer="layer1"
     showgrid="false"
     fit-margin-top="0"
     fit-margin-left="0"
     fit-margin-right="0"
     fit-margin-bottom="0"
     inkscape:window-width="1920"
     inkscape:window-height="1018"
     inkscape:window-x="-8"
     inkscape:window-y="-8"
     inkscape:window-maximized="1" />
  <metadata
     id="metadata4769">
    <rdf:RDF>
      <cc:Work
         rdf:about="">
        <dc:format>image/svg+xml</dc:format>
        <dc:type
           rdf:resource="http://purl.org/dc/dcmitype/StillImage" />
        <dc:title />
      </cc:Work>
    </rdf:RDF>
  </metadata>
  <g
     inkscape:label="Layer 1"
     inkscape:groupmode="layer"
     id="layer1"
     transform="translate(-103.92857,-214.79077)">
    <path
       style="fill:#030303"
       d="m 362.92857,711.7682 c -4.91933,-0.68007 -39.86416,-8.24533 -44.25,-9.57975 -0.9625,-0.29285 -1.74604,-1.06463 -1.7412,-1.71507 0.005,-0.65043 6.34369,-7.93261 14.08631,-16.18261 7.74263,-8.25 18.75079,-19.9891 24.46258,-26.0869 l 10.38508,-11.08689 6.4805,-52.41311 c 3.56428,-28.8272 6.9854,-54.4381 7.60249,-56.9131 1.73139,-6.94428 8.98742,-67.38801 8.18477,-68.18028 -0.62994,-0.62178 -131.0672,123.25747 -202.43373,192.25592 l -26.7232,25.83648 -5.2768,-0.58212 c -5.55289,-0.61258 -48.87693,-10.0968 -49.64896,-10.86882 -0.62119,-0.6212 0.38703,-1.74243 26.46961,-29.43659 l 23.09744,-24.52459 11.20811,-90 c 11.35285,-91.16228 22.27943,-171.5172 24.06883,-177.00394 1.43165,-4.38983 5.25828,-31.45403 4.66566,-32.99837 -0.37855,-0.98648 -3.65541,-0.0859 -13.07279,3.59292 -6.91218,2.70017 -13.47709,4.90939 -14.58868,4.90939 -2.53847,0 -41.78443,-14.40841 -43.25702,-15.881 -0.59711,-0.59712 -0.89067,-1.26399 -0.65233,-1.48193 1.55117,-1.41849 192.21909,-98.63707 193.44989,-98.63707 0.84494,0 7.50316,3.99356 14.79604,8.87457 9.73408,6.51488 14.31373,8.9882 17.22359,9.30191 3.06724,0.33068 9.33579,3.99105 27.71381,16.18279 20.80313,13.80054 26.68703,18.64073 22.66034,18.64073 -0.59931,0 -5.82695,4.3875 -11.61698,9.75 -12.94757,11.99153 -122.36417,137.61268 -120.22081,138.02545 0.7895,0.15205 17.17826,-6.28651 36.41945,-14.30789 l 34.98399,-14.58435 4.512,2.24322 c 2.48161,1.23377 8.6243,5.08505 13.65043,8.5584 5.02614,3.47334 9.55303,6.31517 10.05977,6.31517 0.50674,0 3.2937,-2.025 6.19323,-4.5 2.89954,-2.475 6.02264,-4.48097 6.94023,-4.45771 0.91759,0.0233 5.04335,2.71343 9.16835,5.97814 6.15747,4.87331 7.69152,5.68112 8.56994,4.51283 0.58847,-0.78266 1.62878,-5.83533 2.31182,-11.22814 0.68304,-5.39282 1.87909,-12.28012 2.6579,-15.30512 1.61021,-6.25429 4.46034,-25.51182 4.46034,-30.13726 0,-2.08555 -0.40269,-2.90104 -1.25,-2.53139 -0.6875,0.29994 -6.98328,2.8104 -13.99062,5.5788 l -12.74062,5.03347 -3.25938,-1.87217 c -1.79266,-1.02969 -11.02188,-4.69227 -20.50938,-8.13906 -9.4875,-3.44679 -17.25,-6.80323 -17.25,-7.45875 0,-0.65552 18.7875,-10.78466 41.75,-22.50921 22.9625,-11.72455 45.04469,-23.30161 49.07153,-25.72679 9.51879,-5.73274 98.28686,-51.23487 99.95488,-51.23644 0.70203,-6.6e-4 7.32764,4.0488 14.72359,8.9988 10.02638,6.71051 14.28066,9.00539 16.72359,9.02118 2.53372,0.0164 8.77332,3.64066 27.52641,15.98879 13.92477,9.16888 24.25,16.61106 24.25,17.47882 0,0.83116 -0.45139,1.51121 -1.00309,1.51121 -3.47861,0 -28.93905,27.41076 -77.90496,83.87261 -29.75057,34.30494 -54.09195,62.76744 -54.09195,63.25 0,0.48257 0.45449,0.87739 1.00998,0.87739 0.55549,0 16.70787,-6.54528 35.89418,-14.54506 l 34.8842,-14.54505 5.67038,3.06778 c 3.1187,1.68729 9.18786,5.53256 13.48702,8.54506 4.29915,3.0125 8.36649,5.47727 9.03851,5.47727 0.67203,0 3.47416,-2.025 6.22695,-4.5 2.7528,-2.475 5.65761,-4.5 6.45515,-4.5 1.38677,0 30.0331,21.47802 37.33363,27.99147 1.925,1.71746 4.68297,3.75533 6.12882,4.52861 4.91914,2.63087 4.49807,4.34567 -2.83456,11.54369 -3.73684,3.66824 -56.96926,54.58346 -118.29426,113.14493 -61.325,58.56147 -118.31855,113.07148 -126.65233,121.13335 -8.33378,8.06187 -15.75878,14.59895 -16.5,14.52683 -0.74122,-0.0721 -3.82267,-0.47327 -6.84767,-0.89145 z m 107.5,-172.09715 c 22,-23.07267 45.74493,-47.97841 52.76651,-55.34608 7.02158,-7.36767 12.42158,-13.60491 12,-13.86055 -0.71426,-0.43311 -21.23996,8.66786 -74.76651,33.15102 -17.41597,7.9661 -22.15571,10.54339 -22.74727,12.36909 -0.72108,2.2254 -9.75443,62.0164 -9.75329,64.55624 3.1e-4,0.6875 0.56306,1.21189 1.25056,1.16531 0.6875,-0.0466 19.25,-18.96235 41.25,-42.03503 z M 270.29214,501.79132 c 45.1384,-47.16481 54.17198,-57.00055 52.35178,-57.00055 -0.15655,0 -11.74405,5.2141 -25.75,11.58688 -14.00594,6.37278 -35.36535,16.0791 -47.46535,21.56961 -12.1,5.4905 -22.50246,10.5139 -23.11658,11.16312 -0.9537,1.00821 -10.39602,60.94408 -10.38669,65.93039 0.002,0.9625 0.39187,1.75 0.86684,1.75 0.47496,0 24.54996,-24.74975 53.5,-54.99945 z m 221.04815,-152.8709 c 16.80335,-24.67869 30.83295,-45.60369 31.1769,-46.5 0.34395,-0.89631 0.19956,-1.62965 -0.32086,-1.62965 -2.12697,0 -60.72489,22.87138 -61.043,23.82572 -0.18952,0.56857 1.74316,1.34684 4.29486,1.72949 2.55169,0.38265 4.82286,1.20177 5.04704,1.82026 0.22418,0.61849 -2.24833,15.29195 -5.49446,32.60768 -5.26817,28.10185 -5.95042,33.01685 -4.58309,33.01685 0.20409,0 14.11926,-20.19166 30.92261,-44.87035 z M 279.91014,322.80387 c 16.76487,-24.69639 30.63987,-45.37741 30.83333,-45.95782 0.19347,-0.5804 -0.24823,-1.04046 -0.98157,-1.02235 -2.58832,0.0639 -60.22008,22.62731 -60.58405,23.71924 -0.21399,0.64195 1.51898,1.39045 4.12352,1.78103 2.47094,0.37054 4.68353,1.18965 4.91687,1.82025 0.23334,0.6306 -2.20144,15.09655 -5.41063,32.14655 -3.20918,17.05 -5.84482,31.3375 -5.85696,31.75 -0.10588,3.59666 6.57774,-5.37383 32.95949,-44.2369 z"
       id="path4168"
       inkscape:connector-curvature="0" />
  </g>
</svg>
