<?xml version="1.0" encoding="UTF-8" standalone="no"?>
<!-- Created with Inkscape (http://www.inkscape.org/) -->

<svg
   xmlns:dc="http://purl.org/dc/elements/1.1/"
   xmlns:cc="http://creativecommons.org/ns#"
   xmlns:rdf="http://www.w3.org/1999/02/22-rdf-syntax-ns#"
   xmlns:svg="http://www.w3.org/2000/svg"
   xmlns="http://www.w3.org/2000/svg"
   xmlns:sodipodi="http://sodipodi.sourceforge.net/DTD/sodipodi-0.dtd"
   xmlns:inkscape="http://www.inkscape.org/namespaces/inkscape"
   width="49.388889mm"
   height="16.933485mm"
   viewBox="0 0 175 60.000537"
   id="svg2"
   version="1.1"
   inkscape:version="0.91 r13725"
   sodipodi:docname="hsm.svg">
  <defs
     id="defs4" />
  <sodipodi:namedview
     id="base"
     pagecolor="#ffffff"
     bordercolor="#666666"
     borderopacity="1.0"
     inkscape:pageopacity="0.0"
     inkscape:pageshadow="2"
     inkscape:zoom="1.4"
     inkscape:cx="229.52651"
     inkscape:cy="37.690345"
     inkscape:document-units="px"
     inkscape:current-layer="layer1"
     showgrid="false"
     fit-margin-top="0"
     fit-margin-left="0"
     fit-margin-right="0"
     fit-margin-bottom="0"
     inkscape:window-width="1920"
     inkscape:window-height="1005"
     inkscape:window-x="-9"
     inkscape:window-y="-9"
     inkscape:window-maximized="1" />
  <metadata
     id="metadata7">
    <rdf:RDF>
      <cc:Work
         rdf:about="">
        <dc:format>image/svg+xml</dc:format>
        <dc:type
           rdf:resource="http://purl.org/dc/dcmitype/StillImage" />
        <dc:title></dc:title>
      </cc:Work>
    </rdf:RDF>
  </metadata>
  <g
     inkscape:label="Layer 1"
     inkscape:groupmode="layer"
     id="layer1"
     transform="translate(-100.35715,-335.93355)">
    <g
       id="g4147"
       transform="translate(-66.428571,-7.8571413)">
      <path
         style="fill-opacity:1"
         d="m 166.78572,373.79077 0,-30 4.5,0 4.5,0 0,30 0,30 -4.5,0 -4.5,0 0,-30 z m 25.21725,18.75 0.28275,-11.25 10.75,-0.28383 10.75,-0.28383 0,11.53383 0,11.53383 -11.03275,0 -11.03275,0 0.28275,-11.25 z m 38.78275,-18.75 0,-30 11.15004,0 11.15004,0 -4.01734,2.91014 c -4.52716,3.27946 -8.28274,10.08281 -8.28274,15.00446 0,8.60991 5.72247,13.69865 21.53326,19.14858 10.60382,3.65511 13.22743,5.64694 11.55476,8.77235 -2.2667,4.23536 -10.73498,3.85673 -20.28162,-0.90683 l -5.6936,-2.84098 -4.15903,4.9675 c -2.53124,3.02329 -3.9297,5.56511 -3.5731,6.49441 0.32226,0.8398 2.95594,2.63029 5.85263,3.97887 l 5.2667,2.45196 -10.25,0.01 -10.25,0.01 0,-30 z m 51.02868,27.90696 c 9.6648,-5.60687 11.61728,-19.632 3.69827,-26.56561 -3.24164,-2.83827 -6.02401,-4.22708 -17.1227,-8.54671 -3.24266,-1.26205 -6.53815,-3.27415 -7.3233,-4.47134 -1.28495,-1.95927 -1.20885,-2.3954 0.76185,-4.3661 2.63964,-2.63964 7.51865,-2.31609 14.25592,0.94536 2.383,1.15359 4.61589,2.09744 4.96197,2.09744 0.34608,0 2.45926,-2.5556 4.69596,-5.67911 l 4.06672,-5.6791 -4.76169,-2.80384 -4.76168,-2.80385 9.5354,-0.017 9.53541,-0.017 5.96459,10.15775 c 3.28053,5.58677 6.4146,10.17278 6.9646,10.19114 0.55,0.0184 3.68407,-4.55263 6.9646,-10.15776 l 5.96459,-10.19113 8.28541,0 8.2854,0 0,30 0,30 -7.5,0 -7.5,0 0,-16.05902 c 0,-9.43271 -0.37677,-15.82616 -0.91312,-15.49468 -0.50221,0.31039 -3.69279,5.06195 -7.09017,10.55902 -3.39738,5.49708 -6.47397,9.97858 -6.83688,9.95889 -0.36291,-0.0197 -3.58483,-4.85718 -7.15983,-10.75 l -6.5,-10.71421 -0.27477,16.25 -0.27477,16.25 -9.72523,-0.023 -9.72523,-0.023 3.52868,-2.0471 z m -90.02868,-46.90696 0,-11 11,0 11,0 0,11 0,11 -11,0 -11,0 0,-11 z"
         id="path4151"
         inkscape:connector-curvature="0" />
      <path
         style="fill-opacity:1"
         d="m 166.78572,373.79077 0,-30 4,0 4,0 0,30 0,30 -4,0 -4,0 0,-30 z m 26,19 0,-11 10.5,0 10.5,0 0,11 0,11 -10.5,0 -10.5,0 0,-11 z m 38,-19 0,-30 10.49668,0 10.49669,0 -4.89762,4.75 c -6.00813,5.82705 -8.00199,11.28187 -6.25506,17.11262 2.0707,6.91136 8.44267,11.48549 22.39217,16.07423 8.55501,2.81421 11.70904,5.22366 10.14558,7.7505 -1.93658,3.12988 -12.50983,2.5061 -19.75626,-1.16554 l -5.87781,-2.97819 -2.963,3.47819 c -1.62966,1.91301 -3.68464,4.54524 -4.56664,5.84942 -1.49642,2.21273 -1.47364,2.4707 0.34082,3.85913 1.06945,0.81835 3.74445,2.32891 5.94445,3.35681 l 4,1.86891 -9.75,0.022 -9.75,0.022 0,-30 z m 52.07832,27.7262 c 5.50375,-3.70897 7.92224,-8.17582 7.91794,-14.62408 -0.007,-9.79255 -4.64888,-14.54104 -19.19081,-19.62959 -8.67685,-3.03623 -11.83529,-5.61032 -10.16098,-8.28107 1.78176,-2.84212 9.08022,-2.71117 14.67443,0.26331 2.63281,1.39988 4.93405,2.54523 5.11387,2.54523 0.69494,0 8.56723,-10.96957 8.56723,-11.93793 0,-0.56305 -2.1375,-2.13641 -4.75,-3.49634 l -4.75,-2.47261 9.16476,-0.0466 9.16475,-0.0466 6.33525,10.95959 c 3.48438,6.02777 6.78524,10.82802 7.33524,10.66722 0.55,-0.1608 3.82882,-5.09261 7.28628,-10.95959 l 6.28628,-10.66722 7.96372,0 7.96372,0 0,30 0,30 -7.5,0 -7.5,0 0,-16.55902 c 0,-9.40399 -0.38406,-16.32165 -0.88883,-16.00969 -0.48886,0.30214 -3.70094,5.04189 -7.13795,10.53278 -3.43702,5.4909 -6.59794,9.76786 -7.02429,9.50437 -0.42634,-0.2635 -3.5555,-4.97776 -6.95369,-10.47614 -3.39819,-5.49838 -6.58728,-9.74443 -7.08688,-9.43566 -0.4996,0.30877 -0.90836,7.73484 -0.90836,16.50238 l 0,15.94098 -8.64788,0 -8.64789,0 3.37409,-2.2738 z m -90.07832,-46.7262 0,-11 10.5,0 10.5,0 0,11 0,11 -10.5,0 -10.5,0 0,-11 z"
         id="path4149"
         inkscape:connector-curvature="0" />
    </g>
  </g>
</svg>
