<?xml version="1.0" encoding="UTF-8" standalone="no"?>
<!-- Created with Inkscape (http://www.inkscape.org/) -->

<svg
   xmlns:dc="http://purl.org/dc/elements/1.1/"
   xmlns:cc="http://creativecommons.org/ns#"
   xmlns:rdf="http://www.w3.org/1999/02/22-rdf-syntax-ns#"
   xmlns:svg="http://www.w3.org/2000/svg"
   xmlns="http://www.w3.org/2000/svg"
   xmlns:sodipodi="http://sodipodi.sourceforge.net/DTD/sodipodi-0.dtd"
   xmlns:inkscape="http://www.inkscape.org/namespaces/inkscape"
   width="110.46089"
   height="110.50237"
   viewBox="0 0 110.46089 110.50237"
   id="svg2"
   version="1.1"
   inkscape:version="0.91 r13725"
   sodipodi:docname="kids.svg">
  <defs
     id="defs4" />
  <sodipodi:namedview
     id="base"
     pagecolor="#ffffff"
     bordercolor="#666666"
     borderopacity="1.0"
     inkscape:pageopacity="0.0"
     inkscape:pageshadow="2"
     inkscape:zoom="5.6"
     inkscape:cx="5.2973033"
     inkscape:cy="71.375217"
     inkscape:document-units="px"
     inkscape:current-layer="layer1"
     showgrid="false"
     showguides="false"
     fit-margin-top="0"
     fit-margin-left="0"
     fit-margin-right="0"
     fit-margin-bottom="0"
     units="px"
     borderlayer="false"
     inkscape:window-width="1920"
     inkscape:window-height="1018"
     inkscape:window-x="-8"
     inkscape:window-y="-8"
     inkscape:window-maximized="1" />
  <metadata
     id="metadata7">
    <rdf:RDF>
      <cc:Work
         rdf:about="">
        <dc:format>image/svg+xml</dc:format>
        <dc:type
           rdf:resource="http://purl.org/dc/dcmitype/StillImage" />
        <dc:title></dc:title>
      </cc:Work>
    </rdf:RDF>
  </metadata>
  <g
     inkscape:label="Layer 1"
     inkscape:groupmode="layer"
     id="layer1"
     transform="translate(-601.61916,-382.03947)">
    <path
       style="fill:#000000;fill-opacity:1;fill-rule:evenodd;stroke:none;stroke-width:1px;stroke-linecap:butt;stroke-linejoin:miter;stroke-opacity:1"
       d="M 42.105469 0.5 C 41.871355 0.49970984 41.634749 0.51238125 41.394531 0.53515625 C 36.677311 0.98265625 38.750501 4.5483363 39.300781 6.9726562 C 40.006191 10.081456 39.825204 12.693574 37.433594 15.214844 C 34.689644 17.978414 34.130559 24.063503 35.449219 33.001953 C 37.982279 40.046403 39.229924 39.418274 32.021484 37.589844 C 26.581134 36.332054 21.159013 35.213577 16.158203 37.617188 C 13.103983 38.298567 10.148446 40.363941 7.1914062 38.238281 C 5.2710163 36.857791 3.7565894 36.933469 2.6308594 37.755859 C 1.9554494 38.249309 1.4190781 39.010962 1.0175781 39.888672 C -0.95351188 44.197622 3.172245 44.184322 5.546875 44.919922 C 8.591895 45.863422 10.764273 47.326393 11.751953 50.658203 C 12.773303 54.416313 17.761869 57.942281 26.162109 61.269531 C 33.497939 62.610541 33.432956 61.295351 28.316406 66.550781 C 24.506976 70.633351 20.82509 74.770114 20.40625 80.302734 C 19.46921 83.288464 19.780368 86.880866 16.460938 88.378906 C 14.305218 89.351786 13.614372 90.697894 13.763672 92.083984 C 13.853272 92.915624 14.245307 93.764221 14.804688 94.550781 C 17.550817 98.412251 19.601401 94.833221 21.425781 93.144531 C 23.765371 90.979221 26.118767 89.828132 29.498047 90.638672 C 33.263337 91.633212 38.810978 89.076054 45.892578 83.464844 C 50.733858 77.798904 49.558995 77.227098 51.546875 84.267578 C 53.177765 89.607948 54.919983 94.863147 59.501953 97.992188 C 61.619163 100.29655 64.887731 101.8236 64.525391 105.44727 C 64.290041 107.80063 65.109726 109.07297 66.384766 109.63672 C 67.149806 109.9749 68.078183 110.058 69.039062 109.9668 C 73.756263 109.5193 71.683082 105.95361 71.132812 103.5293 C 70.427402 100.42049 70.6084 97.808379 73 95.287109 C 75.74397 92.523539 76.301082 86.43845 74.982422 77.5 C 72.477612 70.44594 71.240353 71.084106 78.439453 72.910156 C 83.879813 74.167946 89.303877 75.286393 94.304688 72.882812 C 97.358928 72.201433 100.31448 70.134136 103.27148 72.259766 C 105.19188 73.640276 106.70433 73.566561 107.83008 72.744141 C 108.5055 72.250701 109.04187 71.487085 109.44336 70.609375 C 111.41443 66.300405 107.28869 66.313715 104.91406 65.578125 C 101.86904 64.634625 99.696664 63.171654 98.708984 59.839844 C 97.687634 56.081704 92.699088 52.555746 84.298828 49.228516 C 76.966638 47.872966 77.041747 49.186877 82.154297 43.935547 C 85.963727 39.852957 89.64365 35.716204 90.0625 30.183594 C 90.99954 27.197854 90.686539 23.603519 94.005859 22.105469 C 96.161609 21.132609 96.854398 19.786471 96.705078 18.400391 C 96.615478 17.568741 96.223443 16.72408 95.664062 15.9375 C 95.149172 15.21348 94.658563 14.750661 94.189453 14.488281 C 92.156673 13.351301 90.525269 15.97168 89.042969 17.34375 C 86.703379 19.50908 84.34804 20.656223 80.96875 19.845703 C 77.20346 18.851143 71.655819 21.410264 64.574219 27.021484 C 59.705399 32.678764 60.883189 33.307228 58.886719 26.236328 C 57.255819 20.895968 55.513591 15.638806 50.931641 12.509766 C 48.814421 10.205426 45.545833 8.6783775 45.908203 5.0546875 C 46.143543 2.7013275 45.323868 1.4289844 44.048828 0.86523438 C 43.475048 0.61159188 42.80781 0.50087047 42.105469 0.5 z M 45.824219 19.882812 C 50.722869 25.141462 54.960211 32.586879 51.462891 34.849609 C 47.067691 37.693249 43.427102 33.928909 42.826172 31.230469 C 41.368582 24.685589 43.697789 22.016912 45.824219 19.882812 z M 77.5625 28.884766 C 78.860614 28.879075 80.031276 29.154886 81.123047 29.445312 C 79.018217 36.316973 74.690682 43.711843 70.982422 41.814453 C 66.322142 39.429913 67.760475 34.393068 69.796875 32.523438 C 72.883894 29.689219 75.398976 28.89425 77.5625 28.884766 z M 27.523438 44.748047 C 29.940812 44.698604 32.119844 44.961823 33.630859 45.642578 C 33.832619 45.732678 34.022569 45.83163 34.199219 45.9375 C 35.141469 46.50218 35.716791 47.286162 35.769531 48.326172 C 36.034591 53.554372 30.955719 54.824864 28.318359 53.996094 C 21.921549 51.985954 20.773281 48.635123 19.988281 45.726562 C 22.450436 45.159478 25.106063 44.797489 27.523438 44.748047 z M 55.380859 46.001953 A 9.0332479 9.0332479 0 0 1 64.414062 55.035156 A 9.0332479 9.0332479 0 0 1 55.380859 64.068359 A 9.0332479 9.0332479 0 0 1 46.347656 55.035156 A 9.0332479 9.0332479 0 0 1 55.380859 46.001953 z M 80.453125 56.269531 C 81.067989 56.265018 81.648073 56.346559 82.142578 56.501953 C 83.341918 56.879003 84.358213 57.304142 85.220703 57.763672 C 88.958233 59.754792 89.834846 62.410217 90.472656 64.773438 C 83.469206 66.386478 74.902326 66.333968 74.691406 62.173828 C 74.476029 57.925932 77.788715 56.289087 80.453125 56.269531 z M 38.072266 68.376953 C 38.549607 68.342989 39.022799 68.436651 39.486328 68.673828 C 44.146618 71.058358 42.710248 76.093251 40.673828 77.962891 C 35.734598 82.497641 32.257103 81.813523 29.345703 81.039062 C 31.187421 75.026342 34.730875 68.614705 38.072266 68.376953 z M 62.359375 74.646484 C 62.985037 74.678718 63.574136 74.831257 64.115234 75.072266 C 65.970434 75.898556 67.269362 77.753634 67.607422 79.271484 C 69.064982 85.816364 66.735715 88.485021 64.609375 90.619141 C 59.710715 85.360471 55.473403 77.917047 58.970703 75.654297 C 60.172516 74.876728 61.316605 74.592762 62.359375 74.646484 z "
       transform="translate(601.61916,382.03947)"
       id="path4147" />
  </g>
</svg>
