<?xml version="1.0" encoding="UTF-8" standalone="no"?>
<!-- Created with Inkscape (http://www.inkscape.org/) -->

<svg
   xmlns:dc="http://purl.org/dc/elements/1.1/"
   xmlns:cc="http://creativecommons.org/ns#"
   xmlns:rdf="http://www.w3.org/1999/02/22-rdf-syntax-ns#"
   xmlns:svg="http://www.w3.org/2000/svg"
   xmlns="http://www.w3.org/2000/svg"
   xmlns:sodipodi="http://sodipodi.sourceforge.net/DTD/sodipodi-0.dtd"
   xmlns:inkscape="http://www.inkscape.org/namespaces/inkscape"
   width="94.866524"
   height="93.891518"
   viewBox="0 0 94.866519 93.891518"
   id="svg2"
   version="1.1"
   inkscape:version="0.91 r13725"
   sodipodi:docname="lg.svg">
  <defs
     id="defs4" />
  <sodipodi:namedview
     id="base"
     pagecolor="#ffffff"
     bordercolor="#666666"
     borderopacity="1.0"
     inkscape:pageopacity="0.0"
     inkscape:pageshadow="2"
     inkscape:zoom="3.959798"
     inkscape:cx="-47.599459"
     inkscape:cy="12.985107"
     inkscape:document-units="px"
     inkscape:current-layer="layer1"
     showgrid="false"
     inkscape:window-width="1920"
     inkscape:window-height="1018"
     inkscape:window-x="-8"
     inkscape:window-y="-8"
     inkscape:window-maximized="1"
     units="px"
     fit-margin-top="0"
     fit-margin-left="0"
     fit-margin-right="0"
     fit-margin-bottom="0" />
  <metadata
     id="metadata7">
    <rdf:RDF>
      <cc:Work
         rdf:about="">
        <dc:format>image/svg+xml</dc:format>
        <dc:type
           rdf:resource="http://purl.org/dc/dcmitype/StillImage" />
        <dc:title />
      </cc:Work>
    </rdf:RDF>
  </metadata>
  <g
     inkscape:label="Layer 1"
     inkscape:groupmode="layer"
     id="layer1"
     transform="translate(-82.360191,-304.0389)">
    <path
       style="color:#000000;font-style:normal;font-variant:normal;font-weight:normal;font-stretch:normal;font-size:medium;line-height:normal;font-family:sans-serif;text-indent:0;text-align:start;text-decoration:none;text-decoration-line:none;text-decoration-style:solid;text-decoration-color:#000000;letter-spacing:normal;word-spacing:normal;text-transform:none;direction:ltr;block-progression:tb;writing-mode:lr-tb;baseline-shift:baseline;text-anchor:start;white-space:normal;clip-rule:nonzero;display:inline;overflow:visible;visibility:visible;opacity:1;isolation:auto;mix-blend-mode:normal;color-interpolation:sRGB;color-interpolation-filters:linearRGB;solid-color:#000000;solid-opacity:1;fill:#000000;fill-opacity:1;fill-rule:evenodd;stroke:none;stroke-width:4.30000019;stroke-linecap:butt;stroke-linejoin:miter;stroke-miterlimit:4;stroke-dasharray:none;stroke-dashoffset:0;stroke-opacity:1;color-rendering:auto;image-rendering:auto;shape-rendering:auto;text-rendering:auto;enable-background:accumulate"
       d="m 82.447266,304.03906 0,2.15039 0.002,-0.0312 c -0.34422,23.60029 0.448664,47.16757 0.04492,70.61524 l -0.002,0.0195 0,0.0176 c -10e-7,11.64674 9.442825,21.09179 21.089844,21.09179 23.50921,0.0973 49.01135,-0.0907 71.45117,-0.0801 l 2.14844,0 0.002,-2.14844 c 0.0154,-23.80028 0.0447,-49.51524 0.043,-70.46485 0,-11.64542 -9.44101,-21.08769 -21.08594,-21.08984 l -0.004,0 c -24.16955,-0.031 -50.2301,-0.0834 -71.539066,-0.0801 l -2.15039,0 z M 86.75,308.3418 c 20.93346,-2e-5 45.93914,0.0481 69.38477,0.0781 l 0.002,0 c 9.33917,0 16.79101,7.44989 16.79101,16.78906 0.002,20.30725 -0.0273,45.13079 -0.043,68.31446 -21.96415,8.8e-4 -46.52405,0.17242 -69.29297,0.0781 l -0.004,0 -0.006,0 c -9.338912,0 -16.789061,-7.45184 -16.789061,-16.79101 0.392826,-22.87172 -0.310318,-45.7185 -0.04275,-68.46871 z"
       id="rect3353"
       inkscape:connector-curvature="0" />
    <g
       transform="scale(1.0023768,0.99762884)"
       style="font-style:normal;font-weight:normal;font-size:51.33485794px;line-height:125%;font-family:sans-serif;text-align:center;letter-spacing:0px;word-spacing:0px;text-anchor:middle;fill:#000000;fill-opacity:1;stroke:none;stroke-width:1px;stroke-linecap:butt;stroke-linejoin:miter;stroke-opacity:1"
       id="text4147">
      <path
         d="m 95.862281,331.77553 11.354829,0 0,27.69776 17.72156,0 0,9.04877 -29.076389,0 0,-36.74653 z"
         style="font-style:normal;font-variant:normal;font-weight:900;font-stretch:normal;font-family:Arial;-inkscape-font-specification:'Arial Heavy';text-align:center;text-anchor:middle"
         id="path4137" />
      <path
         d="m 152.76176,362.45613 -12.93398,0 -1.77968,6.06593 -11.60548,0 13.81128,-36.74653 12.38253,0 13.81128,36.74653 -11.88121,0 -1.80474,-6.06593 z m -2.38126,-7.94588 -4.06067,-13.2097 -4.0356,13.2097 8.09627,0 z"
         style="font-style:normal;font-variant:normal;font-weight:900;font-stretch:normal;font-family:Arial;-inkscape-font-specification:'Arial Heavy';text-align:center;text-anchor:middle"
         id="path4139" />
    </g>
  </g>
</svg>
