<?xml version="1.0" encoding="UTF-8" standalone="no"?>
<!-- Created with Inkscape (http://www.inkscape.org/) -->

<svg
   xmlns:dc="http://purl.org/dc/elements/1.1/"
   xmlns:cc="http://creativecommons.org/ns#"
   xmlns:rdf="http://www.w3.org/1999/02/22-rdf-syntax-ns#"
   xmlns:svg="http://www.w3.org/2000/svg"
   xmlns="http://www.w3.org/2000/svg"
   xmlns:sodipodi="http://sodipodi.sourceforge.net/DTD/sodipodi-0.dtd"
   xmlns:inkscape="http://www.inkscape.org/namespaces/inkscape"
   width="60.395557mm"
   height="20.884445mm"
   viewBox="0 0 214.00001 74.000002"
   id="svg4209"
   version="1.1"
   inkscape:version="0.91 r13725"
   sodipodi:docname="msm.svg">
  <defs
     id="defs4211" />
  <sodipodi:namedview
     id="base"
     pagecolor="#ffffff"
     bordercolor="#666666"
     borderopacity="1.0"
     inkscape:pageopacity="0.0"
     inkscape:pageshadow="2"
     inkscape:zoom="3.959798"
     inkscape:cx="82.233473"
     inkscape:cy="41.494664"
     inkscape:document-units="px"
     inkscape:current-layer="layer1"
     showgrid="false"
     fit-margin-top="0"
     fit-margin-left="0"
     fit-margin-right="0"
     fit-margin-bottom="0"
     showguides="false"
     inkscape:window-width="1920"
     inkscape:window-height="1005"
     inkscape:window-x="-9"
     inkscape:window-y="-9"
     inkscape:window-maximized="1" />
  <metadata
     id="metadata4214">
    <rdf:RDF>
      <cc:Work
         rdf:about="">
        <dc:format>image/svg+xml</dc:format>
        <dc:type
           rdf:resource="http://purl.org/dc/dcmitype/StillImage" />
        <dc:title></dc:title>
      </cc:Work>
    </rdf:RDF>
  </metadata>
  <g
     inkscape:label="Layer 1"
     inkscape:groupmode="layer"
     id="layer1"
     transform="translate(-347.28571,-352.50507)">
    <path
       style="fill-opacity:1"
       d="m 348.28571,389.50507 0,-36 24.72113,-0.14404 c 5.37491,11.99363 14.18082,36.93332 14.18082,36.93332 5.8193,-11.75253 15.42149,-37.04821 15.42149,-37.04821 l 39.4388,0.14526 -5.11404,3.02875 c -6.43732,3.81246 -10.76508,9.24589 -11.41007,15.95838 -1.42966,14.8788 4.93677,20.92097 27.61553,26.20896 9.23146,2.1525 11.14634,3.18039 11.14634,5.98328 0,6.96768 -16.63992,6.40619 -27.2894,-0.92085 l -4.54687,-3.12832 -4.58186,6.42091 c -2.52003,3.5315 -4.58187,6.88115 -4.58187,7.44367 0,1.75063 9.04697,7.34696 14.90894,9.22246 l 5.59106,1.78883 -16.75,0.0538 -16.75,0.0538 -1.16107,-44.97609 c 0,0 -4.72617,11.18816 -9.22726,23 l -8.54092,22.10109 -7.57074,-0.065 -8.5,-22.62385 c -4.675,-12.44312 -8.8375,-22.83317 -9.25,-23.08901 -0.4125,-0.25584 -0.75,9.91139 -0.75,22.59385 l 0,23.05902 -8.5,0 -8.5,0 z m 120.59564,33.93559 c 2.8026,-1.07811 6.7401,-3.60466 8.75,-5.61456 l 3.65436,-3.65436 0,5.66666 0,5.66667 -8.75,-0.0521 -8.75,-0.0521 5.09564,-1.9602 z m 31.45647,-19.68559 0.0521,-21.75 3.73611,9.5 c 2.05485,5.225 5.7439,14.78734 8.19788,21.24965 l 4.4618,11.74965 4.50561,3.5e-4 4.50562,3.5e-4 7.87948,-20.5 c 4.33371,-11.275 8.24438,-20.5 8.24438,-20.5 l 0.36491,42 -21,0 -21,0 z m -22.11277,-15.82309 c -2.27628,-2.74275 -8.72127,-5.4402 -20.18328,-8.44738 -11.47269,-3.00999 -14.47314,-4.66847 -13.41843,-7.417 1.74426,-4.54546 11.43915,-4.26394 21.57182,0.62639 l 6.40946,3.0934 1.8675,-2.56366 c 1.02712,-1.41001 2.74039,-3.61104 3.80727,-4.89116 l 1.93978,-2.3275 0.0333,11.75 c 0.0183,6.4625 -0.13663,11.75 -0.34429,11.75 -0.20765,0 -0.96505,-0.70789 -1.6831,-1.57309 z m 35.75828,-15.74522 c -3.68369,-9.52507 -7.05476,-18.71429 -7.05476,-18.71429 l 28.94209,-0.0567 c 0,0 -14.10872,36.08929 -14.57323,36.08929 -0.33906,0 -3.63041,-7.79324 -7.3141,-17.3183 z m -36.5996,-13.32559 c -1.29085,-0.90415 -4.42848,-2.4581 -6.97251,-3.45323 l -4.62551,-1.80932 7.25,-0.0468 7.25,-0.0468 0,3.5 c 0,1.925 -0.12487,3.5 -0.27749,3.5 -0.15263,0 -1.33365,-0.73976 -2.62449,-1.6439 z"
       id="path4232"
       inkscape:connector-curvature="0"
       sodipodi:nodetypes="ccccccssssscsssccccccccccccccccscccccccccssccccccccccssscsscssccccscccscccssc" />
  </g>
</svg>
