<?xml version="1.0" encoding="UTF-8" standalone="no"?>
<!-- Created with Inkscape (http://www.inkscape.org/) -->

<svg
   xmlns:dc="http://purl.org/dc/elements/1.1/"
   xmlns:cc="http://creativecommons.org/ns#"
   xmlns:rdf="http://www.w3.org/1999/02/22-rdf-syntax-ns#"
   xmlns:svg="http://www.w3.org/2000/svg"
   xmlns="http://www.w3.org/2000/svg"
   xmlns:sodipodi="http://sodipodi.sourceforge.net/DTD/sodipodi-0.dtd"
   xmlns:inkscape="http://www.inkscape.org/namespaces/inkscape"
   width="94.866524"
   height="93.891518"
   viewBox="0 0 94.866519 93.891518"
   id="svg2"
   version="1.1"
   inkscape:version="0.91 r13725"
   sodipodi:docname="se.svg">
  <defs
     id="defs4" />
  <sodipodi:namedview
     id="base"
     pagecolor="#ffffff"
     bordercolor="#666666"
     borderopacity="1.0"
     inkscape:pageopacity="0.0"
     inkscape:pageshadow="2"
     inkscape:zoom="3.959798"
     inkscape:cx="27.783174"
     inkscape:cy="12.985107"
     inkscape:document-units="px"
     inkscape:current-layer="layer1"
     showgrid="false"
     inkscape:window-width="1920"
     inkscape:window-height="1005"
     inkscape:window-x="-9"
     inkscape:window-y="-9"
     inkscape:window-maximized="1"
     units="px"
     fit-margin-top="0"
     fit-margin-left="0"
     fit-margin-right="0"
     fit-margin-bottom="0" />
  <metadata
     id="metadata7">
    <rdf:RDF>
      <cc:Work
         rdf:about="">
        <dc:format>image/svg+xml</dc:format>
        <dc:type
           rdf:resource="http://purl.org/dc/dcmitype/StillImage" />
        <dc:title></dc:title>
      </cc:Work>
    </rdf:RDF>
  </metadata>
  <g
     inkscape:label="Layer 1"
     inkscape:groupmode="layer"
     id="layer1"
     transform="translate(-82.360191,-304.0389)">
    <path
       style="color:#000000;font-style:normal;font-variant:normal;font-weight:normal;font-stretch:normal;font-size:medium;line-height:normal;font-family:sans-serif;text-indent:0;text-align:start;text-decoration:none;text-decoration-line:none;text-decoration-style:solid;text-decoration-color:#000000;letter-spacing:normal;word-spacing:normal;text-transform:none;direction:ltr;block-progression:tb;writing-mode:lr-tb;baseline-shift:baseline;text-anchor:start;white-space:normal;clip-rule:nonzero;display:inline;overflow:visible;visibility:visible;opacity:1;isolation:auto;mix-blend-mode:normal;color-interpolation:sRGB;color-interpolation-filters:linearRGB;solid-color:#000000;solid-opacity:1;fill:#000000;fill-opacity:1;fill-rule:evenodd;stroke:none;stroke-width:4.30000019;stroke-linecap:butt;stroke-linejoin:miter;stroke-miterlimit:4;stroke-dasharray:none;stroke-dashoffset:0;stroke-opacity:1;color-rendering:auto;image-rendering:auto;shape-rendering:auto;text-rendering:auto;enable-background:accumulate"
       d="m 82.447266,304.03906 0,2.15039 0.002,-0.0312 c -0.34422,23.60029 0.448664,47.16757 0.04492,70.61524 l -0.002,0.0195 0,0.0176 c -10e-7,11.64674 9.442825,21.09179 21.089844,21.09179 23.50921,0.0973 49.01135,-0.0907 71.45117,-0.0801 l 2.14844,0 0.002,-2.14844 c 0.0154,-23.80028 0.0447,-49.51524 0.043,-70.46485 0,-11.64542 -9.44101,-21.08769 -21.08594,-21.08984 l -0.004,0 c -24.16955,-0.031 -50.2301,-0.0834 -71.539066,-0.0801 l -2.15039,0 z M 86.75,308.3418 c 20.93346,-2e-5 45.93914,0.0481 69.38477,0.0781 l 0.002,0 c 9.33917,0 16.79101,7.44989 16.79101,16.78906 0.002,20.30725 -0.0273,45.13079 -0.043,68.31446 -21.96415,8.8e-4 -46.52405,0.17242 -69.29297,0.0781 l -0.004,0 -0.006,0 c -9.338912,0 -16.789061,-7.45184 -16.789061,-16.79101 0.392826,-22.87172 -0.310318,-45.7185 -0.04275,-68.46871 z"
       id="rect3353"
       inkscape:connector-curvature="0" />
    <g
       transform="scale(0.99772094,1.0022843)"
       style="font-style:normal;font-weight:normal;font-size:55.51618195px;line-height:125%;font-family:sans-serif;letter-spacing:0px;word-spacing:0px;fill:#000000;fill-opacity:1;stroke:none;stroke-width:1px;stroke-linecap:butt;stroke-linejoin:miter;stroke-opacity:1"
       id="text4175">
      <path
         d="m 129.53189,349.89147 c 0,3.97577 -1.6897,7.2106 -5.0691,9.70449 -3.36133,2.47582 -7.93347,3.71373 -13.7164,3.71373 -3.34326,0 -5.80585,-0.39346 -8.43934,-1.49736 -2.630993,-1.10285 -5.683924,-3.17306 -6.966622,-4.95851 l 4.55607,-6.2129 c 1.966782,1.62916 2.473782,2.14786 3.919602,2.88686 2.26042,1.15537 4.79783,2.32734 7.25558,2.32734 0.63251,0 1.4638,-0.0542 2.49389,-0.16265 1.03009,-0.10843 1.87042,-0.28914 2.521,-0.54215 0.79515,-0.32529 1.44573,-0.7319 1.95174,-1.21983 0.52408,-0.48794 0.78612,-1.21081 0.78612,-2.1686 0,-0.88551 -0.37951,-1.64453 -1.13852,-2.27704 -0.74094,-0.65058 -1.83428,-1.14755 -3.28001,-1.49091 -1.51802,-0.36143 -3.1264,-0.69576 -4.82513,-1.00298 -1.68067,-0.32529 -3.26194,-0.7319 -4.74382,-1.21983 -3.39747,-1.10237 -5.846184,-2.59329 -7.346133,-4.47274 -1.481877,-1.89753 -2.222816,-4.24685 -2.222816,-7.04796 0,-3.75891 1.680666,-6.82205 5.041999,-9.18944 3.3794,-2.38546 8.44705,-3.41984 13.0116,-3.38922 2.63352,0.0177 5.17417,0.30865 7.81644,1.05336 2.9255,0.82459 6.30645,2.87385 7.68941,4.49722 l -4.47449,6.44723 c -2.898,-2.21087 -3.53764,-2.90739 -5.67033,-3.78739 -2.13269,-0.88 -2.60509,-0.97194 -5.06284,-0.97194 -0.86745,0 -1.73489,0.0632 -2.60233,0.18976 -0.84937,0.10843 -1.67163,0.32529 -2.46678,0.65058 -0.70479,0.27107 -1.31019,0.68672 -1.8162,1.24694 -0.50601,0.54215 -0.75901,1.16563 -0.75901,1.87042 0,1.06623 0.40661,1.88849 1.21984,2.46678 0.81322,0.56023 2.34931,1.07527 4.60827,1.54513 1.48188,0.30722 2.90051,0.6054 4.25588,0.89455 1.37345,0.28915 2.84629,0.68672 4.41853,1.19273 3.09025,1.01201 5.36728,2.3945 6.83109,4.14745 1.48187,1.73488 2.22281,3.99384 2.22281,6.77688 z"
         style="font-style:normal;font-variant:normal;font-weight:bold;font-stretch:normal;font-family:sans-serif;-inkscape-font-specification:'sans-serif Bold';fill:#000000;fill-opacity:1"
         id="path4180"
         inkscape:connector-curvature="0"
         sodipodi:nodetypes="scsaccassccscccccscsscczscccscccccs" />
      <path
         d="m 163.55634,362.93411 -29.19479,0 0,-40.36308 29.19479,0 0,7.80696 -18.83972,0 0,8.09352 18.82669,0 0,7.80697 -18.82669,0 0,8.84867 18.83972,0 z"
         style="font-style:normal;font-variant:normal;font-weight:bold;font-stretch:normal;font-family:sans-serif;-inkscape-font-specification:'sans-serif Bold';fill:#000000;fill-opacity:1"
         id="path4182"
         inkscape:connector-curvature="0"
         sodipodi:nodetypes="ccccccccccccc" />
    </g>
    <g
       transform="scale(0.98823013,1.01191)"
       style="font-style:normal;font-weight:normal;font-size:10.98057938px;line-height:125%;font-family:sans-serif;letter-spacing:0px;word-spacing:0px;fill:#000000;fill-opacity:1;stroke:none;stroke-width:1px;stroke-linecap:butt;stroke-linejoin:miter;stroke-opacity:1"
       id="text4184">
      <path
         d="m 100.53469,373.49655 q -0.890031,0 -1.646019,-0.26272 -0.750625,-0.26272 -1.292148,-0.78279 -0.541523,-0.52008 -0.841773,-1.29751 -0.294888,-0.77744 -0.294888,-1.79614 0,-0.94901 0.284165,-1.72108 0.284165,-0.77207 0.825688,-1.32432 0.520076,-0.5308 1.286787,-0.82032 0.772072,-0.28953 1.683548,-0.28953 0.50399,0 0.90611,0.059 0.40748,0.0536 0.75063,0.14476 0.35922,0.10187 0.64875,0.23055 0.29489,0.12332 0.51471,0.23055 l 0,1.93554 -0.23591,0 q -0.15012,-0.12868 -0.38067,-0.30561 -0.22519,-0.17693 -0.51471,-0.34851 -0.29489,-0.17157 -0.63804,-0.28952 -0.34314,-0.11796 -0.73454,-0.11796 -0.43429,0 -0.82569,0.1394 -0.391393,0.13404 -0.723813,0.45038 -0.316335,0.30561 -0.514715,0.8096 -0.193018,0.50399 -0.193018,1.22245 0,0.75062 0.209103,1.25462 0.214465,0.50399 0.536161,0.79351 0.327059,0.29489 0.729182,0.42357 0.40212,0.12332 0.79352,0.12332 0.37531,0 0.7399,-0.1126 0.36995,-0.11259 0.68092,-0.30561 0.26272,-0.15548 0.48791,-0.33242 0.22519,-0.17693 0.36995,-0.30561 l 0.21446,0 0,1.90873 q -0.30025,0.13405 -0.57369,0.252 -0.27344,0.11796 -0.57369,0.20374 -0.3914,0.1126 -0.73454,0.17157 -0.34314,0.059 -0.94364,0.059 z"
         style="font-style:normal;font-variant:normal;font-weight:bold;font-stretch:normal;font-family:sans-serif;-inkscape-font-specification:'sans-serif Bold'"
         id="path4191" />
      <path
         d="m 112.0407,373.34106 -2.05886,0 0,-3.51721 -3.04003,0 0,3.51721 -2.05886,0 0,-7.98343 2.05886,0 0,2.92207 3.04003,0 0,-2.92207 2.05886,0 0,7.98343 z"
         style="font-style:normal;font-variant:normal;font-weight:bold;font-stretch:normal;font-family:sans-serif;-inkscape-font-specification:'sans-serif Bold'"
         id="path4193" />
      <path
         d="m 118.56042,367.80252 q 0,-0.30025 -0.12332,-0.51471 -0.12331,-0.21447 -0.42356,-0.33779 -0.20911,-0.0858 -0.48791,-0.10187 -0.2788,-0.0214 -0.64875,-0.0214 l -0.74527,0 0,2.15 0.63267,0 q 0.49327,0 0.82569,-0.0483 0.33242,-0.0483 0.55761,-0.21983 0.21446,-0.16621 0.31097,-0.36459 0.10187,-0.20374 0.10187,-0.54152 z m 3.21161,5.53854 -2.5146,0 -2.17681,-2.92744 -0.94901,0 0,2.92744 -2.04813,0 0,-7.98343 3.45287,0 q 0.70774,0 1.21709,0.0804 0.50935,0.0804 0.95437,0.3485 0.45037,0.26809 0.71309,0.69701 0.26808,0.42357 0.26808,1.06696 0,0.88467 -0.41284,1.44228 -0.40749,0.55761 -1.16883,0.92756 l 2.66472,3.4207 z"
         style="font-style:normal;font-variant:normal;font-weight:bold;font-stretch:normal;font-family:sans-serif;-inkscape-font-specification:'sans-serif Bold'"
         id="path4195" />
      <path
         d="m 126.9996,373.34106 -4.67533,0 0,-1.41546 1.30824,0 0,-5.15251 -1.30824,0 0,-1.41546 4.67533,0 0,1.41546 -1.30824,0 0,5.15251 1.30824,0 0,1.41546 z"
         style="font-style:normal;font-variant:normal;font-weight:bold;font-stretch:normal;font-family:sans-serif;-inkscape-font-specification:'sans-serif Bold'"
         id="path4197" />
      <path
         d="m 135.07955,370.83183 q 0,1.17955 -1.00263,1.91946 -0.99725,0.73454 -2.71297,0.73454 -0.9919,0 -1.7318,-0.17157 -0.73454,-0.17694 -1.37793,-0.44502 l 0,-1.91409 0.22518,0 q 0.63803,0.50935 1.42619,0.78279 0.79352,0.27344 1.5227,0.27344 0.18766,0 0.49327,-0.0322 0.30561,-0.0322 0.49863,-0.10724 0.23591,-0.0965 0.38603,-0.24127 0.15549,-0.14476 0.15549,-0.42893 0,-0.26272 -0.22519,-0.45037 -0.21982,-0.19302 -0.64875,-0.29489 -0.45038,-0.10723 -0.95437,-0.19838 -0.49863,-0.0965 -0.93828,-0.24127 -1.00798,-0.32706 -1.453,-0.88467 -0.43965,-0.56297 -0.43965,-1.39402 0,-1.11521 0.99726,-1.81759 1.00262,-0.70773 2.57357,-0.70773 0.78816,0 1.55487,0.15549 0.77207,0.15012 1.33504,0.38067 l 0,1.83904 -0.21982,0 q -0.48255,-0.38604 -1.18492,-0.6434 -0.69701,-0.26272 -1.42619,-0.26272 -0.25736,0 -0.51471,0.0375 -0.252,0.0322 -0.48791,0.12868 -0.2091,0.0804 -0.35923,0.24664 -0.15012,0.16085 -0.15012,0.36995 0,0.31633 0.24127,0.48791 0.24127,0.16621 0.91147,0.30561 0.43965,0.0911 0.84178,0.17693 0.40748,0.0858 0.87394,0.23591 0.91683,0.30025 1.35112,0.82033 0.43966,0.51471 0.43966,1.3404 z"
         style="font-style:normal;font-variant:normal;font-weight:bold;font-stretch:normal;font-family:sans-serif;-inkscape-font-specification:'sans-serif Bold'"
         id="path4199" />
      <path
         d="m 142.74129,366.90177 -2.49315,0 0,6.43929 -2.05886,0 0,-6.43929 -2.49315,0 0,-1.54414 7.04516,0 0,1.54414 z"
         style="font-style:normal;font-variant:normal;font-weight:bold;font-stretch:normal;font-family:sans-serif;-inkscape-font-specification:'sans-serif Bold'"
         id="path4201" />
      <path
         d="m 148.29592,373.34106 -4.67533,0 0,-1.41546 1.30823,0 0,-5.15251 -1.30823,0 0,-1.41546 4.67533,0 0,1.41546 -1.30824,0 0,5.15251 1.30824,0 0,1.41546 z"
         style="font-style:normal;font-variant:normal;font-weight:bold;font-stretch:normal;font-family:sans-serif;-inkscape-font-specification:'sans-serif Bold'"
         id="path4203" />
      <path
         d="m 157.3624,373.34106 -2.12856,0 -0.55224,-1.61384 -2.95961,0 -0.55225,1.61384 -2.07494,0 2.94888,-7.98343 2.36983,0 2.94889,7.98343 z m -3.17943,-3.07756 -0.98118,-2.8631 -0.98117,2.8631 1.96235,0 z"
         style="font-style:normal;font-variant:normal;font-weight:bold;font-stretch:normal;font-family:sans-serif;-inkscape-font-specification:'sans-serif Bold'"
         id="path4205" />
      <path
         d="m 165.78013,373.34106 -1.98379,0 -3.38854,-5.47956 0,5.47956 -1.88729,0 0,-7.98343 2.46098,0 2.91135,4.57345 0,-4.57345 1.88729,0 0,7.98343 z"
         style="font-style:normal;font-variant:normal;font-weight:bold;font-stretch:normal;font-family:sans-serif;-inkscape-font-specification:'sans-serif Bold'"
         id="path4207" />
    </g>
  </g>
</svg>
