<svg xmlns="http://www.w3.org/2000/svg" viewBox="0 0 414.7 71.41"><title>Asset 2</title><g id="1eb74aee-18df-4243-b57e-e9ef699776c6" data-name="Layer 2"><g id="0b014c77-74f2-40db-911b-a4457f0756d7" data-name="Layer 1"><path d="M355.64,49.93c6-.57,10.73-9.22,10.65-13.11a10,10,0,0,0-.41-2.45c.82-.5,9.32-7,9.71-7s.39.21.39.48c-.11,2.3-6.55,12.63-6.32,17.09a3.92,3.92,0,0,0,4,3.56c4.75-.18,17.74-13.67,18.59-21,.22-2.79-1.55-6.08-3.73-6.19-.56,0-1,.22-1,.63,0,.61.33,1.45.27,2.47-.43,4.1-10,18.89-11.34,19-.14,0-.36-.14-.36-.48-.06-1.05,5.16-10.61,5.3-13.18s-1.73-6.07-4.52-6.09c-4,0-8.95,5.26-13,7.05-1.44.62-2.88.92-2.76,2.83.15,3.6-4.88,12.94-7.37,13.22-.43,0-.84-.46-1-1.54-.72-6.07,5.29-12.6,6.87-14s2.6-1.74,2.55-2.63-2.58-2.45-4.39-2.31c-3.87.26-9.14,6.32-10.81,12.38-4.19,7-9.61,16.91-11.37,17.29-.61.12-1.25-.29-1.45-1.26-3.07-11.28,11.4-40.46,11.14-49C344.88,1.81,341.77-.11,341,0s-1.09.77-.94,1.82c.28,9.2-17,36.61-13,49.78,1.45,6,6.22,7.86,8.84,7.36,3.7-.77,7.81-8.08,11-14.25C348,47.88,352.4,50.23,355.64,49.93Z" fill="#231f20"/><path d="M397.18,50.62c4.53.43,13.19-7.1,16.68-10.2a2.54,2.54,0,0,0,.83-1.24,1.44,1.44,0,0,0-1.05-1.44c-.23,0-.41.14-.77.43-4.53,4-11.85,10.13-16.63,9.68-.92-.1-1.64-.85-1.46-2.89a11,11,0,0,1,1.39-4.61,7.49,7.49,0,0,0,2.28,1c3.85.39,9.93-3.77,10.72-8.13.32-2-2-4.78-3.94-5-5.64-.81-15.66,5.1-16.07,13.74C388.85,47.31,392.84,50.15,397.18,50.62Zm8.94-19c.23,0,.35.26.32.53-.46,1.78-7.2,6.3-9.09,6.14C401.69,32.66,405.29,31.49,406.12,31.6Z" fill="#231f20"/><path d="M393.79,53.49h0c-16.42-1.93-49.37-3-58,9.87-2.29,3.44-.87,7.28.15,8a.54.54,0,0,0,.73-.11A15.67,15.67,0,0,1,337.8,69c10.64-16,56.37-13.06,61.85-12.68h0s5.51.35,7.57,2.12a3.32,3.32,0,0,1,.27.25C408.91,58.87,409.86,54.85,393.79,53.49Z" fill="#231f20"/><path d="M14,20.3a13.07,13.07,0,0,1,9.41,3.62.72.72,0,0,1,0,1.09l-3,3.15a.68.68,0,0,1-1,0,7.91,7.91,0,0,0-5.25-2,7.75,7.75,0,0,0-7.62,8,7.71,7.71,0,0,0,7.66,7.89,8.19,8.19,0,0,0,5.21-1.87.77.77,0,0,1,1,0l3,3.23a.78.78,0,0,1,0,1.05A13.38,13.38,0,0,1,14,48.3a14,14,0,1,1,0-28Z" fill="#231f20"/><path d="M42,20.3a14,14,0,1,1-14,14A14,14,0,0,1,42,20.3Zm0,21.78a7.78,7.78,0,1,0-7.74-7.74A7.79,7.79,0,0,0,42,42.08Z" fill="#231f20"/><path d="M62.55,21a.73.73,0,0,1,.74-.7h1L79.78,35.23h0V21.43a.74.74,0,0,1,.73-.74h4.67a.77.77,0,0,1,.74.74V47.6a.73.73,0,0,1-.74.7H84.6a1.26,1.26,0,0,1-.51-.19L68.73,32.67h0v14.5a.74.74,0,0,1-.74.74H63.33a.77.77,0,0,1-.74-.74Z" fill="#231f20"/><path d="M94.54,21a.73.73,0,0,1,.74-.7h1l15.52,14.93h0V21.43a.74.74,0,0,1,.74-.74h4.66a.77.77,0,0,1,.74.74V47.6a.73.73,0,0,1-.74.7h-.62a1.26,1.26,0,0,1-.51-.19L100.72,32.67h0v14.5a.74.74,0,0,1-.74.74H95.32a.77.77,0,0,1-.74-.74Z" fill="#231f20"/><path d="M126.58,21.43a.74.74,0,0,1,.73-.74h16.1a.74.74,0,0,1,.74.74v4.24a.74.74,0,0,1-.74.74H132.64v4.82h8.87a.77.77,0,0,1,.74.74v4.24a.74.74,0,0,1-.74.74h-8.87V42.2h10.77a.73.73,0,0,1,.74.73v4.24a.74.74,0,0,1-.74.74h-16.1a.74.74,0,0,1-.73-.74Z" fill="#231f20"/><path d="M163.36,20.3a13.09,13.09,0,0,1,9.41,3.62.72.72,0,0,1,0,1.09l-3,3.15a.68.68,0,0,1-1,0,7.93,7.93,0,0,0-5.25-2,7.75,7.75,0,0,0-7.62,8,7.7,7.7,0,0,0,7.66,7.89,8.19,8.19,0,0,0,5.21-1.87.77.77,0,0,1,1,0l3,3.23a.76.76,0,0,1,0,1.05,13.34,13.34,0,0,1-9.44,3.77,14,14,0,1,1,0-28Z" fill="#231f20"/><path d="M182.91,26.41h-5.56a.74.74,0,0,1-.74-.74V21.43a.74.74,0,0,1,.74-.74h17.26a.74.74,0,0,1,.74.74v4.24a.74.74,0,0,1-.74.74h-5.56V47.17a.77.77,0,0,1-.74.74h-4.66a.77.77,0,0,1-.74-.74Z" fill="#231f20"/><path d="M201.17,21.43a.74.74,0,0,1,.74-.74H218a.74.74,0,0,1,.74.74v4.24a.74.74,0,0,1-.74.74H207.24v4.82h8.87a.77.77,0,0,1,.74.74v4.24a.74.74,0,0,1-.74.74h-8.87V42.2H218a.73.73,0,0,1,.74.73v4.24a.74.74,0,0,1-.74.74h-16.1a.74.74,0,0,1-.74-.74Z" fill="#231f20"/><path d="M225.9,21.43a.73.73,0,0,1,.7-.74h9.49a13.61,13.61,0,1,1,0,27.22H226.6a.73.73,0,0,1-.7-.74Zm9.8,20.73a7.57,7.57,0,0,0,7.58-7.9,7.56,7.56,0,0,0-7.58-7.85H232V42.16Z" fill="#231f20"/><path d="M267,21.43a.74.74,0,0,1,.74-.74h9.06c4.59,0,8.36,3.15,8.36,7.23,0,3-2.68,5.18-4.51,6.15,2.06.85,5.21,2.76,5.21,6.34,0,4.35-3.85,7.5-8.48,7.5h-9.64a.74.74,0,0,1-.74-.74Zm9.1,10.31a2.77,2.77,0,0,0,2.72-2.8,2.64,2.64,0,0,0-2.72-2.65h-3v5.45Zm.51,10.61a2.82,2.82,0,0,0,2.8-2.84c0-1.55-1.68-2.72-3.19-2.72H273v5.56Z" fill="#231f20"/><path d="M297.59,34.81l-8.6-13a.72.72,0,0,1,.63-1.13h5.05a.77.77,0,0,1,.62.35l5.41,8,5.4-8a.73.73,0,0,1,.62-.35h5.06a.72.72,0,0,1,.62,1.13l-8.71,13v12.4a.77.77,0,0,1-.74.74h-4.62a.74.74,0,0,1-.74-.74Z" fill="#231f20"/></g></g></svg>