<svg xmlns="http://www.w3.org/2000/svg" viewBox="0 0 234.19 189.48"><title>Asset 1</title><g id="253cb26f-70e0-4dba-bbe4-4ac7205b4b35" data-name="Layer 2"><g id="5a3d64b2-2b20-4a79-b7dc-9369e846c342" data-name="Layer 1"><path d="M77.49,132.48C93.3,131,106,108,105.73,97.68a29.13,29.13,0,0,0-1.07-6.49c2.16-1.32,24.72-18.61,25.74-18.48.83,0,1,.54,1,1.27-.28,6.09-17.38,33.5-16.77,45.34a10.38,10.38,0,0,0,10.6,9.43c12.58-.47,47.07-36.25,49.33-55.67.57-7.42-4.13-16.13-9.91-16.45-1.49-.08-2.59.59-2.64,1.68-.09,1.63.86,3.85.71,6.57-1.14,10.88-26.56,50.1-30.08,50.26-.39,0-1-.37-1-1.27-.17-2.77,13.68-28.13,14.06-35,.21-6.88-4.59-16.1-12-16.15-10.63-.09-23.74,14-34.44,18.71C95.53,83.1,91.7,83.89,92,89c.38,9.55-13,34.34-19.56,35.09-1.14.12-2.24-1.23-2.55-4.11C68,103.85,84,86.51,88.15,82.67c4-3.91,6.9-4.61,6.76-7s-6.84-6.51-11.65-6.13C73,70.25,59,86.33,54.59,102.41c-11.12,18.49-25.52,44.86-30.17,45.88-1.62.32-3.32-.78-3.84-3.35C12.42,115,50.81,37.59,50.11,15.05,48.93,4.8,40.69-.28,38.6,0s-2.89,2-2.5,4.83C36.86,29.25-8.89,102,1.55,136.9,5.39,152.79,18,157.76,25,156.42c9.83-2,20.73-21.44,29.18-37.79C57.26,127,68.89,133.26,77.49,132.48Z" fill="#414151"/><path d="M187.68,134.3c12,1.15,35-18.85,44.27-27.06,1.24-1.25,2-2.22,2.21-3.29a3.81,3.81,0,0,0-2.8-3.81c-.59-.1-1.09.37-2,1.12-12,10.59-31.44,26.88-44.12,25.68-2.46-.24-4.37-2.24-3.88-7.65A28.7,28.7,0,0,1,185,107.07s3.72,2.36,6.05,2.61c10.21,1,26.35-10,28.45-21.56.84-5.38-5.24-12.7-10.45-13.37-15-2.12-41.56,13.54-42.64,36.47C165.6,125.52,176.18,133.07,187.68,134.3Zm23.73-50.45a1.11,1.11,0,0,1,.84,1.39c-1.2,4.72-19.1,16.72-24.12,16.3C199.65,86.65,209.21,83.54,211.41,83.85Z" fill="#414151"/><path d="M178.69,141.92h0c-43.54-5.13-131-8-153.74,26.19-6.08,9.13-2.32,19.31.39,21.11a1.43,1.43,0,0,0,1.94-.28c.55-.81.87-2.76,2.87-5.76,28.24-42.37,149.57-34.67,164.09-33.65h0s14.61.91,20.09,5.61a9.24,9.24,0,0,1,.71.68C218.81,156.18,221.32,145.52,178.69,141.92Z" fill="#414151"/><path d="M66.44,27.92a8.48,8.48,0,0,1,6.12,2.35.47.47,0,0,1,0,.71l-2,2.05A.45.45,0,0,1,70,33a5.19,5.19,0,0,0-3.42-1.29,5.18,5.18,0,0,0,0,10.36A5.32,5.32,0,0,0,70,40.88a.5.5,0,0,1,.66,0l2,2.1a.51.51,0,0,1,0,.68,8.7,8.7,0,0,1-6.15,2.46,9.12,9.12,0,1,1,0-18.23Z" fill="#414151"/><path d="M84.62,27.92a9.12,9.12,0,1,1-9.09,9.14A9.09,9.09,0,0,1,84.62,27.92Zm0,14.18a5.07,5.07,0,1,0-5-5A5.07,5.07,0,0,0,84.62,42.1Z" fill="#414151"/><path d="M98,28.37a.47.47,0,0,1,.48-.45h.63l10.11,9.72h0v-9a.49.49,0,0,1,.48-.48h3a.49.49,0,0,1,.48.48v17a.47.47,0,0,1-.48.46h-.4a.74.74,0,0,1-.33-.13L102.07,36h0v9.44a.47.47,0,0,1-.48.48h-3a.49.49,0,0,1-.48-.48Z" fill="#414151"/><path d="M118.88,28.37a.47.47,0,0,1,.48-.45H120l10.1,9.72h0v-9a.49.49,0,0,1,.48-.48h3a.49.49,0,0,1,.48.48v17a.47.47,0,0,1-.48.46h-.4a.74.74,0,0,1-.33-.13L122.91,36h0v9.44a.47.47,0,0,1-.48.48h-3a.49.49,0,0,1-.48-.48Z" fill="#414151"/><path d="M139.75,28.65a.48.48,0,0,1,.48-.48h10.48a.48.48,0,0,1,.48.48v2.76a.48.48,0,0,1-.48.48h-7V35h5.77a.5.5,0,0,1,.48.48v2.76a.48.48,0,0,1-.48.48H143.7v3.42h7a.48.48,0,0,1,.48.48v2.76a.47.47,0,0,1-.48.48H140.23a.47.47,0,0,1-.48-.48Z" fill="#414151"/><path d="M163.7,27.92a8.51,8.51,0,0,1,6.13,2.35.46.46,0,0,1,0,.71l-2,2.05a.43.43,0,0,1-.63,0,5.21,5.21,0,0,0-3.42-1.29,5.18,5.18,0,0,0,0,10.36,5.35,5.35,0,0,0,3.4-1.22.49.49,0,0,1,.65,0l2,2.1a.5.5,0,0,1,0,.68,8.7,8.7,0,0,1-6.15,2.46,9.12,9.12,0,1,1,0-18.23Z" fill="#414151"/><path d="M176.44,31.89h-3.62a.48.48,0,0,1-.48-.48V28.65a.48.48,0,0,1,.48-.48h11.24a.48.48,0,0,1,.48.48v2.76a.48.48,0,0,1-.48.48h-3.62V45.41a.49.49,0,0,1-.48.48h-3a.49.49,0,0,1-.48-.48Z" fill="#414151"/><path d="M188.34,28.65a.48.48,0,0,1,.48-.48h10.49a.49.49,0,0,1,.48.48v2.76a.49.49,0,0,1-.48.48h-7V35h5.77a.5.5,0,0,1,.49.48v2.76a.48.48,0,0,1-.49.48h-5.77v3.42h7a.49.49,0,0,1,.48.48v2.76a.48.48,0,0,1-.48.48H188.82a.47.47,0,0,1-.48-.48Z" fill="#414151"/><path d="M204.45,28.65a.47.47,0,0,1,.45-.48h6.18a8.86,8.86,0,1,1,0,17.72H204.9a.47.47,0,0,1-.45-.48Zm6.38,13.5A4.94,4.94,0,0,0,215.77,37a4.93,4.93,0,0,0-4.94-5.12H208.4V42.15Z" fill="#414151"/><path d="M183.37,54.41a.37.37,0,0,1,.37-.36h4.5a3.88,3.88,0,0,1,4.15,3.59c0,1.48-1.34,2.56-2.24,3,1,.43,2.58,1.38,2.58,3.15a3.94,3.94,0,0,1-4.2,3.73h-4.79a.38.38,0,0,1-.37-.37Zm4.52,5.12a1.38,1.38,0,0,0,1.35-1.39,1.31,1.31,0,0,0-1.35-1.32h-1.51v2.71Zm.25,5.27a1.4,1.4,0,0,0,1.39-1.41A1.54,1.54,0,0,0,188,62h-1.57V64.8Z" fill="#414151"/><path d="M198.58,61.05l-4.27-6.45a.35.35,0,0,1,.31-.55h2.51a.37.37,0,0,1,.31.17l2.68,4,2.69-4a.33.33,0,0,1,.3-.17h2.51a.35.35,0,0,1,.31.55L201.61,61v6.16a.38.38,0,0,1-.37.37H199a.37.37,0,0,1-.37-.37Z" fill="#414151"/></g></g></svg>