<svg xmlns="http://www.w3.org/2000/svg" xmlns:xlink="http://www.w3.org/1999/xlink" viewBox="0 0 498.23 244.91"><defs><radialGradient id="19741a2e-0700-426f-82ee-f15233a0bfa8" cx="248.61" cy="122.45" r="182.61" gradientUnits="userSpaceOnUse"><stop offset="0" stop-color="#fff" stop-opacity="0"/><stop offset="1" stop-color="#231f20"/></radialGradient></defs><title>Asset 1</title><g style="isolation:isolate"><g id="7a5f4c4d-c3b6-4e40-9e48-cc6fb6f74389" data-name="Layer 2"><g id="94b4c152-4880-40b5-abfb-fbf0364db134" data-name="Layer 2"><rect x="133.08" y="6.92" width="231.06" height="231.06" fill="url(#19741a2e-0700-426f-82ee-f15233a0bfa8)" style="mix-blend-mode:multiply"/><rect x="133.08" y="6.92" width="231.06" height="231.06" fill="#231f20" opacity="0.59" style="mix-blend-mode:multiply"/><path d="M371.06,244.91H126.16V0h244.9Zm-230.9-14h216.9V14H140.16Z" fill="#41c2d1" style="mix-blend-mode:soft-light"/><path d="M371.06,244.91H126.16V0h244.9Zm-230.9-14h216.9V14H140.16Z" fill="#41c2d1" opacity="0.25" style="mix-blend-mode:lighten"/><path d="M493.52,136.25c-27.12-24.26-61.76-1.61-83.1,14.81-9.6,6.82-20.53,12.09-25.75,11.35a2.5,2.5,0,0,1-2-3c1.18-11.29,12.09-21.35,13.17-30.09,1-8.23-10.17-17.91-13.23-24.17,3.23-3.93,9.59-11.47,10.2-16.65.4-3.4-2-7.21-5.66-7.71-4.87-.68-15.4,8.31-16.24,17.29-.32,3.22,2.36,8.65,3.91,11,0,0-6.93,8.89-15.43,18.4l-1.08,1.22c-11,11-27.44,25.33-39.34,24.31-2.47-.21-4.47-2.19-4.19-7.59A28.34,28.34,0,0,1,318,133.22s3.76,2.31,6.07,2.53c10.18.89,25.29-10.69,26.51-22.33C351,108,344.79,101,339.8,100.51c-12.38-1.33-33,10.35-38.61,28.42h0s-4.66,16.63-11.51,23.95h0a97.51,97.51,0,0,1-7.08,7.31c-4.26,3.88-4.71-1.35-4.72-1.35h0a32.28,32.28,0,0,1-.09-3.23c.33-20,12.48-45,23.19-66.47,16.69,3.48,34.53,4.46,40.84-8.6,1.53-3.18.68-5.13-.07-5.44a.9.9,0,0,0-1.21.23,10.07,10.07,0,0,1-1,3.2c-3,6.22-18.36,4.91-34.65,2.23l7.23-16.11A45.38,45.38,0,0,0,315,53.38c.57-10.51-5-11.87-6.48-11.68-1.23.16-1.87,1-2.15,2.7-1.38,8.76-7.57,21.34-14.17,33.79-23.13-3.84-76.85-30.83-92-4-2.08,3.68-1.2,6.07-.34,6.51a1.1,1.1,0,0,0,1.47-.19c.32-.58,0-1.23,1.37-3.76,7.05-12.51,60.63,5.49,84.81,9.93-4.38,8.1-9.21,17-13.09,25.05-6.21,11.52-16.39,18.14-26.83,23.18-2.17-4.24-5-8.07-5.06-13-.12-15.89,13-19.89,13-23,0-2.62-2.81-4.47-6.55-4.26-2.8.16-7.75,2.84-11.63,7.12h0c-6.3,6.06-14.08,16.28-16.71,19.87-6.09,7.74-14.08,17.32-17.77,17.75-.72.09-1.28-.35-1.33-1.5-.15-3.15,8.64-10.94,8.43-18-.11-3.31-3.73-6.74-7.6-6.3-2,.22-3.94,2.77-6.18,6.19-5,7-22.82,32.34-26.95,33-.71.1-1.28-.32-1.35-1.31-.5-6.1,12.93-32.62,31-41.65,7.63-3.86,12.13-2.82,12.05-5.14s-4.88-6.62-10.28-6c-19.13,2.11-37.4,18.47-44.09,34.34-9.51,16.72-26.73,42.87-48.3,50.32-10.14,3.51-15.41-4.18-15.23-13.43.4-20.55,20.47-51.93,51.16-75,13.09-9.92,16-11.38,15.78-13.19-.18-2.09-4.6-8.55-10.21-7-8.61,2.43-17.77,10.43-33.52,15.35-5.48,1.73-8.67-.49-9.28-4.81-.5-3.56.18-5.2.89-7.77,22.1-7.43,51.18-16.4,51.19-16.4,3.84-1.32,13.53-6.81,14.54-15.87a16.88,16.88,0,0,0-.26-5.67h0a15.89,15.89,0,0,0-2.16-5.24h0c-.12-.2-.25-.39-.38-.58s-.09-.15-.14-.21l-.17-.24c-.15-.2-.28-.38-.42-.54s0,0,0,0A13.59,13.59,0,0,0,169,31.57c-3.78-3.84-10.75-7-23.17-3.79-19.69,5.08-41,24.9-47,43.78C53.89,85,4,108.08.15,137c-1.32,9.33,6.4,15.24,9.51,15.46a1.48,1.48,0,0,0,1.57-1c.13-.84-.43-2.42,0-5.48,4.05-28.79,46.54-52.24,85.91-66.77a19.83,19.83,0,0,0,.07,6.6c1.15,8,10.53,13.78,19.47,11,4.47-1.42,12-5.72,12-5.72-24.11,17.68-52.56,50.22-48.64,80.32,2.28,17.74,12.7,26.39,30.35,20.34,10.84-3.73,33.47-18.74,44.3-39.41,2.49,8,9.1,9.57,13.75,8.89,10.3-1.54,20.49-25.14,23.26-25.46.2,3.8,5.09,11.65,13.12,10.73,6.88-.83,20.43-22.07,23-25.75l.38-.64,3.51-5.06c0,.17,0,.33,0,.49.1,6.94,2.61,12.77,2.71,21.4,0,1.39,0,2.71-.12,4a98.58,98.58,0,0,0-14,6.87l-1,.61c-6.61,4.19-14.34,11.22-12,18.45,1.42,4.39,9.39,4.43,13,3.56,10.31-2.2,29.63-13.3,29.71-26.66a13.63,13.63,0,0,0-.24-2.59c5.39-2.57,10.91-5.33,15.88-8.12a54.54,54.54,0,0,0-3,15.77c-.07,9.61,4.24,15.57,8.52,18.54,1.52,1.14,7.12,4.93,11.58,1.73a72.14,72.14,0,0,0,19-21.1c3.67,7.56,11.63,11.71,20.05,12.47,11.29,1,30.09-16.23,39.63-25.88a6.58,6.58,0,0,0,1.37-1.29c10.71-12.11,16.73-19.26,16.71-19.27,4.18,3.84,4.74,4.1,4.48,6.43-1,8.37-17.89,16.48-19.22,31.41-.74,8.08,6.46,16.76,16.94,18.25a16.89,16.89,0,0,0,5.32-.19,56.46,56.46,0,0,0,10.66-2.75c20.92-7.83,67.44-47.85,94.63-27.07a27.45,27.45,0,0,1,4.63,4.85.6.6,0,0,0,.91-.07C498.68,144,498.44,140.69,493.52,136.25Zm-151-26.77c.59.06.94.64.89,1.36-.83,4.78-17.6,17.24-22.6,16.84C331.47,112.68,340.38,109.26,342.53,109.48ZM156.75,38.91l.31-.08c3.94-.6,10.08-.54,9.25,5.64s-6.57,9.46-10.07,10.93c-9.66,3.19-25,6.86-42.42,11.76C122.65,55.36,139.27,43.54,156.75,38.91Zm60.7,127.22c-1.28.32-5.73,1.24-4.37-3.3.89-3.46,5.83-7.14,9.41-9.26.7-.42,4.71-2.17,10.38-4.71A26.3,26.3,0,0,1,217.45,166.13Zm163-64.53C377.1,96.87,382.25,85,385.79,88,390.47,92,380.41,101.59,380.44,101.6Z" fill="#fff"/><path d="M144.06,199.4,152,182.32a.51.51,0,0,1,.43-.28h.25a.51.51,0,0,1,.43.28l7.95,17.08a.45.45,0,0,1-.43.66h-2.82c-.46,0-.66-.15-.89-.63l-.91-2h-6.91l-.91,2a.94.94,0,0,1-.91.61h-2.8A.45.45,0,0,1,144.06,199.4ZM154.49,194l-1.92-4.19h0l-1.9,4.19Z" fill="#fff"/><path d="M167.06,186h-3.63a.48.48,0,0,1-.48-.49v-2.76a.48.48,0,0,1,.48-.49H174.7a.48.48,0,0,1,.48.49v2.76a.48.48,0,0,1-.48.49h-3.63v13.55a.5.5,0,0,1-.48.48h-3.05a.5.5,0,0,1-.48-.48Z" fill="#fff"/><path d="M187.4,197.65l1.19-2.11a.65.65,0,0,1,.86-.15,7.58,7.58,0,0,0,3.61,1.4,1.6,1.6,0,0,0,1.75-1.53c0-1.06-.89-1.87-2.62-2.56-2.18-.86-4.92-2.56-4.92-5.61,0-2.51,1.95-5.05,5.86-5.05a9.56,9.56,0,0,1,5.44,1.9.66.66,0,0,1,.15.82l-1.3,2c-.17.28-.63.51-.86.33s-2.08-1.52-3.63-1.52a1.48,1.48,0,0,0-1.6,1.29c0,.94.76,1.65,2.77,2.46s5.13,2.34,5.13,5.79c0,2.62-2.26,5.26-6,5.26a8.1,8.1,0,0,1-5.71-2C187.27,198.11,187.19,198,187.4,197.65Z" fill="#fff"/><path d="M212.68,182a9.14,9.14,0,1,1-9.11,9.16A9.12,9.12,0,0,1,212.68,182Zm0,14.21a5.08,5.08,0,1,0-5.05-5.05A5.09,5.09,0,0,0,212.68,196.25Z" fill="#fff"/><path d="M227.18,182.78a.5.5,0,0,1,.48-.49h3.12a.48.48,0,0,1,.48.49v10.28a3.15,3.15,0,1,0,6.3,0V182.78a.48.48,0,0,1,.48-.49h3.12a.5.5,0,0,1,.49.49v10.48a7.24,7.24,0,0,1-14.47,0Z" fill="#fff"/><path d="M250.56,186h-3.63a.48.48,0,0,1-.48-.49v-2.76a.48.48,0,0,1,.48-.49H258.2a.48.48,0,0,1,.48.49v2.76a.48.48,0,0,1-.48.49h-3.63v13.55a.5.5,0,0,1-.48.48H251a.5.5,0,0,1-.48-.48Z" fill="#fff"/><path d="M263.76,182.78a.5.5,0,0,1,.48-.49h3a.49.49,0,0,1,.49.49v6.39H275v-6.39a.49.49,0,0,1,.49-.49h3a.5.5,0,0,1,.48.49v16.8a.5.5,0,0,1-.48.48h-3a.49.49,0,0,1-.49-.48V192.9h-7.25v6.68a.49.49,0,0,1-.49.48h-3a.5.5,0,0,1-.48-.48Z" fill="#fff"/><path d="M285.9,182.78a.48.48,0,0,1,.48-.49h10.51a.48.48,0,0,1,.48.49v2.76a.48.48,0,0,1-.48.49h-7v3.14h5.78a.5.5,0,0,1,.49.49v2.76a.48.48,0,0,1-.49.48h-5.78v3.43h7a.48.48,0,0,1,.48.48v2.77a.48.48,0,0,1-.48.48H286.38a.48.48,0,0,1-.48-.48Z" fill="#fff"/><path d="M301,199.4,309,182.32a.53.53,0,0,1,.43-.28h.26a.53.53,0,0,1,.43.28L318,199.4a.45.45,0,0,1-.43.66h-2.82c-.45,0-.66-.15-.88-.63l-.92-2h-6.9l-.91,2a1,1,0,0,1-.92.61h-2.79A.45.45,0,0,1,301,199.4ZM311.46,194l-1.93-4.19h0L307.6,194Z" fill="#fff"/><path d="M321.64,197.65l1.19-2.11a.66.66,0,0,1,.87-.15,7.58,7.58,0,0,0,3.6,1.4,1.59,1.59,0,0,0,1.75-1.53c0-1.06-.89-1.87-2.61-2.56-2.18-.86-4.93-2.56-4.93-5.61,0-2.51,2-5.05,5.87-5.05a9.49,9.49,0,0,1,5.43,1.9.66.66,0,0,1,.15.82l-1.29,2c-.18.28-.64.51-.87.33s-2.08-1.52-3.63-1.52a1.47,1.47,0,0,0-1.59,1.29c0,.94.76,1.65,2.76,2.46s5.13,2.34,5.13,5.79c0,2.62-2.26,5.26-6,5.26a8.06,8.06,0,0,1-5.71-2C321.51,198.11,321.44,198,321.64,197.65Z" fill="#fff"/><path d="M341.39,186h-3.63a.48.48,0,0,1-.48-.49v-2.76a.48.48,0,0,1,.48-.49H349a.48.48,0,0,1,.48.49v2.76a.48.48,0,0,1-.48.49H345.4v13.55a.5.5,0,0,1-.48.48h-3.05a.5.5,0,0,1-.48-.48Z" fill="#fff"/></g></g></g></svg>