<svg xmlns="http://www.w3.org/2000/svg" viewBox="0 0 431.57 152.95"><title>Asset 1</title><g id="cf87090e-0de2-46de-bff4-61269f5e3d6c" data-name="Layer 2"><g id="855f0d65-2088-4e22-b3bb-6cf4c812febd" data-name="Layer 1"><path d="M427.49,95.11c-23.5-21-53.5-1.39-72,12.84-8.3,5.9-17.78,10.46-22.29,9.82a2.16,2.16,0,0,1-1.72-2.6c1-9.79,10.48-18.49,11.41-26.07.88-7.13-8.8-15.51-11.45-20.94,2.79-3.4,8.3-9.93,8.83-14.42a6.12,6.12,0,0,0-4.91-6.67c-4.21-.6-13.33,7.2-14.06,15-.28,2.8,2,7.49,3.39,9.56,0,0-6,7.7-13.37,15.93-.34.38-.65.73-.93,1.06-9.5,9.53-23.78,21.94-34.08,21.06-2.14-.19-3.87-1.9-3.63-6.58a24.79,24.79,0,0,1,2.74-10.58s3.26,2,5.26,2.19c8.82.77,21.91-9.26,23-19.34.39-4.67-5-10.76-9.32-11.19-10.73-1.15-28.57,9-33.45,24.62h0s-4,14.41-10,20.75h0a82.84,82.84,0,0,1-6.13,6.33c-3.69,3.36-4.08-1.17-4.09-1.17h0a27.16,27.16,0,0,1-.07-2.8c.28-17.29,10.8-38.94,20.08-57.58,14.45,3,29.91,3.87,35.37-7.44,1.33-2.76.59-4.44-.05-4.72-.43-.18-.89-.12-1,.2a9,9,0,0,1-.82,2.78c-2.6,5.38-15.91,4.25-30,1.92L270.4,33.1a39,39,0,0,0,2.48-9.77c.49-9.1-4.37-10.28-5.61-10.11-1.07.13-1.62.85-1.87,2.34-1.19,7.59-6.55,18.48-12.27,29.26-20-3.32-66.57-26.71-79.67-3.44-1.79,3.19-1,5.26-.29,5.64.5.25,1.06.21,1.27-.16a10.63,10.63,0,0,1,1.19-3.26c6.11-10.84,52.52,4.76,73.46,8.6-3.79,7-8,14.76-11.33,21.7-5.38,10-14.2,15.71-23.25,20.08-1.87-3.68-4.35-7-4.37-11.27C210,68.94,221.37,65.47,221.4,62.82c0-2.27-2.43-3.87-5.67-3.69-2.43.14-6.72,2.46-10.08,6.17h0c-5.46,5.26-12.2,14.11-14.48,17.22-5.27,6.7-12.2,15-15.39,15.38-.63.07-1.11-.31-1.15-1.31-.14-2.72,7.48-9.47,7.3-15.61a6.18,6.18,0,0,0-6.58-5.46c-1.75.19-3.42,2.4-5.35,5.36-4.31,6.06-19.77,28-23.35,28.59-.62.09-1.11-.27-1.17-1.13-.44-5.28,11.2-28.25,26.85-36.08,6.61-3.34,10.51-2.44,10.44-4.45s-4.22-5.74-8.9-5.21c-16.58,1.83-32.4,16-38.2,29.74-8.24,14.48-23.15,37.13-41.84,43.59-8.77,3-13.35-3.62-13.19-11.64C81,106.5,98.37,79.32,125,59.37c11.34-8.59,13.83-9.87,13.67-11.43-.16-1.81-4-7.41-8.84-6-7.47,2.1-15.4,9-29,13.29-4.75,1.5-7.51-.42-8-4.16-.43-3.09.16-4.51.77-6.73,19.15-6.44,44.34-14.21,44.34-14.22,3.33-1.13,11.72-5.89,12.6-13.74a14.79,14.79,0,0,0-.23-4.91h0a13.94,13.94,0,0,0-1.87-4.54h0a5.39,5.39,0,0,0-.33-.5l-.12-.19-.15-.2c-.12-.17-.24-.33-.36-.47l0,0a9.72,9.72,0,0,0-1-1.06c-3.26-3.32-9.31-6.09-20.07-3.28-17,4.39-35.51,21.57-40.73,37.92C46.68,50.72,3.5,70.71.13,95.72-1,103.8,5.67,108.93,8.37,109.11a1.27,1.27,0,0,0,1.36-.88,24.2,24.2,0,0,1,0-4.74c3.5-24.95,40.31-45.26,74.41-57.85a17.22,17.22,0,0,0,.06,5.72c1,7,9.12,11.94,16.86,9.5,3.88-1.24,10.38-5,10.39-5C90.58,71.21,65.94,99.4,69.34,125.47c2,15.37,11,22.86,26.29,17.62,9.39-3.22,29-16.23,38.37-34.13,2.16,7,7.88,8.29,11.91,7.7,8.92-1.34,17.75-21.78,20.15-22.06.17,3.29,4.41,10.09,11.36,9.29,6-.71,17.7-19.11,19.94-22.3l.33-.55,3-4.38c0,.14,0,.28,0,.42.08,6,2.25,11.06,2.34,18.54,0,1.2,0,2.35-.1,3.44a86.06,86.06,0,0,0-12.15,6l-.83.52c-5.72,3.63-12.42,9.72-10.38,16,1.24,3.8,8.14,3.83,11.27,3.08,8.93-1.91,25.66-11.52,25.74-23.09a13.41,13.41,0,0,0-.21-2.24c4.66-2.24,9.44-4.63,13.75-7a47.48,47.48,0,0,0-2.59,13.66c-.06,8.32,3.67,13.49,7.38,16.06,1.32,1,6.17,4.27,10,1.5a62.56,62.56,0,0,0,16.44-18.28c3.17,6.54,10.07,10.14,17.36,10.8,9.78.85,26.06-14.06,34.33-22.41a6.57,6.57,0,0,0,1.19-1.12c9.28-10.49,14.49-16.69,14.47-16.69,3.62,3.32,4.1,3.55,3.88,5.56-.84,7.26-15.5,14.28-16.65,27.21-.64,7,5.59,14.52,14.68,15.81a14.7,14.7,0,0,0,4.6-.17,48,48,0,0,0,9.24-2.38c18.12-6.78,58.41-41.45,82-23.45a23.26,23.26,0,0,1,4,4.2.53.53,0,0,0,.8-.05C432,101.84,431.75,99,427.49,95.11ZM296.7,71.93c.51,0,.82.55.77,1.18-.72,4.13-15.24,14.92-19.57,14.58C287.13,74.7,294.84,71.73,296.7,71.93ZM135.78,10.8l.27-.07c3.41-.52,8.73-.47,8,4.88s-5.69,8.2-8.72,9.47c-8.37,2.76-21.69,6-36.75,10.19C106.24,25.05,120.64,14.81,135.78,10.8ZM188.36,121c-1.11.28-5,1.07-3.79-2.87.77-3,5.05-6.18,8.15-8,.61-.36,4.08-1.88,9-4.08A22.79,22.79,0,0,1,188.36,121ZM329.54,65.1c-2.9-4.09,1.56-14.41,4.63-11.82C338.23,56.75,329.52,65.09,329.54,65.1Z" fill="#fff"/><path d="M128.55,152.12l7.23-15.54a.46.46,0,0,1,.39-.25h.23a.48.48,0,0,1,.4.25L144,152.12a.4.4,0,0,1-.39.6h-2.56c-.42,0-.6-.14-.81-.58l-.83-1.82h-6.28l-.83,1.84a.86.86,0,0,1-.83.56H129A.41.41,0,0,1,128.55,152.12Zm9.49-4.94-1.75-3.81h0l-1.73,3.81Z" fill="#fff"/><path d="M149.47,140h-3.3a.44.44,0,0,1-.44-.44V137a.44.44,0,0,1,.44-.44h10.25a.44.44,0,0,1,.44.44v2.51a.44.44,0,0,1-.44.44h-3.3v12.33a.46.46,0,0,1-.44.44h-2.77a.46.46,0,0,1-.44-.44Z" fill="#fff"/><path d="M168,150.52l1.08-1.91a.6.6,0,0,1,.79-.14,6.82,6.82,0,0,0,3.28,1.27,1.45,1.45,0,0,0,1.59-1.39c0-1-.81-1.7-2.38-2.33-2-.78-4.48-2.33-4.48-5.1,0-2.28,1.78-4.59,5.34-4.59a8.6,8.6,0,0,1,4.94,1.73.58.58,0,0,1,.13.74l-1.17,1.78c-.17.25-.58.46-.79.3a7.17,7.17,0,0,0-3.3-1.39,1.33,1.33,0,0,0-1.45,1.18c0,.85.69,1.5,2.51,2.24s4.67,2.12,4.67,5.26c0,2.38-2.06,4.78-5.45,4.78a7.35,7.35,0,0,1-5.2-1.78C167.85,150.94,167.78,150.85,168,150.52Z" fill="#fff"/><path d="M191,136.33a8.31,8.31,0,1,1-8.28,8.33A8.29,8.29,0,0,1,191,136.33Zm0,12.92a4.62,4.62,0,1,0-4.59-4.59A4.62,4.62,0,0,0,191,149.25Z" fill="#fff"/><path d="M204.15,137a.46.46,0,0,1,.44-.44h2.84a.44.44,0,0,1,.44.44v9.35a2.86,2.86,0,1,0,5.72,0V137a.44.44,0,0,1,.44-.44h2.84a.46.46,0,0,1,.44.44v9.53a6.58,6.58,0,0,1-13.16,0Z" fill="#fff"/><path d="M225.41,140h-3.3a.44.44,0,0,1-.44-.44V137a.44.44,0,0,1,.44-.44h10.25a.44.44,0,0,1,.44.44v2.51a.44.44,0,0,1-.44.44h-3.3v12.33a.46.46,0,0,1-.44.44h-2.77a.46.46,0,0,1-.44-.44Z" fill="#fff"/><path d="M237.42,137a.46.46,0,0,1,.44-.44h2.75a.44.44,0,0,1,.44.44v5.81h6.6V137a.44.44,0,0,1,.44-.44h2.74a.46.46,0,0,1,.44.44v15.28a.46.46,0,0,1-.44.44h-2.74a.44.44,0,0,1-.44-.44v-6.07h-6.6v6.07a.44.44,0,0,1-.44.44h-2.75a.46.46,0,0,1-.44-.44Z" fill="#fff"/><path d="M257.55,137a.44.44,0,0,1,.44-.44h9.56a.44.44,0,0,1,.44.44v2.51a.44.44,0,0,1-.44.44h-6.39v2.86h5.26a.46.46,0,0,1,.44.44v2.52a.44.44,0,0,1-.44.44h-5.26v3.11h6.39a.44.44,0,0,1,.44.44v2.52a.44.44,0,0,1-.44.44H258a.44.44,0,0,1-.44-.44Z" fill="#fff"/><path d="M271.32,152.12l7.22-15.54a.46.46,0,0,1,.39-.25h.24a.46.46,0,0,1,.39.25l7.22,15.54a.4.4,0,0,1-.39.6h-2.56c-.42,0-.6-.14-.81-.58l-.83-1.82h-6.28l-.83,1.84a.86.86,0,0,1-.83.56h-2.54A.4.4,0,0,1,271.32,152.12Zm9.48-4.94-1.75-3.81h0l-1.73,3.81Z" fill="#fff"/><path d="M290.06,150.52l1.09-1.91a.6.6,0,0,1,.79-.14,6.82,6.82,0,0,0,3.27,1.27,1.45,1.45,0,0,0,1.6-1.39c0-1-.81-1.7-2.38-2.33-2-.78-4.48-2.33-4.48-5.1,0-2.28,1.78-4.59,5.33-4.59a8.57,8.57,0,0,1,4.94,1.73c.28.16.23.58.14.74l-1.18,1.78c-.16.25-.57.46-.78.3a7.17,7.17,0,0,0-3.3-1.39,1.34,1.34,0,0,0-1.46,1.18c0,.85.7,1.5,2.52,2.24s4.66,2.12,4.66,5.26c0,2.38-2.05,4.78-5.45,4.78a7.32,7.32,0,0,1-5.19-1.78C290,150.94,289.88,150.85,290.06,150.52Z" fill="#fff"/><path d="M308,140h-3.3a.44.44,0,0,1-.44-.44V137a.44.44,0,0,1,.44-.44H315a.44.44,0,0,1,.44.44v2.51a.44.44,0,0,1-.44.44h-3.3v12.33a.46.46,0,0,1-.44.44h-2.77a.46.46,0,0,1-.44-.44Z" fill="#fff"/></g></g></svg>