<svg xmlns="http://www.w3.org/2000/svg" xmlns:xlink="http://www.w3.org/1999/xlink" viewBox="0 0 775.55 383.21"><defs><clipPath id="a96262f6-35b2-4d8f-a484-433628fcf111" transform="translate(0)"><rect y="5.96" width="775.55" height="371.28" fill="none"/></clipPath><clipPath id="c3d6dbdb-3431-4b4c-93e1-b18bc89730d8" transform="translate(0)"><rect y="5.96" width="775.55" height="371.28" fill="none"/></clipPath><clipPath id="2259f556-3e72-41c0-824c-9c7ed2a3fa4c" transform="translate(0)"><rect x="143.82" y="17.12" width="434.75" height="360.69" fill="none"/></clipPath><clipPath id="34804141-07a0-443d-9e06-3ab8b836b2c3" transform="translate(0)"><rect x="126.84" y="1.99" width="467.3" height="375.83" fill="none"/></clipPath></defs><title>Asset 2</title><g style="isolation:isolate"><g id="13f8491c-ec81-417e-8f18-53e7a14fe071" data-name="Layer 2"><g id="3c6ffdb7-a86f-4146-8245-7f111096e9e3" data-name="Layer 1"><g clip-path="url(#a96262f6-35b2-4d8f-a484-433628fcf111)"><g clip-path="url(#c3d6dbdb-3431-4b4c-93e1-b18bc89730d8)"><g opacity="0.43" style="mix-blend-mode:multiply"><g clip-path="url(#2259f556-3e72-41c0-824c-9c7ed2a3fa4c)"><rect x="148.93" y="21.1" width="424.53" height="356.15" fill="#000212"/></g></g><g opacity="0.6" style="mix-blend-mode:overlay"><g clip-path="url(#34804141-07a0-443d-9e06-3ab8b836b2c3)"><rect x="139.79" y="13.8" width="441.4" height="355.61" fill="none" stroke="#fff" stroke-width="27.6"/></g></g><path d="M368.58,74.67c12.44.25-7.58,28.48-7.47,28.52-6.35-10.36-2.24-28.7,7.47-28.52m-79.3,56.2c1.14-.07,1.93,1,2,2.39-.63,9.64-29.48,39.67-38.86,40.6,16.53-33.14,32.79-42.74,36.88-43m-177.43,140c-2.77,1.35-12.52,5.57-11.91-6.2.14-8.91,10.38-19.4,16.77-26.9,3.08-3.64,11-9.07,21.71-15.55-2.07,26.67-16,41.19-26.57,48.65M194.26,90.73c-2.54,8.52-15.38,17.39-24.47,22.65-1.61.94-10.1,4.51-22.13,10.05,2.73-10.32,16.17-37.34,35.35-41.14l2.09-.45c4.59-.66,12.34-.51,9.16,8.89m409.23,48.39c1.14.14,1.75,1.29,1.53,2.69-2.41,9.24-36.8,33.09-46.33,32.27,22.63-29.14,40.66-35.47,44.8-35M767,150.2c-42.46-36.14-92.15-9.07-127.69,20a19.33,19.33,0,0,0-2.48,1.94l-.75.7c-10.6,8.72-20.08,17.4-28.21,24.29-19.29,15-40.21,28-56,26.52-4.71-.45-8.29-4.33-7.08-14.92,1.7-14.81,7.67-23.88,7.67-23.87s6.94,4.58,11.38,5c19.44,1.88,50.46-20.21,54.74-42.8,1.75-10.49-9.37-24.46-19.07-25.62-15.3-1.88-38.27,6.43-55.94,22.18-4.16-12.27-8-28.88-10.05-37.84a39.08,39.08,0,0,0-1.19-5.48c-.11-.55-.18-.87-.18-.87l0,0c-3.57-11.42-11.63-19-16.59-19.38-2.36-.17-4.47,1.11-5.25,5-7.6,56.77-72.35,121.93-71.6,122.34-.17-.05,21.83-44.25,23.65-67.64,1.58-22.05-19.3-34.26-29.4-34.47a2.93,2.93,0,0,0-3.25,3.13c-.12,2.5,4,11.51,3.39,24.33-1.46,28.43-8.12,49.28-12.87,64.44C404.56,211,388,221.88,379.18,222c-2.15,0-4.3-1.74-4.27-5.32.06-22.61,18.92-45.64,19.48-63.14.51-16.49-22.64-32.24-29.69-43.65,5.45-8.7,16.37-25.4,16.66-35.77.18-6.8-5.2-13.59-12.35-13.51-9.59,0-28.25,20.92-28.12,38.88,0,6.46,6.19,16.32,9.61,20.55,0,0-11.6,19.6-25.77,41-1.08,1.65-2.07,3.12-2.79,4.36-18.56,24.84-45.29,57-67,59-4.63.42-8.81-2.79-9.58-13.54-1.09-15,3-25.16,3-25.16s7.55,3.29,11.93,2.93c19.15-1.68,45.06-29.35,45-52.61-.24-10.75-13.55-22.62-23.14-22-14.07.88-33,11.73-46.94,28.46a278.86,278.86,0,0,1-64.74,45.21c-7.62-12.62-19.81-21.64-23-36.43a71.15,71.15,0,0,1-1.25-8.38c10.71-4.9,20.75-9.59,29.2-14.82l2.41-1.5c16.55-10.3,37.07-26.87,31.65-45.1-3.42-11.46-28.29-12.43-37.47-10.05-10.45,1.75-22.17,8.51-27.74,12.1-12.29,6.71-29.41,27.93-27,51C73.24,150.28-1.1,189.47,0,239.68c.15,12.18,10.27,19.67,14,19.86a1.52,1.52,0,0,0,1.65-1.37c0-1.09-.95-3.13-1-7.13-.85-52.11,70-87.47,106.71-100.44,4.47,12.48,10.78,24.25,14.49,40.86,1,4.32,1.63,8.41,2.1,12.32-11,5.72-21,11.85-29.56,20.46l-1.91,1.92c-13.19,13.21-27.12,34-17.57,50.72,5.77,10.13,24.08,6.71,31.9,3,22.37-9.94,61.6-45,55.39-78-.08-.4-.21-.78-.3-1.17,14-7.91,28.65-16.2,41.59-24.46a70.7,70.7,0,0,0-2.07,24c2.6,28.3,24.63,39.5,46.48,37.63,21.11-2,52.58-42.45,68.64-64.28a20.61,20.61,0,0,0,1.8-2.45c.25-.38.47-.73.72-1.1l1.34-1.95c.23-.37.41-.69.61-1,16.2-24.69,25.42-39,25.38-39,8.71,6.3,9.81,6.66,9.77,11.31-.37,16.74-31,37.9-30.38,67.77.27,16.16,15.46,31,35.34,30.66,11.78-.18,25.8-9.54,40.05-20.92-.05.52-.12,1.07-.14,1.56-.41,13.2,7.91,20.42,13.24,20.52,3.26.09,5.63-2.09,23.71-22.19,14.06-16,57.31-59.43,77-87,1.87,6.47,4.79,15.92,6.76,22.46-6.81,9.81-17.6,28.33-18.82,40.72-2.62,28,17.29,42.88,39.46,45.08,21,2,58.83-30.23,79.32-48.66,33.9-26.92,93.27-59.54,129.66-32.79a48.61,48.61,0,0,1,8.19,8.15,1,1,0,0,0,1.55-.12c1.27-1.29.64-6.93-8-14.39" transform="translate(0)" fill="#fff"/><path d="M198.85,293.31l3.94-8.67,4,8.67Zm5.6-27.11a1.56,1.56,0,0,0-1.33-.85h-.6a1.55,1.55,0,0,0-1.33.86l-18.62,40h0a1.45,1.45,0,0,0,.06,1.4,1.47,1.47,0,0,0,1.27.65h6.55a2.56,2.56,0,0,0,2.46-1.64l2.05-4.55h15.72l2,4.5a2.35,2.35,0,0,0,2.4,1.69h6.61a1.47,1.47,0,0,0,1.27-.65,1.45,1.45,0,0,0,.06-1.4Z" transform="translate(0)" fill="#fff"/><path d="M256.13,266H229.71a1.48,1.48,0,0,0-1.48,1.48v6.49a1.48,1.48,0,0,0,1.48,1.48h8.16v31.41a1.52,1.52,0,0,0,1.48,1.49h7.14a1.52,1.52,0,0,0,1.48-1.49V275.4h8.16a1.48,1.48,0,0,0,1.48-1.48v-6.49a1.48,1.48,0,0,0-1.48-1.48" transform="translate(0)" fill="#fff"/><path d="M320,266H295.34a1.49,1.49,0,0,0-1.49,1.48v39.38a1.49,1.49,0,0,0,1.49,1.49H320a1.49,1.49,0,0,0,1.48-1.49v-6.48a1.48,1.48,0,0,0-1.48-1.48H303.84v-7.33h13.21a1.49,1.49,0,0,0,1.49-1.48v-6.48a1.53,1.53,0,0,0-1.49-1.49H303.84V275.4H320a1.48,1.48,0,0,0,1.48-1.48v-6.49A1.48,1.48,0,0,0,320,266" transform="translate(0)" fill="#fff"/><path d="M348.94,293.31l3.95-8.67,4,8.67Zm5.6-27.11a1.56,1.56,0,0,0-1.33-.85h-.59a1.58,1.58,0,0,0-1.34.86l-18.62,40h0a1.45,1.45,0,0,0,.06,1.4,1.49,1.49,0,0,0,1.28.65h6.54a2.58,2.58,0,0,0,2.47-1.64l2-4.55h15.73l2.05,4.5a2.34,2.34,0,0,0,2.4,1.69h6.6a1.49,1.49,0,0,0,1.28-.65,1.45,1.45,0,0,0,.06-1.4Z" transform="translate(0)" fill="#fff"/><path d="M398.92,282.33c-4.45-1.8-6.26-3.37-6.26-5.44,0-1.47,1.52-2.68,3.39-2.68,3,0,6.69,2.44,7.9,3.24l.39.26a1.23,1.23,0,0,0,1,.2,2.5,2.5,0,0,0,1.57-1.06l3.05-4.6a1.85,1.85,0,0,0-.45-2.37,22.28,22.28,0,0,0-12.94-4.53c-9.69,0-14.1,6.32-14.1,12.2,0,7.29,6.4,11.35,11.77,13.47,4,1.6,5.9,3.41,5.9,5.68,0,1.89-1.54,3.22-3.75,3.22-1.55,0-4.2-.54-8-3.08l-.21-.13h0a2,2,0,0,0-1.47-.25,1.57,1.57,0,0,0-1.07.72l-2.8,4.94c-.57,1-.33,1.41.36,2.09s5.11,4.68,13.63,4.68c9,0,14.4-6.44,14.4-12.66,0-8.1-7-11.81-12.24-13.9" transform="translate(0)" fill="#fff"/><path d="M451,266H424.55a1.48,1.48,0,0,0-1.48,1.48v6.49a1.48,1.48,0,0,0,1.48,1.48h8.15v31.41a1.53,1.53,0,0,0,1.49,1.49h7.14a1.52,1.52,0,0,0,1.48-1.49V275.4H451a1.49,1.49,0,0,0,1.49-1.48v-6.49A1.49,1.49,0,0,0,451,266" transform="translate(0)" fill="#fff"/><path d="M492.43,266H467.8a1.48,1.48,0,0,0-1.48,1.48v39.38a1.49,1.49,0,0,0,1.48,1.49h24.63a1.49,1.49,0,0,0,1.49-1.49v-6.48a1.49,1.49,0,0,0-1.49-1.48H476.31v-7.33h13.21A1.48,1.48,0,0,0,491,290v-6.48a1.52,1.52,0,0,0-1.48-1.49H476.31V275.4h16.12a1.49,1.49,0,0,0,1.49-1.48v-6.49a1.49,1.49,0,0,0-1.49-1.48" transform="translate(0)" fill="#fff"/><path d="M528.13,283.74h-8.45v-8.58h8.45a4.23,4.23,0,0,1,4.17,4.17,4.41,4.41,0,0,1-4.17,4.41m14.1-4.59A13.28,13.28,0,0,0,528.9,266H511.12a1.49,1.49,0,0,0-1.49,1.48v39.38a1.49,1.49,0,0,0,1.49,1.49h7.08a1.52,1.52,0,0,0,1.48-1.49V292h3.53L531,307.57a1.44,1.44,0,0,0,1.26.73h7.92a1.48,1.48,0,0,0,1.32-.7,1.58,1.58,0,0,0,0-1.55l-8-14.76c5.35-2.3,8.66-6.92,8.66-12.14" transform="translate(0)" fill="#fff"/></g></g></g></g></g></svg>