<?xml version="1.0" encoding="utf-8"?>
<!-- Generator: Adobe Illustrator 21.1.0, SVG Export Plug-In . SVG Version: 6.00 Build 0)  -->
<svg version="1.1" id="Layer_1" xmlns="http://www.w3.org/2000/svg" xmlns:xlink="http://www.w3.org/1999/xlink" x="0px" y="0px"
	 viewBox="0 0 473 113" style="enable-background:new 0 0 473 113;" xml:space="preserve">
<style type="text/css">
	.st0{fill:#6E0E10;}
	.st1{opacity:0.5;}
	.st2{fill:#E32028;}
</style>
<path class="st0" d="M329.6,55.8l-4.2-13.6l-4.2,13.6h-5.6l-6.1-20h5.5l3.7,13.5l4.4-13.5h4.7l4.4,13.5l3.7-13.5h5.5l-6.1,20H329.6z
	"/>
<path class="st0" d="M357.1,55.8V43.6c0-1.4-0.3-2.3-1-2.9c-0.7-0.5-1.6-0.8-2.7-0.8c-1.1,0-2,0.2-2.7,0.7c-0.8,0.5-1.4,1-1.8,1.6
	v13.5h-5.3V28.1h5.3v10.2c0.6-0.7,1.5-1.4,2.7-2.1c1.2-0.6,2.6-1,4.3-1c2.2,0,3.8,0.6,4.9,1.7c1.1,1.1,1.6,2.7,1.6,4.6v14.2H357.1z"
	/>
<path class="st0" d="M376.1,56.3c-1.5,0-2.9-0.2-4.2-0.7c-1.3-0.5-2.4-1.2-3.4-2.1c-1-0.9-1.7-2-2.2-3.3c-0.5-1.3-0.8-2.7-0.8-4.4
	c0-1.4,0.3-2.8,0.8-4.1c0.5-1.3,1.2-2.4,2.1-3.3s2-1.7,3.3-2.2c1.3-0.6,2.7-0.8,4.2-0.8c1.5,0,2.9,0.3,4.1,0.8
	c1.2,0.5,2.3,1.3,3.2,2.3c0.9,1,1.5,2.1,2,3.5c0.5,1.3,0.7,2.8,0.7,4.5v1.2h-14.9c0.2,1.2,0.8,2.3,1.7,3.2c1,0.9,2.3,1.3,4,1.3
	c0.4,0,0.9,0,1.3-0.1c0.5-0.1,1-0.2,1.5-0.4c0.5-0.2,0.9-0.4,1.4-0.6s0.8-0.5,1.1-0.8l2.4,3.5c-1,0.9-2.2,1.6-3.7,2.1
	C379.2,56.1,377.7,56.3,376.1,56.3z M380.7,43.9c-0.1-0.5-0.2-1-0.4-1.5c-0.2-0.5-0.5-1-0.9-1.4c-0.4-0.4-0.9-0.8-1.5-1
	c-0.6-0.3-1.4-0.4-2.2-0.4c-0.8,0-1.5,0.1-2.1,0.4c-0.6,0.3-1.1,0.6-1.5,1c-0.4,0.4-0.7,0.9-0.9,1.4c-0.2,0.5-0.3,1-0.4,1.5H380.7z"
	/>
<path class="st0" d="M388.7,55.8v-20h5.3v2.7c0.7-0.9,1.7-1.6,2.8-2.3c1.1-0.6,2.3-0.9,3.6-0.9v5.1c-0.4-0.1-0.9-0.1-1.5-0.1
	c-0.4,0-0.9,0.1-1.4,0.2c-0.5,0.1-1,0.3-1.4,0.5c-0.5,0.2-0.9,0.4-1.2,0.7c-0.4,0.3-0.7,0.6-0.9,0.9v13.2H388.7z"/>
<path class="st0" d="M412.2,56.3c-1.5,0-2.9-0.2-4.2-0.7c-1.3-0.5-2.4-1.2-3.4-2.1c-1-0.9-1.7-2-2.2-3.3c-0.5-1.3-0.8-2.7-0.8-4.4
	c0-1.4,0.3-2.8,0.8-4.1c0.5-1.3,1.2-2.4,2.1-3.3s2-1.7,3.3-2.2c1.3-0.6,2.7-0.8,4.2-0.8c1.5,0,2.9,0.3,4.1,0.8
	c1.2,0.5,2.3,1.3,3.2,2.3c0.9,1,1.5,2.1,2,3.5c0.5,1.3,0.7,2.8,0.7,4.5v1.2H407c0.2,1.2,0.8,2.3,1.7,3.2c1,0.9,2.3,1.3,4,1.3
	c0.4,0,0.9,0,1.3-0.1c0.5-0.1,1-0.2,1.5-0.4c0.5-0.2,0.9-0.4,1.4-0.6s0.8-0.5,1.1-0.8l2.4,3.5c-1,0.9-2.2,1.6-3.7,2.1
	C415.3,56.1,413.8,56.3,412.2,56.3z M416.9,43.9c-0.1-0.5-0.2-1-0.4-1.5c-0.2-0.5-0.5-1-0.9-1.4c-0.4-0.4-0.9-0.8-1.5-1
	c-0.6-0.3-1.4-0.4-2.2-0.4c-0.8,0-1.5,0.1-2.1,0.4c-0.6,0.3-1.1,0.6-1.5,1c-0.4,0.4-0.7,0.9-0.9,1.4c-0.2,0.5-0.3,1-0.4,1.5H416.9z"
	/>
<path class="st0" d="M94.7,87.1V29.9h16.5V72h20.6v15.1H94.7z"/>
<path class="st0" d="M132.8,58.6c0-17.6,13-29.6,29.8-29.6c16.8,0,29.8,12,29.8,29.6c0,17.6-13,29.6-29.8,29.6
	C145.7,88.2,132.8,76.1,132.8,58.6z M175.6,58.6c0-8-5.1-14.3-13.1-14.3c-7.9,0-13.1,6.3-13.1,14.3c0,8,5.1,14.3,13.1,14.3
	C170.5,72.9,175.6,66.5,175.6,58.6z"/>
<path class="st0" d="M210.6,87.1l-20.1-57.2h18.7l11.8,38.5l11.8-38.5h18.7l-20.1,57.2H210.6z"/>
<path class="st0" d="M256.3,87.1V29.9h41.3V45h-24.8v5.7H297v15.1h-24.2V72h24.8v15.1H256.3z"/>
<g class="st1">
	<path class="st0" d="M63.5,58.1c-6.6-6.4-22.8-8.7-36.2-5.3C14,56.2,8.5,64.2,15.1,70.6c5.7,5.5,39,15.6,48,18.2
		c0.5,0.1,1.1,0.1,1.6,0c0.5-0.1,0.8-0.4,0.9-0.7C66.5,83,69.3,63.6,63.5,58.1z M45.9,70.7c-7.2,1.9-15.9,0.6-19.5-2.9
		c-3.6-3.4-0.6-7.7,6.6-9.6s15.9-0.6,19.5,2.9C56,64.5,53.1,68.8,45.9,70.7z"/>
</g>
<g>
	<path class="st2" d="M64.7,16.6c-12.8,0-23.1,10.4-23.1,23.1c0,11,17.2,40.5,21.9,48.3c0.2,0.4,0.7,0.7,1.2,0.7
		c0.5,0,0.9-0.3,1.2-0.7c4.7-7.9,21.9-37.3,21.9-48.3C87.8,27,77.4,16.6,64.7,16.6z M64.7,52.4c-6.9,0-12.4-5.6-12.4-12.4
		s5.6-12.4,12.4-12.4S77.1,33.1,77.1,40S71.5,52.4,64.7,52.4z"/>
</g>
<path class="st0" d="M320.1,93.9c-3.3,0-6.1-1-8.4-3l2.4-3.8c0.7,0.9,1.6,1.5,2.8,1.9c1.1,0.4,2.2,0.6,3.3,0.6
	c0.9,0,1.6-0.1,2.3-0.4c0.7-0.3,1.2-0.6,1.7-1.1c0.5-0.5,0.8-1,1.1-1.6c0.2-0.6,0.4-1.3,0.4-2v-2.1c-0.7,0.7-1.6,1.4-2.8,2.1
	c-1.2,0.6-2.6,1-4.3,1c-2.2,0-3.8-0.6-4.9-1.7c-1.1-1.1-1.6-2.7-1.6-4.6V65.7h5.3V77c0,1.4,0.3,2.3,1,2.9c0.7,0.5,1.6,0.8,2.7,0.8
	c1,0,1.9-0.2,2.7-0.7c0.8-0.5,1.4-1,1.9-1.6V65.7h5.3v18.7c0,1.5-0.3,2.8-0.8,4c-0.5,1.2-1.2,2.2-2.2,3c-0.9,0.8-2.1,1.4-3.4,1.8
	C323.2,93.7,321.7,93.9,320.1,93.9z"/>
<path class="st0" d="M344.2,86.3c-1.7,0-3.1-0.3-4.4-0.8c-1.3-0.6-2.4-1.3-3.3-2.3s-1.6-2.1-2.1-3.4c-0.5-1.3-0.7-2.6-0.7-4
	c0-1.4,0.2-2.8,0.7-4c0.5-1.3,1.2-2.4,2.1-3.3c0.9-1,2-1.7,3.3-2.3c1.3-0.6,2.8-0.8,4.4-0.8c1.7,0,3.1,0.3,4.5,0.8
	c1.3,0.6,2.4,1.3,3.3,2.3c0.9,1,1.6,2.1,2.1,3.3c0.5,1.3,0.7,2.6,0.7,4c0,1.4-0.2,2.8-0.7,4c-0.5,1.3-1.2,2.4-2.1,3.4
	s-2,1.7-3.3,2.3C347.4,86,345.9,86.3,344.2,86.3z M344.2,81.6c0.8,0,1.6-0.2,2.2-0.5c0.6-0.3,1.2-0.7,1.6-1.3c0.4-0.5,0.8-1.1,1-1.8
	c0.2-0.7,0.3-1.5,0.3-2.3c0-0.8-0.1-1.5-0.3-2.2c-0.2-0.7-0.6-1.3-1-1.8c-0.4-0.5-1-0.9-1.6-1.3c-0.6-0.3-1.4-0.5-2.2-0.5
	c-0.8,0-1.6,0.2-2.2,0.5c-0.6,0.3-1.2,0.7-1.6,1.3c-0.4,0.5-0.8,1.1-1,1.8c-0.2,0.7-0.3,1.4-0.3,2.2c0,0.8,0.1,1.6,0.3,2.3
	c0.2,0.7,0.6,1.3,1,1.8c0.4,0.5,1,0.9,1.6,1.3C342.7,81.4,343.4,81.6,344.2,81.6z"/>
<path class="st0" d="M371,85.8v-2.5c-0.7,0.7-1.6,1.4-2.8,2.1c-1.2,0.6-2.6,1-4.3,1c-2.2,0-3.8-0.6-4.9-1.7
	c-1.1-1.1-1.6-2.7-1.6-4.6V65.7h5.3v12.1c0,1.4,0.3,2.3,1,2.9c0.7,0.5,1.6,0.8,2.7,0.8c1,0,1.9-0.2,2.7-0.7c0.8-0.5,1.4-1,1.9-1.6
	V65.7h5.3v20H371z"/>
<path class="st0" d="M403.5,85.8v-2.6c-0.8,1-1.7,1.8-2.8,2.3c-1,0.5-2.2,0.8-3.4,0.8c-1.2,0-2.4-0.2-3.5-0.7
	c-1.1-0.5-2-1.2-2.8-2.1c-0.8-0.9-1.4-2-1.9-3.3c-0.5-1.3-0.7-2.8-0.7-4.5c0-1.6,0.2-3.1,0.7-4.4c0.4-1.3,1.1-2.4,1.8-3.3
	c0.8-0.9,1.7-1.6,2.8-2.1c1.1-0.5,2.3-0.7,3.5-0.7c1.2,0,2.3,0.2,3.4,0.7c1.1,0.5,2,1.3,2.8,2.3v-2.6h5.3v20H403.5z M399,81.6
	c0.9,0,1.7-0.2,2.6-0.6c0.8-0.4,1.5-1,1.9-1.6v-7c-0.4-0.7-1.1-1.2-1.9-1.7c-0.8-0.4-1.7-0.7-2.6-0.7c-1.5,0-2.8,0.5-3.7,1.6
	c-0.9,1.1-1.4,2.5-1.4,4.2c0,1.7,0.5,3.2,1.4,4.2C396.3,81,397.5,81.6,399,81.6z"/>
<path class="st0" d="M414.1,85.8v-20h5.3v2.7c0.7-0.9,1.7-1.6,2.8-2.3c1.1-0.6,2.3-0.9,3.6-0.9v5.1c-0.4-0.1-0.9-0.1-1.5-0.1
	c-0.4,0-0.9,0.1-1.4,0.2c-0.5,0.1-1,0.3-1.4,0.5c-0.5,0.2-0.9,0.4-1.2,0.7c-0.4,0.3-0.7,0.6-0.9,0.9v13.2H414.1z"/>
<path class="st0" d="M438.2,86.3c-1.5,0-2.9-0.2-4.2-0.7c-1.3-0.5-2.4-1.2-3.4-2.1c-1-0.9-1.7-2-2.2-3.3c-0.5-1.3-0.8-2.8-0.8-4.4
	c0-1.4,0.3-2.8,0.8-4.1c0.5-1.3,1.2-2.4,2.1-3.3c0.9-0.9,2-1.7,3.3-2.2c1.3-0.6,2.7-0.8,4.2-0.8c1.5,0,2.9,0.3,4.1,0.8
	c1.2,0.5,2.3,1.3,3.2,2.3c0.9,1,1.5,2.1,2,3.5c0.5,1.3,0.7,2.8,0.7,4.5v1.2H433c0.2,1.2,0.8,2.3,1.7,3.2c1,0.9,2.3,1.3,4,1.3
	c0.4,0,0.9,0,1.3-0.1c0.5-0.1,1-0.2,1.5-0.4c0.5-0.2,0.9-0.4,1.4-0.6c0.4-0.2,0.8-0.5,1.1-0.8l2.4,3.5c-1,0.9-2.2,1.6-3.7,2.1
	C441.3,86,439.8,86.3,438.2,86.3z M442.8,73.8c-0.1-0.5-0.2-1-0.4-1.5c-0.2-0.5-0.5-1-0.9-1.4c-0.4-0.4-0.9-0.8-1.5-1
	c-0.6-0.3-1.4-0.4-2.2-0.4c-0.8,0-1.5,0.1-2.1,0.4c-0.6,0.3-1.1,0.6-1.5,1c-0.4,0.4-0.7,0.9-0.9,1.4c-0.2,0.5-0.3,1-0.4,1.5H442.8z"
	/>
<path class="st0" d="M453.7,86.2c-0.9,0-1.7-0.3-2.4-1c-0.7-0.7-1-1.5-1-2.4c0-0.9,0.3-1.7,1-2.4c0.7-0.7,1.5-1,2.4-1
	c0.9,0,1.7,0.3,2.4,1c0.7,0.7,1,1.5,1,2.4c0,0.9-0.3,1.7-1,2.4C455.4,85.9,454.7,86.2,453.7,86.2z"/>
</svg>
