<?xml version="1.0" encoding="utf-8"?>
<!-- Generator: Adobe Illustrator 21.1.0, SVG Export Plug-In . SVG Version: 6.00 Build 0)  -->
<svg version="1.1" id="Layer_1" xmlns="http://www.w3.org/2000/svg" xmlns:xlink="http://www.w3.org/1999/xlink" x="0px" y="0px"
	 viewBox="0 0 444.8 77.5" style="enable-background:new 0 0 444.8 77.5;" xml:space="preserve">
<style type="text/css">
	.st0{fill:#6E0E10;}
	.st1{opacity:0.5;}
	.st2{fill:#E41E28;}
</style>
<path class="st0" d="M317.3,39.4L313,25.8l-4.2,13.6h-5.6l-6.1-20h5.5l3.7,13.5l4.4-13.5h4.7l4.4,13.5l3.7-13.5h5.5l-6.1,20H317.3z"
	/>
<path class="st0" d="M344.7,39.4V27.2c0-1.4-0.3-2.3-1-2.9c-0.7-0.5-1.5-0.8-2.6-0.8c-1,0-1.9,0.2-2.7,0.7c-0.8,0.5-1.3,1-1.8,1.6
	v13.5h-5v-28h5v10.3c0.7-0.8,1.6-1.5,2.8-2.1c1.2-0.7,2.7-1,4.4-1c2.3,0,4,0.6,5.1,1.7c1.1,1.1,1.7,2.7,1.7,4.7v14.4H344.7z"/>
<path class="st0" d="M364,40.2c-1.5,0-2.9-0.2-4.2-0.7c-1.3-0.5-2.4-1.2-3.4-2.1c-1-0.9-1.7-2-2.2-3.3c-0.5-1.3-0.8-2.7-0.8-4.4
	c0-1.4,0.3-2.8,0.8-4.1s1.2-2.4,2.1-3.3c0.9-0.9,2-1.7,3.3-2.2c1.3-0.6,2.7-0.8,4.2-0.8c1.5,0,2.9,0.3,4.1,0.8
	c1.2,0.5,2.3,1.3,3.2,2.3c0.9,1,1.5,2.1,2,3.5c0.5,1.3,0.7,2.8,0.7,4.5v1.2h-14.9c0.2,1.2,0.8,2.3,1.7,3.2c1,0.9,2.3,1.3,4,1.3
	c0.4,0,0.9,0,1.3-0.1c0.5-0.1,1-0.2,1.5-0.4c0.5-0.2,0.9-0.4,1.4-0.6s0.8-0.5,1.1-0.8l2.4,3.5c-1,0.9-2.2,1.6-3.7,2.1
	C367.1,39.9,365.6,40.2,364,40.2z M368.4,27.4c-0.1-0.5-0.2-1-0.4-1.5c-0.2-0.5-0.5-1-0.9-1.4c-0.4-0.4-0.9-0.8-1.5-1
	c-0.6-0.3-1.4-0.4-2.2-0.4c-0.8,0-1.5,0.1-2.1,0.4c-0.6,0.3-1.1,0.6-1.5,1c-0.4,0.4-0.7,0.9-0.9,1.4c-0.2,0.5-0.3,1-0.4,1.5H368.4z"
	/>
<path class="st0" d="M376.7,39.4v-20h5v2.7c0.7-0.9,1.6-1.6,2.6-2.3c1.1-0.6,2.2-0.9,3.4-0.9V24c-0.4-0.1-0.8-0.1-1.4-0.1
	c-0.4,0-0.9,0.1-1.3,0.2s-0.9,0.3-1.3,0.5c-0.4,0.2-0.8,0.4-1.2,0.7c-0.4,0.3-0.6,0.6-0.8,0.9v13.2H376.7z"/>
<path class="st0" d="M400,40.2c-1.5,0-2.9-0.2-4.2-0.7c-1.3-0.5-2.4-1.2-3.4-2.1c-1-0.9-1.7-2-2.2-3.3c-0.5-1.3-0.8-2.7-0.8-4.4
	c0-1.4,0.3-2.8,0.8-4.1s1.2-2.4,2.1-3.3c0.9-0.9,2-1.7,3.3-2.2c1.3-0.6,2.7-0.8,4.2-0.8c1.5,0,2.9,0.3,4.1,0.8
	c1.2,0.5,2.3,1.3,3.2,2.3c0.9,1,1.5,2.1,2,3.5c0.5,1.3,0.7,2.8,0.7,4.5v1.2h-14.9c0.2,1.2,0.8,2.3,1.7,3.2c1,0.9,2.3,1.3,4,1.3
	c0.4,0,0.9,0,1.3-0.1c0.5-0.1,1-0.2,1.5-0.4c0.5-0.2,0.9-0.4,1.4-0.6s0.8-0.5,1.1-0.8l2.4,3.5c-1,0.9-2.2,1.6-3.7,2.1
	C403.1,39.9,401.6,40.2,400,40.2z M404.5,27.4c-0.1-0.5-0.2-1-0.4-1.5c-0.2-0.5-0.5-1-0.9-1.4c-0.4-0.4-0.9-0.8-1.5-1
	c-0.6-0.3-1.4-0.4-2.2-0.4c-0.8,0-1.5,0.1-2.1,0.4c-0.6,0.3-1.1,0.6-1.5,1c-0.4,0.4-0.7,0.9-0.9,1.4c-0.2,0.5-0.3,1-0.4,1.5H404.5z"
	/>
<path class="st0" d="M82.7,70.4v-57h16v42h21v15H82.7z"/>
<path class="st0" d="M120.4,41.9c0-17.6,13-29.6,29.8-29.6c16.8,0,29.8,12,29.8,29.6c0,17.6-13,29.6-29.8,29.6
	C133.4,71.5,120.4,59.5,120.4,41.9z M163.3,41.9c0-8-5.1-14.3-13.1-14.3c-7.9,0-13.1,6.3-13.1,14.3c0,8,5.1,14.3,13.1,14.3
	C158.1,56.3,163.3,49.9,163.3,41.9z"/>
<path class="st0" d="M198.3,70.4l-20-57h18.6l11.7,38.4l11.7-38.4h18.6l-20,57H198.3z"/>
<path class="st0" d="M243.7,70.4v-57h41v15h-24v6h24v15h-24v6h24v15H243.7z"/>
<g class="st1">
	<path class="st0" d="M51.2,41.5c-6.6-6.4-22.8-8.7-36.2-5.3C1.7,39.6-3.8,47.6,2.8,54c5.7,5.5,39,15.6,48,18.2
		c0.5,0.1,1.1,0.1,1.6,0c0.5-0.1,0.8-0.4,0.9-0.7C54.2,66.3,56.9,47,51.2,41.5z M33.6,54c-7.2,1.9-15.9,0.6-19.5-2.9
		c-3.6-3.4-0.6-7.7,6.6-9.6s15.9-0.6,19.5,2.9C43.7,47.9,40.8,52.2,33.6,54z"/>
</g>
<g>
	<path class="st2" d="M52.3,0C39.6,0,29.2,10.4,29.2,23.1c0,11,17.2,40.5,21.9,48.3c0.2,0.4,0.7,0.7,1.2,0.7c0.5,0,0.9-0.3,1.2-0.7
		c4.7-7.9,21.9-37.3,21.9-48.3C75.5,10.4,65.1,0,52.3,0z M52.3,35.8c-6.9,0-12.4-5.6-12.4-12.4s5.6-12.4,12.4-12.4
		s12.4,5.6,12.4,12.4S59.2,35.8,52.3,35.8z"/>
</g>
<path class="st0" d="M308.6,77.5c-3.1,0-5.8-1-8-3l2.2-3.8c0.7,0.9,1.6,1.5,2.6,1.9c1.1,0.4,2.1,0.6,3.1,0.6c0.8,0,1.5-0.1,2.2-0.4
	c0.6-0.3,1.2-0.6,1.6-1.1c0.4-0.5,0.8-1,1-1.6c0.2-0.6,0.4-1.3,0.4-2V66c-0.7,0.7-1.7,1.4-2.9,2.1c-1.2,0.6-2.7,1-4.4,1
	c-2.3,0-4-0.6-5.1-1.7c-1.1-1.1-1.6-2.7-1.6-4.6V49.4h5v11.3c0,1.4,0.3,2.3,1,2.9c0.6,0.5,1.5,0.8,2.6,0.8c1,0,1.9-0.2,2.6-0.7
	c0.7-0.5,1.4-1,1.8-1.6l1-12.7h5v18.7c0,1.5-0.2,2.8-0.7,4c-0.5,1.2-1.2,2.2-2.1,3c-0.9,0.8-2,1.4-3.2,1.8
	C311.5,77.3,310.1,77.5,308.6,77.5z"/>
<path class="st0" d="M331.9,69.6c-1.7,0-3.1-0.3-4.4-0.8c-1.3-0.6-2.4-1.3-3.3-2.3c-0.9-1-1.6-2.1-2.1-3.4c-0.5-1.3-0.7-2.6-0.7-4
	c0-1.4,0.2-2.8,0.7-4c0.5-1.3,1.2-2.4,2.1-3.3c0.9-1,2-1.7,3.3-2.3c1.3-0.6,2.8-0.8,4.4-0.8c1.7,0,3.1,0.3,4.5,0.8
	c1.3,0.6,2.4,1.3,3.3,2.3c0.9,1,1.6,2.1,2.1,3.3c0.5,1.3,0.7,2.6,0.7,4c0,1.4-0.2,2.8-0.7,4c-0.5,1.3-1.2,2.4-2.1,3.4
	c-0.9,1-2,1.7-3.3,2.3C335,69.3,333.6,69.6,331.9,69.6z M331.9,64.9c0.8,0,1.6-0.2,2.2-0.5c0.6-0.3,1.2-0.7,1.6-1.3
	c0.4-0.5,0.8-1.1,1-1.8c0.2-0.7,0.3-1.5,0.3-2.3c0-0.8-0.1-1.5-0.3-2.2c-0.2-0.7-0.6-1.3-1-1.8c-0.4-0.5-1-0.9-1.6-1.3
	c-0.6-0.3-1.4-0.5-2.2-0.5c-0.8,0-1.6,0.2-2.2,0.5c-0.6,0.3-1.2,0.7-1.6,1.3c-0.4,0.5-0.8,1.1-1,1.8c-0.2,0.7-0.3,1.4-0.3,2.2
	c0,0.8,0.1,1.6,0.3,2.3c0.2,0.7,0.6,1.3,1,1.8c0.4,0.5,1,0.9,1.6,1.3C330.3,64.8,331.1,64.9,331.9,64.9z"/>
<path class="st0" d="M358.7,69.4v-2.5c-0.7,0.7-1.7,1.4-2.9,2.1c-1.2,0.6-2.7,1-4.4,1c-2.3,0-4-0.6-5.1-1.7
	c-1.1-1.1-1.6-2.7-1.6-4.6V49.4h6v12.1c0,1.4,0.3,2.3,1,2.9c0.6,0.5,1.5,0.8,2.6,0.8c1,0,1.9-0.2,2.6-0.7c0.7-0.5,1.4-1,1.8-1.6
	V49.4h5v20H358.7z"/>
<path class="st0" d="M391.7,69.4v-2.6c-0.8,1-1.6,1.8-2.6,2.3c-1,0.5-2.1,0.8-3.2,0.8c-1.2,0-2.3-0.2-3.3-0.7c-1-0.5-1.9-1.2-2.7-2
	c-0.7-0.9-1.3-2-1.8-3.3c-0.4-1.3-0.6-2.8-0.6-4.5c0-1.6,0.2-3.1,0.6-4.4c0.4-1.3,1-2.4,1.7-3.3c0.7-0.9,1.6-1.6,2.7-2.1
	c1-0.5,2.1-0.7,3.3-0.7c1.1,0,2.2,0.2,3.2,0.7c1,0.5,1.9,1.3,2.6,2.3v-2.6h5v20H391.7z M387.2,64.9c0.9,0,1.7-0.2,2.6-0.6
	c0.8-0.4,1.5-1,1.9-1.6v-7c-0.4-0.7-1.1-1.2-1.9-1.7c-0.8-0.4-1.7-0.7-2.6-0.7c-1.5,0-2.8,0.5-3.7,1.6c-0.9,1.1-1.4,2.5-1.4,4.2
	c0,1.7,0.5,3.2,1.4,4.2C384.4,64.4,385.6,64.9,387.2,64.9z"/>
<path class="st0" d="M401.7,69.4v-20h6v2.7c0.7-0.9,1.6-1.6,2.6-2.3c1.1-0.6,2.2-0.9,3.4-0.9V54c-0.4-0.1-0.8-0.1-1.4-0.1
	c-0.4,0-0.9,0.1-1.3,0.2c-0.5,0.1-0.9,0.3-1.3,0.5c-0.4,0.2-0.8,0.4-1.2,0.7c-0.4,0.3-0.6,0.6-0.8,0.9v13.2H401.7z"/>
<path class="st0" d="M426,69.2c-1.5,0-2.9-0.2-4.2-0.7c-1.3-0.5-2.4-1.2-3.4-2.1c-1-0.9-1.7-2-2.2-3.3c-0.5-1.3-0.8-2.8-0.8-4.4
	c0-1.4,0.3-2.8,0.8-4.1c0.5-1.3,1.2-2.4,2.1-3.3c0.9-0.9,2-1.7,3.3-2.2c1.3-0.6,2.7-0.8,4.2-0.8c1.5,0,2.9,0.3,4.1,0.8
	c1.2,0.5,2.3,1.3,3.2,2.3c0.9,1,1.5,2.1,2,3.5c0.5,1.3,0.7,2.8,0.7,4.5v1.2h-14.9c0.2,1.2,0.8,2.3,1.7,3.2c1,0.9,2.3,1.3,4,1.3
	c0.4,0,0.9,0,1.3-0.1c0.5-0.1,1-0.2,1.5-0.4c0.5-0.2,0.9-0.4,1.4-0.6c0.4-0.2,0.8-0.5,1.1-0.8l2.4,3.5c-1,0.9-2.2,1.6-3.7,2.1
	C429.1,68.9,427.6,69.2,426,69.2z M430.5,57.4c-0.1-0.5-0.2-1-0.4-1.5c-0.2-0.5-0.5-1-0.9-1.4c-0.4-0.4-0.9-0.8-1.5-1
	s-1.4-0.4-2.2-0.4c-0.8,0-1.5,0.1-2.1,0.4c-0.6,0.3-1.1,0.6-1.5,1c-0.4,0.4-0.7,0.9-0.9,1.4c-0.2,0.5-0.3,1-0.4,1.5H430.5z"/>
<path class="st0" d="M441.4,69.6c-0.9,0-1.7-0.3-2.4-1c-0.7-0.7-1-1.5-1-2.4c0-0.9,0.3-1.7,1-2.4c0.7-0.7,1.5-1,2.4-1s1.7,0.3,2.4,1
	c0.7,0.7,1,1.5,1,2.4c0,0.9-0.3,1.7-1,2.4C443.1,69.3,442.3,69.6,441.4,69.6z"/>
</svg>
